<ttFont>
<head>
    <!-- Most of this table will be recalculated by the compiler -->
    <tableVersion value="1.0"/>
    <fontRevision value="2.004"/>
    <checkSumAdjustment value="0xc3ea8ea3"/>
    <magicNumber value="0x5f0f3cf5"/>
    <flags value="00000000 00000011"/>
    <unitsPerEm value="1000"/>
    <created value="Thu Oct  8 10:01:44 2009"/>
    <modified value="Thu Oct  8 10:01:44 2009"/>
    <xMin value="-456"/>
    <yMin value="-320"/>
    <xMax value="743"/>
    <yMax value="1014"/>
    <macStyle value="00000000 00000000"/>
    <lowestRecPPEM value="3"/>
    <fontDirectionHint value="2"/>
    <indexToLocFormat value="0"/>
    <glyphDataFormat value="0"/>
  </head>
          <CharString index="0">
            rmoveto
            20 -16 18 -22 -7 -1 -1 -5 -14 vhcurveto
            -129 -50 rlineto
            -13 -5 -15 -6 -20 vvcurveto
            0 4 -44 32 6 47 18 10 26 vhcurveto
            72 27 rlineto
            10 4 20 8 26 vvcurveto
            endchar
          </CharString>
          <CharString index="1">
            rmoveto
            16 -11 16 -22 -19 -8 -10 -11 -5 vhcurveto
            -3 -8 -2 -5 -42 -3 rrcurveto
            -2 -23 -17 0 -28 hhcurveto
            -29 -16 0 2 -23 hvcurveto
            -28 2 -14 1 -5 13 rrcurveto
            6 -3 -6 15 -23 hhcurveto
            -21 -12 -15 -17 -76 106 0 74 74 106 0 76 hvcurveto
            return
          </CharString>
          <CharString index="2">
            rmoveto
            -118 43 -6 2 -7 0 -6 -2 rlinecurve
            -118 -43 -36 -13 18 -54 36 11 rlinecurve
            109 33 109 -33 36 -11 18 54 -35 13 rlinecurve
            return
          </CharString>
          <CharString index="3">
            527 4 callgsubr
            -130 -83 callgsubr
            -337 hlineto
            -100 -63 -52 -53 -53 -63 52 100 vhcurveto
            337 27 vlineto
            -64 callgsubr
            -130 -83 callgsubr
            -339 hlineto
            -128 92 -88 100 100 92 87 129 vhcurveto
            339 27 42 callsubr
            hvcurveto
            return
          </CharString>
          <CharString index="4">
            hlineto
            -100 callgsubr
            return
          </CharString>
          <CharString index="5">
            0 -33 -33 30 0 14 hvcurveto
            return
          </CharString>
          <CharString index="6">
            27 -22 22 -27 -27 -22 -22 -27 -27 22 -21 27 27 22 21 27 vhcurveto
            return
          </CharString>
          <CharString index="7">
            hlineto
            -98 callsubr
            return
          </CharString>
          <CharString index="8">
            -106 callsubr
            endchar
          </CharString>
          <CharString index="9">
            -15 -29 -102 callsubr
            return
          </CharString>
          <CharString index="10">
            508 119 callgsubr
            -50 callgsubr
            -24 -19 vhcurveto
            -66 -261 217 126 vlineto
            -36 0 -20 -58 callsubr
            92 vlineto
            -50 callgsubr
            -20 -36 vhcurveto
            -126 196 hlineto
            return
          </CharString>
          <CharString index="11">
            505 398 rmoveto
            33 -29 0 -17 vhcurveto
            -111 hlineto
            -17 -29 0 -33 -3 1 -19 17 -8 hvcurveto
            -3 7 25 0 17 hhcurveto
            -51 -150 -15 -46 -22 -66 -6 -25 rlinecurve
            -1 hlineto
            -3 14 -6 18 -41 108 -58 147 rcurveline
            15 23 0 3 7 hvcurveto
            9 3 10 10 17 vvcurveto
            33 -29 0 -17 vhcurveto
            -111 hlineto
            -17 -29 0 -33 -5 2 -20 19 -6 hvcurveto
            -2 6 28 0 17 hhcurveto
            140 -352 rlineto
            3 -8 1 -5 0 vvcurveto
            -3 -26 -80 -9 -18 vhcurveto
            -17 -34 -26 -23 -37 -3 9 19 rcurveline
            32 -1 -22 15 -24 hhcurveto
            -27 -20 -18 -30 hvcurveto
            return
          </CharString>
          <CharString index="12">
            451 35 callsubr
            -104 479 104 hlineto
            15 29 37 callsubr
            -284 -100 callsubr
            104 -479 -56 callgsubr
            284 -47 callgsubr
            return
          </CharString>
          <CharString index="13">
            239 -44 callsubr
            74 vlineto
            34 -10 9 -33 vhcurveto
            -375 -83 callgsubr
            -479 29 callgsubr
            hvcurveto
            return
          </CharString>
          <CharString index="14">
            502 33 rmoveto
            33 -26 0 -34 vhcurveto
            -119 521 rlineto
            39 -9 -22 0 -27 hhcurveto
            -31 -17 0 -39 -9 hvcurveto
            -120 -521 rlineto
            return
          </CharString>
          <CharString index="15">
            461 35 callsubr
            -101 16 callgsubr
            -142 -100 callsubr
            109 -299 -117 -100 callsubr
            294 26 callgsubr
            return
          </CharString>
          <CharString index="16">
            -79 -73 -15 -38 -77 0 29 29 vhcurveto
            269 -81 callgsubr
            -249 hlineto
            -92 63 -29 84 53 38 15 19 25 vhcurveto
            return
          </CharString>
          <CharString index="17">
            476 465 rmoveto
            32 -12 40 -42 1 vhcurveto
            -32 -1 -21 -25 -28 vvcurveto
            -22 12 -20 22 -8 vhcurveto
            -10 -6 -9 -7 -9 hhcurveto
            -6 -6 -1 -3 -5 hvcurveto
            16 -30 -33 9 -35 hhcurveto
            -56 -53 -24 -41 -39 hvcurveto
            -40 -43 -22 -56 -59 vvcurveto
            -58 22 -56 40 -42 vhcurveto
            -40 39 53 -24 56 hhcurveto
            57 53 24 40 39 hvcurveto
            40 42 21 56 58 vvcurveto
            54 -18 52 -34 42 vhcurveto
            34 18 20 41 43 vvcurveto
            -78 -241 rmoveto
            -42 -13 -41 -26 -32 vhcurveto
            -29 -24 -34 -19 -37 hhcurveto
            -37 -34 19 29 -23 hvcurveto
            -27 32 -12 41 42 vvcurveto
            38 13 38 26 29 vhcurveto
            27 24 34 16 36 hhcurveto
            37 33 -16 -27 25 hvcurveto
            26 -29 13 -38 -38 vvcurveto
            return
          </CharString>
          <CharString index="18">
            rmoveto
            34 64 callsubr
            -296 -20 callsubr
            -34 -34 28 0 16 92 callsubr
            16 27 0 34 hvcurveto
            endchar
          </CharString>
          <CharString index="19">
            -34 -26 -64 callsubr
            33 -27 0 -29 hvcurveto
            20 91 rlineto
            158 hlineto
            return
          </CharString>
          <CharString index="20">
            -30 callgsubr
            hintmask 0010000010000000
            -8 -13 -12 -27 -28 vvcurveto
            -29 12 -28 12 -15 vhcurveto
            hintmask 1100001000100000
            -42 -24 -29 -49 -49 vvcurveto
            -88 108 -60 127 127 108 60 88 87 -76 52 -107 4 vhcurveto
            -30 1 -74 -2 -29 4 rrcurveto
            hintmask 0010000011010000
            -44 0 48 0 12 3 7 2 5 hvcurveto
            -10 17 33 -14 40 hhcurveto
            97 74 74 87 35 -13 31 -12 19 hvcurveto
            20 11 11 1 17 2 rrcurveto
            -24 6 18 -11 19 hhcurveto
            24 19 19 24 hvcurveto
            -185 -107 rmoveto
            -52 -42 -44 -53 vhcurveto
            hintmask 1001000101000000
            -50 -44 42 54 54 44 42 50 52 43 -43 -53 hvcurveto
            107 -355 rmoveto
            -41 -72 -42 -100 vhcurveto
            hintmask 0100001000100000
            -101 -71 43 40 39 36 41 53 1 hvcurveto
            55 hlineto
            88 112 0 -81 hvcurveto
            return
          </CharString>
          <CharString index="21">
            -77 -75 104 145 148 77 102 76 33 62 -22 -106 16 hvcurveto
            -29 4 23 62 callgsubr
            137 69 callgsubr
            -19 -7 -7 -34 -17 vhcurveto
            31 -40 -39 10 -36 hhcurveto
            -121 -104 -135 -180 -184 105 -132 120 55 40 28 18 20 hvcurveto
            -36 26 0 12 38 0 24 19 vhcurveto
            return
          </CharString>
          <CharString index="22">
            rmoveto
            -120 76 -9 6 -12 0 -9 -6 rlinecurve
            -118 -75 -33 -21 31 -49 33 20 rlinecurve
            103 62 103 -62 33 -20 31 48 -33 21 rlinecurve
            return
          </CharString>
          <CharString index="23">
            463 126 rmoveto
            24 -8 36 -38 29 vhcurveto
            -40 30 -39 6 -70 12 rrcurveto
            -68 11 -61 10 36 vvcurveto
            20 24 33 100 90 3 -32 -18 1 vhcurveto
            -32 2 25 62 callgsubr
            62 69 callgsubr
            -23 -5 -12 -6 -3 vhcurveto
            18 -41 -40 0 -23 hhcurveto
            -170 -22 -84 -35 -93 105 -16 88 -14 hvcurveto
            54 -9 77 -12 -49 vvcurveto
            -36 -38 -30 -87 -62 -40 21 60 -21 vhcurveto
            16 -5 -4 12 -29 hhcurveto
            -38 0 -25 -18 hvcurveto
            -89 vlineto
            return
          </CharString>
          <CharString index="24">
            514 398 rmoveto
            -16 callgsubr
            vhcurveto
            -118 -6 callsubr
            47 hlineto
            -46 -285 rlineto
            -1 hlineto
            -3 25 -15 52 -10 32 rrcurveto
            54 -15 -5 16 -37 hhcurveto
            -38 -4 -17 -51 -15 hvcurveto
            -25 -86 -2 -10 -3 -16 rrcurveto
            -1 hlineto
            -48 286 rlineto
            47 hlineto
            15 28 23 callgsubr
            -15 hvcurveto
            -118 hlineto
            106 callsubr
            23 hvcurveto
            59 -330 rlineto
            -38 7 19 -2 24 hhcurveto
            43 4 12 53 15 hvcurveto
            25 87 1 12 2 19 rrcurveto
            1 hlineto
            1 -12 7 -33 21 -73 rrcurveto
            -50 14 4 -15 42 hhcurveto
            return
          </CharString>
          <CharString index="25">
            -39 callgsubr
            194 208 rmoveto
            35 -28 14 -20 -23 -26 -16 -34 vhcurveto
            15 -203 rlineto
            -21 2 1 -22 31 hhcurveto
            30 2 23 19 1 hvcurveto
            endchar
          </CharString>
          <CharString index="26">
            472 35 callsubr
            -125 502 38 callsubr
            -158 -100 callsubr
            125 -479 -125 -100 callsubr
            326 -47 callgsubr
            return
          </CharString>
          <CharString index="27">
            20 callsubr
            hstemhm
            30 63 -28 76 -64 63 190 76 31 63 -61 76 hintmask 0001010001000000
            14 callgsubr
            hintmask 0010001000000000
            -8 -13 -12 -27 -28 vvcurveto
            -29 12 -28 12 -15 vhcurveto
            hintmask 1100100010000000
            -42 -24 -29 -49 -49 vvcurveto
            -88 108 -60 127 127 108 60 88 87 -76 52 -107 4 vhcurveto
            -30 1 -74 -2 -29 4 rrcurveto
            hintmask 0010001101000000
            -44 0 48 0 12 3 7 2 5 hvcurveto
            -10 17 33 -14 40 hhcurveto
            97 74 74 87 35 -13 31 -12 19 hvcurveto
            20 11 11 1 17 2 rrcurveto
            -24 6 18 -11 19 hhcurveto
            24 19 19 24 hvcurveto
            -185 -107 rmoveto
            -52 -42 -44 -53 vhcurveto
            hintmask 1001010100000000
            -50 -44 42 54 54 44 42 50 52 43 -43 -53 hvcurveto
            107 -355 rmoveto
            -41 -72 -42 -100 vhcurveto
            hintmask 0100100010000000
            -101 -71 43 40 39 36 41 53 1 hvcurveto
            55 hlineto
            88 112 0 -81 hvcurveto
            return
          </CharString>
          <CharString index="28">
            494 119 callgsubr
            21 0 22 -38 -38 0 -22 -21 vhcurveto
            -66 -235 479 -42 callsubr
            -479 -33 hlineto
            52 callgsubr
            return
          </CharString>
          <CharString index="29">
            487 43 rmoveto
            93 vlineto
            -50 callgsubr
            -24 -19 vhcurveto
            -70 -265 vlineto
            327 478 rlineto
            8 12 1 2 15 vvcurveto
            38 -25 0 -18 vhcurveto
            -335 hlineto
            -31 -13 -6 -37 -15 callgsubr
            248 vlineto
            -327 -478 rlineto
            -8 -12 -1 -2 -15 vvcurveto
            -38 25 0 18 vhcurveto
            353 -44 callgsubr
            return
          </CharString>
          <CharString index="30">
            -41 -103 callsubr
            158 -23 callgsubr
            return
          </CharString>
          <CharString index="31">
            538 647 rmoveto
            31 -13 40 -41 74 callsubr
            -20 11 -19 17 -9 vhcurveto
            -4 -4 -6 -4 -6 -3 rrcurveto
            3 -5 -5 2 -6 hhcurveto
            -85 hlineto
            -17 -14 -14 -17 hvcurveto
            -4 vlineto
            -17 14 -14 17 vhcurveto
            39 -341 hlineto
            -41 -12 -37 -24 -29 vhcurveto
            -26 -21 -29 -15 -30 hhcurveto
            -29 -29 15 26 -22 hvcurveto
            -23 29 -13 37 41 vvcurveto
            341 vlineto
            return
          </CharString>
          <CharString index="32">
            rmoveto
            76 -106 0 -74 -74 -106 0 -76 -16 11 -16 22 19 8 10 11 5 vhcurveto
            3 8 2 5 42 3 rrcurveto
            2 23 17 0 28 hhcurveto
            29 16 0 -2 23 hvcurveto
            28 -2 14 -1 5 -13 rrcurveto
            -6 3 6 -15 23 hhcurveto
            21 12 15 17 hvcurveto
            endchar
          </CharString>
          <CharString index="33">
            531 -10 15 callsubr
            hstemhm
            85 76 75 50 callsubr
            hintmask 0010000000100000
            528 97 rmoveto
            34 -30 0 -8 -8 -29 0 -32 -1 vhcurveto
            hintmask 1000000010000000
            -7 -2 -36 -14 -25 0 46 48 63 0 7 -8 22 vhcurveto
            -58 callgsubr
            hintmask 1000111001100000
            -62 callsubr
            return
          </CharString>
          <CharString index="34">
            rmoveto
            -101 callsubr
            213 hmoveto
            -101 callsubr
            endchar
          </CharString>
          <CharString index="35">
            -41 -2 -36 -27 -38 hhcurveto
            -74 0 55 23 hvcurveto
            226 160 vlineto
            15 28 23 callgsubr
            -15 hvcurveto
            -160 80 hlineto
            -50 callgsubr
            -25 -18 vhcurveto
            -80 -83 vlineto
            -15 -29 -30 callsubr
            84 -228 hlineto
            return
          </CharString>
          <CharString index="36">
            15 -28 callgsubr
            return
          </CharString>
          <CharString index="37">
            -56 callsubr
            -109 -45 callsubr
            76 -299 -76 -45 callsubr
            258 -67 callgsubr
            return
          </CharString>
          <CharString index="38">
            115 callsubr
            hintmask 1101010110000000
            -76 callsubr
            hintmask 1100011010000000
            -68 callsubr
            return
          </CharString>
          <CharString index="39">
            39 hlineto
            17 14 14 17 hvcurveto
            4 vlineto
            17 -14 14 -17 vhcurveto
            -154 hlineto
            -17 -14 -14 -17 hvcurveto
            -4 vlineto
            -17 14 -14 17 vhcurveto
            39 -341 hlineto
            -56 19 -53 36 -41 vhcurveto
            -40 35 50 -24 52 hhcurveto
            53 49 24 40 36 hvcurveto
            36 41 19 53 56 vvcurveto
            337 vlineto
            46 15 35 40 51 vvcurveto
            return
          </CharString>
          <CharString index="40">
            -20 hstemhm
            57 76 242 76 -55 76 hintmask 11010110
            -60 callgsubr
            hintmask 11000110
            -13 callgsubr
            hintmask 00101000
            return
          </CharString>
          <CharString index="41">
            470 108 rmoveto
            22 -17 9 -21 -14 -14 0 -23 -9 vhcurveto
            -44 -18 -40 -11 -36 hhcurveto
            -83 -70 68 87 51 32 106 127 29 17 -2 -1 5 hvcurveto
            3 -1 1 -1 -9 vvcurveto
            -29 2 21 -17 25 hhcurveto
            30 19 22 27 77 -104 0 -46 -178 -59 -138 -85 return
          </CharString>
          <CharString index="42">
            rmoveto
            33 64 callsubr
            return
          </CharString>
          <CharString index="43">
            -102 callsubr
            106 25 callgsubr
            return
          </CharString>
          <CharString index="44">
            514 125 callgsubr
            -26 vhcurveto
            479 vlineto
            26 27 37 callsubr
            -58 hlineto
            -20 -25 0 -38 -12 hvcurveto
            -57 -177 rlineto
            0 -27 -82 -6 -31 vhcurveto
            -1 hlineto
            -6 32 -5 16 -12 37 -66 202 rcurveline
            28 -9 -8 13 -40 hhcurveto
            -58 -52 callgsubr
            27 0 26 hvcurveto
            -479 72 callgsubr
            33 -27 0 -26 hvcurveto
            464 1 vlineto
            5 -25 3 -11 10 -30 71 -221 rcurveline
            -8 3 9 -31 32 hhcurveto
            9 19 5 19 10 hvcurveto
            6 13 89 277 1 10 rrcurveto
            -462 72 callgsubr
            hvcurveto
            return
          </CharString>
          <CharString index="45">
            -68 0 -35 27 -35 vhcurveto
            -31 23 33 -6 19 hhcurveto
            64 27 62 45 hvcurveto
            -166 345 rmoveto
            -46 -42 -57 -90 vhcurveto
            -69 206 69 hlineto
            90 42 -57 -46 hvcurveto
            return
          </CharString>
          <CharString index="46">
            hlineto
            -71 callsubr
            return
          </CharString>
          <CharString index="47">
            503 21 callgsubr
            -389 hlineto
            -31 -13 -6 -37 -15 callgsubr
            124 -479 return
          </CharString>
          <CharString index="48">
            0 -24 -58 callsubr
            return
          </CharString>
          <CharString index="49">
            38 38 0 24 19 vhcurveto
            return
          </CharString>
          <CharString index="50">
            531 266 rmoveto
            146 -119 119 -146 -147 -119 -119 -146 -147 119 -119 147 146 119 119 147 vhcurveto
            -41 hmoveto
            -124 -100 -101 -124 -124 -101 101 124 124 101 100 124 124 100 -100 -124 vhcurveto
            return
          </CharString>
          <CharString index="51">
            34 -10 9 -33 vhcurveto
            return
          </CharString>
          <CharString index="52">
            513 33 -65 callsubr
            -29 hlineto
            -145 185 -1 2 120 112 rlineto
            33 -67 callgsubr
            -153 -103 callsubr
            28 hlineto
            -152 -141 rlineto
            344 -26 callgsubr
            -64 -100 callsubr
            45 -479 -45 -100 callsubr
            152 hlineto
            15 29 37 callsubr
            -45 73 hlineto
            78 72 113 -145 rlineto
            -26 -41 callsubr
            117 -21 callgsubr
            return
          </CharString>
          <CharString index="53">
            -53 callgsubr
            -21 return
          </CharString>
          <CharString index="54">
            -78 callgsubr
            72 callsubr
            return
          </CharString>
          <CharString index="55">
            hstemhm
            240 -49 callsubr
            return
          </CharString>
          <CharString index="56">
            -15 -28 -30 callsubr
            return
          </CharString>
          <CharString index="57">
            rmoveto
            -101 callsubr
            179 hmoveto
            -101 callsubr
            endchar
          </CharString>
          <CharString index="58">
            76 hintmask 11001000
            -92 callsubr
            return
          </CharString>
          <CharString index="59">
            -74 callgsubr
            endchar
          </CharString>
          <CharString index="60">
            531 -5 65 -65 66 62 65 -2 65 -63 92 callgsubr
            hstemhm
            30 62 -2 65 -63 63 -5 62 0 62 -41 65 84 65 1 62 hintmask 0110010000011100
            510 108 rmoveto
            17 -13 14 -18 -24 -5 -20 -9 -2 vhcurveto
            -26 -8 -18 -23 -26 hhcurveto
            -35 -52 39 88 -11 hvcurveto
            169 hlineto
            33 10 8 35 141 -58 67 -70 hvcurveto
            hintmask 0001010100100000
            -50 -35 -35 -32 -23 hvcurveto
            32 -19 -35 35 -61 hhcurveto
            -81 -37 -34 -43 -27 19 -22 30 26 22 19 30 6 0 2 -1 2 hvcurveto
            1 6 9 0 6 hhcurveto
            39 37 -26 -66 hvcurveto
            -30 vlineto
            hintmask 1010001001000100
            -153 -6 -51 -61 -61 vvcurveto
            -61 44 -67 76 29 65 10 55 35 vhcurveto
            -24 18 39 -41 57 hhcurveto
            83 34 89 24 hvcurveto
            -63 145 rmoveto
            hintmask 0000110001011000
            -149 hlineto
            70 10 38 50 36 hhcurveto
            25 34 -25 -95 6 hvcurveto
            -213 -67 rmoveto
            -1 -10 0 -14 -10 vvcurveto
            -20 vlineto
            -19 0 -16 -21 -16 vhcurveto
            hintmask 0110000010000000
            -17 -21 -24 -3 -12 hhcurveto
            -42 -21 35 27 hvcurveto
            hintmask 0001000000000000
            29 40 29 102 5 vhcurveto
            endchar
          </CharString>
          <CharString index="61">
            79 callsubr
            -479 -19 38 callgsubr
            26 0 17 hvcurveto
            208 hlineto
            133 89 141 160 hvcurveto
            -76 hmoveto
            -115 -57 -120 -110 vhcurveto
            -92 479 92 hlineto
            112 55 -130 -114 hvcurveto
            return
          </CharString>
          <CharString index="62">
            hlineto
            -26 callsubr
            return
          </CharString>
          <CharString index="63">
            -51 hlineto
            -66 callgsubr
            return
          </CharString>
          <CharString index="64">
            -75 0 -104 -21 -42 vhcurveto
            -37 -19 -48 -4 -44 hhcurveto
            -43 -48 4 37 -19 hvcurveto
            -21 42 0 104 75 vvcurveto
            68 0 94 21 38 vhcurveto
            36 20 48 1 42 hhcurveto
            43 48 -1 -36 20 hvcurveto
            return
          </CharString>
          <CharString index="65">
            52 vlineto
            -61 callgsubr
            -161 -100 callsubr
            33 return
          </CharString>
          <CharString index="66">
            -27 -102 callsubr
            return
          </CharString>
          <CharString index="67">
            -36 callsubr
            endchar
          </CharString>
          <CharString index="68">
            531 -5 66 return
          </CharString>
          <CharString index="69">
            -29 5 24 0 15 hhcurveto
            74 -21 callgsubr
            return
          </CharString>
          <CharString index="70">
            -20 0 -23 35 -2 vhcurveto
            40 -2 25 -16 -19 vvcurveto
            -38 -109 0 -25 vhcurveto
            -22 38 callgsubr
            23 0 34 81 137 3 101 return
          </CharString>
          <CharString index="71">
            39 -38 0 -12 vhcurveto
            -316 hlineto
            -11 -39 0 -38 -39 38 0 12 hvcurveto
            316 hlineto
            99 callgsubr
            hvcurveto
            return
          </CharString>
          <CharString index="72">
            76 hintmask 01000000
            501 239 -65 callsubr
            -122 hlineto
            hintmask 00100000
            -16 -27 0 -33 hvcurveto
            hintmask 11000000
            58 callgsubr
            vhcurveto
            40 hlineto
            -88 -10 -40 -62 -60 hhcurveto
            return
          </CharString>
          <CharString index="73">
            -69 callgsubr
            29 -11 callsubr
            118 -54 callsubr
            return
          </CharString>
          <CharString index="74">
            -48 callgsubr
            479 66 return
          </CharString>
          <CharString index="75">
            -53 callsubr
            -57 callgsubr
            141 callgsubr
            hvcurveto
            return
          </CharString>
          <CharString index="76">
            -40 32 -44 52 79 52 77 67 23 vhcurveto
            153 448 rlineto
            17 27 0 2 6 hvcurveto
            11 4 10 9 18 vvcurveto
            return
          </CharString>
          <CharString index="77">
            0 -33 -33 28 -11 callsubr
            return
          </CharString>
          <CharString index="78">
            14 30 0 33 return
          </CharString>
          <CharString index="79">
            -10 callgsubr
            hintmask 1010001010000000
            3 callgsubr
            hintmask 0001001000000000
            291 vlineto
            hintmask 0010000000000000
            17 -14 13 -17 vhcurveto
            -98 75 callsubr
            hintmask 0010001000000000
            27 callsubr
            hintmask 1000000110000000
            40 callsubr
            hintmask 0101000010000000
            -12 callsubr
            hintmask 0000010000000000
            return
          </CharString>
          <CharString index="80">
            -29 -41 callsubr
            return
          </CharString>
          <CharString index="81">
            -14 -30 -102 callsubr
            return
          </CharString>
          <CharString index="82">
            -93 callsubr
            -88 callsubr
            return
          </CharString>
          <CharString index="83">
            -48 callgsubr
            0 66 46 66 39 82 callgsubr
            hstemhm
            172 62 33 62 106 62 -54 62 hintmask 0101101010000000
            505 119 callgsubr
            13 0 30 -31 -31 0 -30 -13 vhcurveto
            -66 -114 217 108 vlineto
            15 28 23 callgsubr
            -15 hvcurveto
            -108 196 hlineto
            hintmask 0100100100000000
            106 -51 hlineto
            -13 0 -30 31 31 0 30 13 90 callgsubr
            -278 -52 callgsubr
            31 0 8 hvcurveto
            -99 -479 rlineto
            -22 -26 0 -33 hvcurveto
            hintmask 1010111010000000
            58 callgsubr
            vhcurveto
            70 63 callsubr
            -29 0 -16 hvcurveto
            23 112 rlineto
            108 -112 hlineto
            -9 -31 -102 callsubr
            191 -44 callgsubr
            -238 201 rmoveto
            -95 hlineto
            62 301 rlineto
            33 hlineto
            endchar
          </CharString>
          <CharString index="84">
            -35 callgsubr
            299 66 76 97 144 callgsubr
            hintmask 0110001010000000
            -86 callgsubr
            hintmask 1010101000000000
            -91 callsubr
            hintmask 0100000000000000
            -38 callsubr
            hintmask 0001010100000000
            -294 3 callsubr
            return
          </CharString>
          <CharString index="85">
            489 169 rmoveto
            35 -28 0 -10 -14 -22 -4 -23 -2 vhcurveto
            -114 -7 -101 -7 -16 hhcurveto
            -92 -80 108 141 146 83 104 88 hvcurveto
            return
          </CharString>
          <CharString index="86">
            531 -200 108 82 15 callsubr
            hstemhm
            85 76 51 108 -84 50 callsubr
            hintmask 0001000000001000
            528 97 rmoveto
            34 -30 0 -8 -8 -29 0 -32 -1 vhcurveto
            hintmask 0100000000100000
            10 callgsubr
            hintmask 0010001100010000
            -54 callgsubr
            hintmask 0001000000000000
            52 callgsubr
            hintmask 0010000000000000
            141 callgsubr
            vhcurveto
            118 hlineto
            hintmask 0001000000000000
            98 callsubr
            hintmask 0010110101100000
            -33 callgsubr
            return
          </CharString>
          <CharString index="87">
            hlineto
            -16 -27 0 return
          </CharString>
          <CharString index="88">
            96 77 36 50 46 15 -22 -59 vhcurveto
            -223 -33 vlineto
            return
          </CharString>
          <CharString index="89">
            -106 117 hlineto
            109 78 78 97 vhcurveto
            -39 2 28 -8 16 hhcurveto
            25 21 18 29 hvcurveto
            return
          </CharString>
          <CharString index="90">
            -61 callsubr
            33 return
          </CharString>
          <CharString index="91">
            -4 callgsubr
            499 66 return
          </CharString>
          <CharString index="92">
            143 callsubr
            19 62 172 64 87 64 -20 63 -62 62 hintmask 00000001
            511 108 rmoveto
            17 -13 14 -18 -24 -5 -21 -8 -2 vhcurveto
            hintmask 11001100
            -22 -6 -14 -27 -25 hhcurveto
            -27 -49 33 94 -11 hvcurveto
            151 hlineto
            hintmask 11111001
            36 7 11 33 133 -50 74 -70 -52 -36 -42 -39 -20 hvcurveto
            35 -20 -39 46 -57 hhcurveto
            -81 -67 -94 -128 -129 68 -93 80 60 40 51 33 17 hvcurveto
            -45 24 40 -39 53 hhcurveto
            82 28 92 21 hvcurveto
            -63 145 rmoveto
            -131 hlineto
            70 9 35 50 30 hhcurveto
            hintmask 11111010
            33 21 -53 -67 3 hvcurveto
            -195 -30 rmoveto
            -95 -45 -67 -41 -41 -45 67 95 93 47 57 39 39 47 -56 -94 vhcurveto
            endchar
          </CharString>
          <CharString index="93">
            -48 callgsubr
            489 66 hstemhm
            41 76 261 76 -41 76 hintmask 10010000
            497 43 rmoveto
            27 vlineto
            13 0 30 -31 -31 0 -29 -18 vhcurveto
            -57 hlineto
            4 23 6 30 32 68 rrcurveto
            hintmask 11101000
            39 82 30 64 73 vvcurveto
            122 -102 93 -122 -122 -102 -93 -122 -64 24 -60 33 -71 vhcurveto
            33 -69 13 -30 8 -46 rrcurveto
            -57 hlineto
            18 0 29 -31 -31 0 -30 -13 vhcurveto
            -27 vlineto
            -35 11 -8 33 vhcurveto
            101 hlineto
            18 25 0 37 66 -31 75 -21 48 hvcurveto
            -27 62 -25 60 58 vvcurveto
            86 70 63 78 78 70 -63 -86 -58 -24 -57 -29 -69 vhcurveto
            -19 -44 -32 -75 -65 vvcurveto
            -38 25 0 19 vhcurveto
            hintmask 10010000
            101 103 callgsubr
          </CharString>
          <CharString index="94">
            -48 callgsubr
            225 66 188 66 hstemhm
            25 62 0 62 hintmask 11101000
            -27 callgsubr
            hintmask 10110000
            27 callgsubr
            100 hlineto
            95 callgsubr
            hintmask 10001000
            18 callsubr
            endchar
          </CharString>
          <CharString index="95">
            -16 1 14 -13 16 hhcurveto
            99 hlineto
            17 14 14 17 hvcurveto
            4 vlineto
            17 -14 14 -17 vhcurveto
            -53 294 hlineto
            48 14 38 40 52 vvcurveto
            return
          </CharString>
          <CharString index="96">
            0 15 hvcurveto
            return
          </CharString>
          <CharString index="97">
            -32 callgsubr
            87 66 -61 66 307 66 hstemhm
            48 76 88 108 30 76 hintmask 00111010
            525 33 rmoveto
            33 -28 0 -14 -38 -9 3 4 -10 vhcurveto
            209 vlineto
            83 -65 74 -137 -47 -103 0 -77 -27 19 -22 30 19 27 12 36 2 vhcurveto
            8 1 1 13 2 vhcurveto
            1 11 17 0 12 hhcurveto
            82 43 -37 -55 hvcurveto
            -107 -195 -25 -123 hvcurveto
            hintmask 01000000
            -74 69 -64 101 80 50 30 9 13 vhcurveto
            hintmask 00100000
            -31 21 42 -3 48 hhcurveto
            27 26 0 33 hvcurveto
            -175 110 rmoveto
            -21 0 -23 -39 -19 vhcurveto
            hintmask 01001010
            -77 callgsubr
            return
          </CharString>
          <CharString index="98">
            40 -32 28 -35 -40 -28 -32 -35 -40 32 -28 35 40 28 32 35 vhcurveto
            return
          </CharString>
          <CharString index="99">
            -48 callgsubr
            91 66 403 -20 return
          </CharString>
          <CharString index="100">
            -17 callgsubr
            502 38 callsubr
            -74 -103 callsubr
            41 -150 hlineto
            36 -46 -42 5 -27 hhcurveto
            -111 -99 -94 -127 hvcurveto
            return
          </CharString>
          <CharString index="101">
            hlineto
            -51 callsubr
            return
          </CharString>
          <CharString index="102">
            36 callgsubr
            289 -21 27 -187 -186 -22 -27 -288 -269 18 -42 154 -5 vhcurveto
            -28 -25 -21 -36 -37 -82 callgsubr
            -18 -26 15 24 40 20 37 31 23 hvcurveto
            163 3 20 37 275 vvcurveto
            -76 9 rmoveto
            -58 0 -75 -10 -50 vhcurveto
            -50 -11 -19 -25 -92 hhcurveto
            -85 -24 21 46 -11 hvcurveto
            -12 51 0 82 58 vvcurveto
            67 0 59 11 48 vhcurveto
            57 13 34 10 74 hhcurveto
            83 27 -14 -58 13 hvcurveto
            9 -45 0 -70 -54 vvcurveto
            return
          </CharString>
          <CharString index="103">
            68 callsubr
            hstemhm
            90 76 224 76 -55 76 hintmask 10111000
            487 168 rmoveto
            75 -56 61 -72 16 vhcurveto
            61 21 46 51 63 vvcurveto
            75 -63 81 -110 vhcurveto
            -227 -45 callsubr
            24 -479 -24 -45 callsubr
            247 hlineto
            hintmask 01110100
            114 60 90 78 hvcurveto
            -97 286 rmoveto
            -44 -36 -59 -82 vhcurveto
            -106 194 123 hlineto
            hintmask 11011000
            82 19 -62 -29 hvcurveto
            21 -284 rmoveto
            -45 -34 -59 -87 vhcurveto
            -124 219 130 hlineto
            hintmask 00000100
            101 14 -89 -26 hvcurveto
            endchar
          </CharString>
          <CharString index="104">
            -4 callgsubr
            241 66 192 66 hstemhm
            44 76 -61 76 260 76 -61 76 hintmask 00101100
            486 175 rmoveto
            77 -67 57 -72 20 vhcurveto
            62 20 62 45 66 vvcurveto
            81 -84 80 -122 -121 -85 -79 -82 -90 111 -37 13 -4 vhcurveto
            hintmask 11010010
            -73 -20 -66 -58 -76 vvcurveto
            -94 91 -91 130 130 91 91 94 vhcurveto
            -91 284 rmoveto
            -51 -55 -45 -75 vhcurveto
            hintmask 10101100
            -75 -55 45 51 50 55 46 75 75 55 -46 -50 hvcurveto
            15 -283 rmoveto
            -63 -62 -57 -83 vhcurveto
            hintmask 01010010
            -84 -61 58 62 66 65 55 80 80 65 -54 -67 hvcurveto
            endchar
          </CharString>
          <CharString index="105">
            -319 19 callsubr
            return
          </CharString>
          <CharString index="106">
            -48 callgsubr
            299 66 return
          </CharString>
          <CharString index="107">
            rmoveto
            46 -56 12 -34 8 vhcurveto
            10 -49 -51 4 -50 hhcurveto
            -8 -8 0 -1 -7 hvcurveto
            -43 -6 -153 3 -77 vvcurveto
            -20 16 -13 23 10 10 3 6 7 vhcurveto
            7 11 2 29 158 hhcurveto
            45 66 -3 -17 31 hvcurveto
            -6 12 1 -19 27 hhcurveto
            27 13 16 18 hvcurveto
            endchar
          </CharString>
          <CharString index="108">
            -48 callgsubr
            207 66 206 59 callgsubr
            -206 -24 68 callgsubr
            24 -207 -19 38 callgsubr
            26 0 17 hvcurveto
            208 hlineto
            133 89 141 160 hvcurveto
            -76 hmoveto
            -115 -57 -120 -110 vhcurveto
            -92 207 56 hlineto
            19 14 14 19 18 -14 15 -19 hvcurveto
            -56 206 138 callgsubr
          </CharString>
          <CharString index="109">
            -35 callgsubr
            304 66 109 66 hstemhm
            34 76 249 76 hintmask 01111100
            -7 callsubr
            hintmask 10000100
            13 callsubr
            hintmask 10101100
            33 callsubr
            return
          </CharString>
          <CharString index="110">
            522 rmoveto
            -101 callsubr
            179 hmoveto
            -101 callsubr
            return
          </CharString>
          <CharString index="111">
            33 50 0 124 91 vvcurveto
            78 0 101 -20 60 vhcurveto
            33 19 20 41 42 vvcurveto
            -109 -328 rmoveto
            return
          </CharString>
          <CharString index="112">
            -4 callgsubr
            272 66 161 66 hstemhm
            51 86 139 86 -38 86 -7 76 hintmask 01101000
            479 193 rmoveto
            111 -89 90 -114 -87 -53 -47 -6 -7 vhcurveto
            147 19 98 67 77 hhcurveto
            20 18 -5 -9 11 hvcurveto
            -5 -6 -5 -12 -12 vvcurveto
            hintmask 10110100
            -25 18 -23 30 30 19 21 29 53 -39 55 -96 -136 -137 -122 -199 -242 119 -68 97 vhcurveto
            hintmask 11010010
            112 100 83 120 hvcurveto
            -76 -1 rmoveto
            -79 -64 -57 -72 return
          </CharString>
          <CharString index="113">
            rmoveto
            17 -15 17 -19 -13 -8 -8 -8 -8 vhcurveto
            hintmask 0000100000000000
            -14 -15 -26 -24 -23 hhcurveto
            -7 -6 6 11 -11 hvcurveto
            hintmask 0000010000000000
            17 -17 -20 20 -34 hhcurveto
            -21 -25 -8 -25 -33 hvcurveto
            -20 -15 -31 -23 -20 vvcurveto
            hintmask 0000100000000000
            -17 15 -17 19 13 8 8 8 8 vhcurveto
            hintmask 0000010000000000
            14 15 26 24 23 hhcurveto
            7 6 -6 -11 11 hvcurveto
            hintmask 0000100000000000
            -17 17 20 -20 34 hhcurveto
            21 25 8 25 33 hvcurveto
            20 15 31 23 20 vvcurveto
            endchar
          </CharString>
          <CharString index="114">
            -15 0 -28 33 10 18 3 30 10 vhcurveto
            -33 51 56 0 20 hhcurveto
            170 22 94 37 hvcurveto
            return
          </CharString>
          <CharString index="115">
            143 callsubr
            53 79 260 78 vstemhm
            -103 callgsubr
            return
          </CharString>
          <CharString index="116">
            185 rmoveto
            20 -16 18 -22 -7 -1 -1 -5 -14 vhcurveto
            -129 -50 rlineto
            -13 -5 -15 -6 -20 vvcurveto
            0 4 -44 32 6 47 18 10 26 vhcurveto
            return
          </CharString>
          <CharString index="117">
            -33 30 0 14 28 callgsubr
            return
          </CharString>
          <CharString index="118">
            -39 callsubr
            120 65 127 66 hstem
            53 78 260 79 vstem
            470 217 rmoveto
            119 -100 103 -136 -137 -44 -88 -25 -22 17 -9 21 17 10 1 22 10 vhcurveto
            45 20 49 10 32 hhcurveto
            73 73 -48 -79 16 hvcurveto
            -295 hlineto
            -19 -24 0 -38 -120 68 -93 129 123 97 100 122 hvcurveto
            -80 -36 rmoveto
            -70 -15 -59 -50 -66 hhcurveto
            -90 -23 70 50 -6 hvcurveto
            endchar
          </CharString>
          <CharString index="119">
            531 -214 -21 105 100 return
          </CharString>
          <CharString index="120">
            -122 91 -98 110 53 42 24 28 29 vhcurveto
            hintmask 01000000
            -28 0 -19 43 vhcurveto
            74 -21 callgsubr
            -160 164 rmoveto
            return
          </CharString>
          <CharString index="121">
            454 130 rmoveto
            34 -29 0 -9 -26 -11 -10 -25 -1 vhcurveto
            return
          </CharString>
          <CharString index="122">
            66 -56 66 -33 66 0 66 108 139 callsubr
            return
          </CharString>
          <CharString index="123">
            -39 callsubr
            312 66 return
          </CharString>
          <CharString index="124">
            rmoveto
            239 -112 71 -99 -113 -104 -82 -121 -111 89 -90 114 87 53 47 6 7 vhcurveto
            -123 -13 -78 -91 -91 hhcurveto
            -4 -35 0 15 -21 hvcurveto
            0 9 13 16 vvcurveto
            25 -18 23 -30 -30 -19 -21 -29 -55 41 -53 106 138 123 128 193 vhcurveto
            -86 79 rmoveto
            -61 -65 -46 -69 -75 -57 60 75 83 69 54 72 return
          </CharString>
          <CharString index="125">
            -19 127 hlineto
            91 112 136 -238 rlineto
            -24 -14 -15 -19 -33 30 0 14 hvcurveto
            75 26 callgsubr
            return
          </CharString>
          <CharString index="126">
            136 rmoveto
            -101 callsubr
            213 hmoveto
            -101 callsubr
            return
          </CharString>
          <CharString index="127">
            531 -228 65 164 65 48 65 192 65 return
          </CharString>
          <CharString index="128">
            531 -206 66 192 -20 hstem
            260 76 24 76 vstem
            436 -102 rmoveto
            118 callgsubr
            vhcurveto
            35 0 20 -38 -38 0 -25 -20 vhcurveto
            -27 vlineto
            -37 callsubr
            hvcurveto
            endchar
          </CharString>
          <CharString index="129">
            186 22 27 288 return
          </CharString>
          <CharString index="130">
            113 rmoveto
            17 -8 7 -7 6 vhcurveto
            -188 163 188 163 rlineto
            7 6 8 7 17 vvcurveto
            21 -11 11 -11 -6 -2 -1 -8 -10 vhcurveto
            -215 -186 rlineto
            -6 -6 -8 -7 -17 vvcurveto
            -12 5 -10 6 -6 vhcurveto
            218 -188 rlineto
            -8 10 2 -1 6 hhcurveto
            11 11 11 21 hvcurveto
            return
          </CharString>
          <CharString index="131">
            134 -371 rlineto
            -40 14 22 0 26 hhcurveto
            return
          </CharString>
          <CharString index="132">
            306 rmoveto
            17 -8 7 -6 6 vhcurveto
            -215 186 rlineto
            8 -10 -3 1 -5 hhcurveto
            -11 -11 -11 -21 -17 8 -7 7 -6 hvcurveto
            188 -163 -188 -163 rlineto
            -7 -6 -8 -7 -17 vvcurveto
            -21 11 -11 11 5 3 1 8 10 vhcurveto
            218 188 rlineto
            6 6 5 10 12 vvcurveto
            return
          </CharString>
          <CharString index="133">
            327 rmoveto
            17 -15 0 -7 vhcurveto
            -45 256 hlineto
            7 0 14 -16 -11 -3 -6 -5 -2 vhcurveto
            -22 -47 -23 -2 -16 -1 rrcurveto
            -7 -7 -6 -10 -6 3 -11 15 24 21 15 5 6 hvcurveto
            -203 -44 vlineto
            -8 -14 0 -17 -16 15 0 7 hvcurveto
            127 hlineto
            7 15 0 16 hvcurveto
            return
          </CharString>
          <CharString index="134">
            -17 14 -14 17 vhcurveto
            53 -255 hlineto
            -34 14 -34 29 -20 vhcurveto
            return
          </CharString>
          <CharString index="135">
            rmoveto
            15 15 0 24 -15 15 return
          </CharString>
          <CharString index="136">
            127 92 callgsubr
            return
          </CharString>
          <CharString index="137">
            531 364 108 209 -20 hstem
            181 66 vstem
            350 647 rmoveto
            18 -16 16 -17 -26 -110 -70 -130 -71 35 -46 48 37 18 28 26 28 -21 26 -33 -8 -7 -2 -1 -3 vhcurveto
            27 0 75 81 46 vhcurveto
            10 5 12 7 18 vvcurveto
            endchar
          </CharString>
          <CharString index="138">
            -12 -3 0 -11 -7 hvcurveto
            -113 -178 rlineto
            -5 -6 0 -1 -11 vvcurveto
            -15 3 -7 19 vhcurveto
            124 -51 -30 hlineto
            -8 -13 0 -16 -17 13 0 8 hvcurveto
            91 hlineto
            8 14 0 17 16 -14 0 -8 hvcurveto
            -30 51 37 hlineto
            7 14 0 17 hvcurveto
            -15 490 rmoveto
            return
          </CharString>
          <CharString index="139">
            167 299 -106 callsubr
            return
          </CharString>
          <CharString index="140">
            -57 -46 -79 -75 -67 -61 66 88 89 66 66 73 59 51 -51 -55 vhcurveto
            return
          </CharString>
          <CharString index="141">
            -33 callsubr
            hstemhm
            return
          </CharString>
          <CharString index="142">
            33 rmoveto
            -16 callgsubr
            vhcurveto
            return
          </CharString>
          <CharString index="143">
            rmoveto
            8 vlineto
            25 -4 -21 16 -23 hhcurveto
            -3 -3 0 -1 -3 hvcurveto
            -23 -3 -16 -20 -1 -23 rrcurveto
            -25 3 -26 3 -25 vhcurveto
            8 -119 rlineto
            -19 1 -1 -35 34 hhcurveto
            34 3 35 23 hvcurveto
            13 vlineto
            3 58 9 60 58 vvcurveto
            endchar
          </CharString>
          <CharString index="144">
            0 33 -16 callgsubr
            hvcurveto
            return
          </CharString>
          <CharString index="145">
            hlineto
            -56 callsubr
            return
          </CharString>
          <CharString index="146">
            rmoveto
            39 -40 0 -14 vhcurveto
            -346 hlineto
            -14 -40 0 -39 -38 38 0 10 hvcurveto
            358 hlineto
            10 38 0 38 hvcurveto
            return
          </CharString>
          <CharString index="147">
            -22 31 35 -4 43 hhcurveto
            42 39 12 22 31 hvcurveto
            return
          </CharString>
          <CharString index="148">
            -17 -14 -13 -17 hvcurveto
            -5 vlineto
            return
          </CharString>
          <CharString index="149">
            vlineto
            -5 callgsubr
            return
          </CharString>
          <CharString index="150">
            677 vlineto
            11 0 39 -38 -39 0 -38 -12 vhcurveto
            -677 vlineto
            -11 0 -39 38 39 0 38 12 vhcurveto
            return
          </CharString>
          <CharString index="151">
            496 216 rmoveto
            121 -89 99 -112 -47 -41 -17 -28 -36 vhcurveto
            return
          </CharString>
          <CharString index="152">
            531 348 -21 296 -20 hstem
            return
          </CharString>
          <CharString index="153">
            252 hlineto
            -127 -139 -76 -179 -188 vvcurveto
            -11 0 -38 38 37 1 35 16 vhcurveto
            1 97 23 95 39 89 55 122 78 75 33 33 rrcurveto
            9 8 3 6 12 vvcurveto
            endchar
          </CharString>
          <CharString index="154">
            19 callsubr
            endchar
          </CharString>
          <CharString index="155">
            57 107 callsubr
            return
          </CharString>
          <CharString index="156">
            66 479 66 hstemhm
            27 76 0 76 48 76 48 76 0 76 return
          </CharString>
          <CharString index="157">
            76 23 76 -49 76 14 76 return
          </CharString>
          <CharString index="158">
            2 callgsubr
            vhcurveto
            return
          </CharString>
          <CharString index="159">
            124 callgsubr
            531 133 callsubr
            -431 hlineto
            -11 -39 0 -38 -39 38 0 12 hvcurveto
            431 103 callsubr
          </CharString>
          <CharString index="160">
            hlineto
            -21 -17 -17 -21 -21 17 -17 21 hvcurveto
            return
          </CharString>
          <CharString index="161">
            -30 44 42 -33 52 hhcurveto
            73 45 75 79 hvcurveto
            -320 -54 rmoveto
            -20 -13 -35 -4 -33 hhcurveto
            -12 -12 6 11 17 30 0 25 18 16 -4 -6 16 hvcurveto
            endchar
          </CharString>
          <CharString index="162">
            57 callsubr
            258 66 return
          </CharString>
          <CharString index="163">
            -39 -25 -26 -36 65 callsubr
            return
          </CharString>
          <CharString index="164">
            66 0 66 70 149 callsubr
            hstemhm
            73 66 return
          </CharString>
          <CharString index="165">
            9 -11 -11 8 -14 hhcurveto
            hintmask 11000000
            -7 -1 rlineto
            -19 -3 -13 -17 -18 vvcurveto
            -21 18 -11 15 -11 vhcurveto
            -17 25 34 -32 22 hhcurveto
            21 18 26 18 hvcurveto
            return
          </CharString>
          <CharString index="166">
            vvcurveto
            59 51 45 61 45 42 -21 -35 17 vhcurveto
            -9 -9 -5 -12 -13 vvcurveto
            132 callsubr
            96 -88 70 -100 -102 -86 -79 -101 vhcurveto
            return
          </CharString>
          <CharString index="167">
            30 -24 24 -30 -30 -24 -24 -30 -30 24 -24 30 30 24 24 30 vhcurveto
            endchar
          </CharString>
          <CharString index="168">
            12 callsubr
            30 66 return
          </CharString>
          <CharString index="169">
            531 -62 -21 777 -20 hstem
            return
          </CharString>
          <CharString index="170">
            25 callgsubr
            33 return
          </CharString>
          <CharString index="171">
            -27 0 -16 vhcurveto
            return
          </CharString>
          <CharString index="172">
            -47 -82 callgsubr
            return
          </CharString>
          <CharString index="173">
            hvcurveto
            -8 47 0 74 45 vvcurveto
            56 0 71 9 47 vhcurveto
            56 12 21 20 90 hhcurveto
            93 20 -22 -61 11 hvcurveto
            8 -47 0 -74 -45 vvcurveto
            return
          </CharString>
          <CharString index="174">
            hlineto
            21 17 17 21 21 -17 17 -21 hvcurveto
            return
          </CharString>
          <CharString index="175">
            531 74 callgsubr
            return
          </CharString>
          <CharString index="176">
            -138 139 hlineto
            11 0 39 -38 -39 0 -38 -12 vhcurveto
            -139 -139 vlineto
            -11 -39 0 -38 -39 38 0 12 hvcurveto
            139 return
          </CharString>
          <CharString index="177">
            134 callsubr
            33 -24 0 -32 hvcurveto
            175 vlineto
            return
          </CharString>
          <CharString index="178">
            26 32 63 0 8 hhcurveto
            69 45 -38 -39 -15 -4 -37 -35 -31 hvcurveto
            -29 -25 -28 -2 -32 -2 rrcurveto
            -58 -4 -17 -1 -31 vvcurveto
            return
          </CharString>
          <CharString index="179">
            -479 -21 hlineto
            return
          </CharString>
          <CharString index="180">
            30 37 callsubr
            return
          </CharString>
          <CharString index="181">
            1 vhcurveto
            -32 -2 -22 -25 -27 vvcurveto
            return
          </CharString>
          <CharString index="182">
            hlineto
            hintmask 0001000000000000
            41 callsubr
            return
          </CharString>
          <CharString index="183">
            -1 callsubr
            -61 66 return
          </CharString>
          <CharString index="184">
            hstemhm
            55 callgsubr
            return
          </CharString>
          <CharString index="185">
            hstemhm
            48 callsubr
            return
          </CharString>
          <CharString index="186">
            491 301 rmoveto
            159 -86 151 -136 vhcurveto
            -208 hlineto
            -17 -26 -95 callgsubr
            19 return
          </CharString>
          <CharString index="187">
            0 1 3 4 vvcurveto
            25 -19 23 -29 -26 -23 -17 -34 -89 96 -53 125 136 85 93 93 vhcurveto
            endchar
          </CharString>
          <CharString index="188">
            58 59 49 61 70 59 -68 -86 vhcurveto
            endchar
          </CharString>
          <CharString index="189">
            6 -15 -15 3 -16 hhcurveto
            -66 -65 -33 -60 -53 46 -40 54 hvcurveto
            hintmask 0100000000000000
            60 58 22 41 27 hvcurveto
            return
          </CharString>
          <CharString index="190">
            vvcurveto
            37 0 16 -43 -28 -15 -3 -40 vhcurveto
            -18 vlineto
            -81 -49 -41 -43 -28 vhcurveto
            -30 -19 -21 -35 -37 vvcurveto
            return
          </CharString>
          <CharString index="191">
            -29 callgsubr
            41 449 41 hstem
            0 41 return
          </CharString>
          <CharString index="192">
            -51 hlineto
            -19 0 -24 38 return
          </CharString>
          <CharString index="193">
            7 9 -4 21 -8 7 -9 5 -22 -4 -6 -6 rrcurveto
            -16 -11 -23 -21 -20 hhcurveto
            99 callsubr
            return
          </CharString>
          <CharString index="194">
            35 22 -19 -19 -8 -2 -18 -17 -16 hvcurveto
            -15 -12 -14 -1 -16 -1 rrcurveto
            -29 -2 -8 -1 -15 vvcurveto
            return
          </CharString>
          <CharString index="195">
            104 44 -71 -49 -59 -54 -62 -91 -13 -84 0 47 -38 hvcurveto
            2 3 6 10 0 2 2 10 rlinecurve
            return
          </CharString>
          <CharString index="196">
            -16 callsubr
            hstemhm
            return
          </CharString>
          <CharString index="197">
            531 16 -21 370 66 return
          </CharString>
          <CharString index="198">
            531 11 -21 555 66 return
          </CharString>
          <CharString index="199">
            hvcurveto
            295 hlineto
            return
          </CharString>
          <CharString index="200">
            hstemhm
            28 194 42 59 -59 194 -161 59 -59 194 -183 194 -59 59 return
          </CharString>
          <CharString index="201">
            -4 callgsubr
            150 66 -33 66 250 66 return
          </CharString>
          <CharString index="202">
            vhcurveto
            361 -44 callgsubr
            return
          </CharString>
          <CharString index="203">
            hstemhm
            72 76 39 77 0 77 39 77 return
          </CharString>
          <CharString index="204">
            hlineto
            134 callsubr
            hvcurveto
            return
          </CharString>
          <CharString index="205">
            -71 callsubr
            hvcurveto
            return
          </CharString>
          <CharString index="206">
            -18 -26 15 24 return
          </CharString>
          <CharString index="207">
            511 rmoveto
            -45 -19 -22 -7 -9 -18 24 43 42 19 24 7 10 17 -26 -40 vhcurveto
            return
          </CharString>
          <CharString index="208">
            hlineto
            13 107 rlineto
            40 5 -24 12 -19 hhcurveto
            -34 -4 -33 -11 -1 hvcurveto
            -14 -115 rlineto
            return
          </CharString>
          <CharString index="209">
            3 5 2 6 7 vvcurveto
            -74 -474 rmoveto
            -108 hlineto
            108 169 rlineto
            endchar
          </CharString>
          <CharString index="210">
            hlineto
            99 callgsubr
            hvcurveto
            endchar
          </CharString>
          <CharString index="211">
            531 21 -21 611 -20 hstem
            78 -21 168 78 169 -20 vstem
            472 return
          </CharString>
          <CharString index="212">
            531 -122 -21 138 66 312 66 return
          </CharString>
          <CharString index="213">
            -69 callgsubr
            28 0 return
          </CharString>
          <CharString index="214">
            76 264 76 return
          </CharString>
          <CharString index="215">
            rmoveto
            114 callgsubr
            return
          </CharString>
          <CharString index="216">
            36 -8 9 -37 vhcurveto
            -71 hlineto
            -16 -29 0 -33 -24 19 -8 8 -1 hvcurveto
            57 return
          </CharString>
          <CharString index="217">
            91 callgsubr
            hstemhm
            return
          </CharString>
          <CharString index="218">
            147 callsubr
            112 77 return
          </CharString>
          <CharString index="219">
            hlineto
            -31 -13 -6 -37 hvcurveto
            return
          </CharString>
          <CharString index="220">
            -20 2 -17 4 -27 7 rrcurveto
            6 -25 -29 6 -21 hhcurveto
            -46 0 -37 0 return
          </CharString>
          <CharString index="221">
            8 -4 30 -42 -17 -27 -4 -8 -27 vhcurveto
            -29 -7 -20 -4 -18 -2 1 return
          </CharString>
          <CharString index="222">
            -20 96 callsubr
            return
          </CharString>
          <CharString index="223">
            -4 callgsubr
            233 66 200 66 return
          </CharString>
          <CharString index="224">
            108 hstem
            -319 108 vstem
            -211 return
          </CharString>
          <CharString index="225">
            -15 -28 0 -33 return
          </CharString>
          <CharString index="226">
            hlineto
            34 -9 9 -34 vhcurveto
            -31 hlineto
            -25 -6 -1 -21 -13 hvcurveto
            -227 return
          </CharString>
          <CharString index="227">
            105 callgsubr
            74 76 0 76 return
          </CharString>
          <CharString index="228">
            rmoveto
            16 -14 0 -7 vhcurveto
            -37 175 hlineto
            17 -4 4 -17 vhcurveto
            return
          </CharString>
          <CharString index="229">
            12 callsubr
            20 66 return
          </CharString>
          <CharString index="230">
            531 -193 296 hstem
            return
          </CharString>
          <CharString index="231">
            rmoveto
            33 -28 0 -15 vhcurveto
            return
          </CharString>
          <CharString index="232">
            73 callgsubr
            hstem
            return
          </CharString>
          <CharString index="233">
            rlineto
            -9 -13 0 -2 -21 vvcurveto
            -31 5 -13 38 vhcurveto
            249 return
          </CharString>
          <CharString index="234">
            531 72 -21 509 -20 hstem
            57 416 vstem
            473 return
          </CharString>
          <CharString index="235">
            18 -15 15 -18 return
          </CharString>
          <CharString index="236">
            -16 callsubr
            76 98 callgsubr
            return
          </CharString>
          <CharString index="237">
            35 callgsubr
            hstemhm
            return
          </CharString>
          <CharString index="238">
            -44 callsubr
            endchar
          </CharString>
          <CharString index="239">
            -27 22 -22 27 27 22 22 27 return
          </CharString>
          <CharString index="240">
            305 rmoveto
            39 -38 0 -12 vhcurveto
            return
          </CharString>
          <CharString index="241">
            15 28 0 33 return
          </CharString>
          <CharString index="242">
            97 callgsubr
            235 76 return
          </CharString>
          <CharString index="243">
            560 rmoveto
            78 -39 56 -49 -54 -35 -62 -71 vhcurveto
            return
          </CharString>
          <CharString index="244">
            39 -38 32 -57 -60 -36 -22 -37 -16 12 -9 13 return
          </CharString>
          <CharString index="245">
            rmoveto
            30 -24 24 -30 vhcurveto
            return
          </CharString>
          <CharString index="246">
            66 206 66 return
          </CharString>
          <CharString index="247">
            98 115 98 return
          </CharString>
          <CharString index="248">
            -8 callsubr
            91 -21 return
          </CharString>
          <CharString index="249" raw="1">
            15a675a1 70707575 7070a10b 
          </CharString>
          <CharString index="250">
            -9 callgsubr
            hstemhm
            return
          </CharString>
          <CharString index="251">
            -13 -9 -4 -18 9 -14 rlinecurve
            1 hlineto
            8 -13 return
          </CharString>
          <CharString index="252">
            57 61 49 73 73 59 -58 -78 vhcurveto
            endchar
          </CharString>
          <CharString index="253">
            531 -179 -21 39 69 return
          </CharString>
          <CharString index="254">
            hstemhm
            94 76 0 76 return
          </CharString>
          <CharString index="255">
            319 571 rlineto
            return
          </CharString>
          <CharString index="256">
            66 110 66 return
          </CharString>
          <CharString index="257">
            97 hstem
            -404 98 81 98 vstem
            -306 return
          </CharString>
          <CharString index="258">
            hlineto
            -19 -14 -10 -13 -13 14 -10 19 hvcurveto
            return
          </CharString>
          <CharString index="259">
            vlineto
            16 0 20 -23 -23 0 -20 -16 vhcurveto
            return
          </CharString>
          <CharString index="260">
            531 102 -21 450 -20 hstem
            400 return
          </CharString>
          <CharString index="261">
            148 callgsubr
            135 vstem
            333 return
          </CharString>
          <CharString index="262">
            108 hstem
            135 callgsubr
            vstem
            320 return
          </CharString>
          <CharString index="263">
            hlineto
            -5 -9 0 -11 -10 9 0 5 hvcurveto
            return
          </CharString>
          <CharString index="264">
            -21 230 -20 return
          </CharString>
        <CharString name=".notdef">
          280 endchar
        </CharString>
        <CharString name="A">
          -8 callsubr
          hstem
          28 474 vstem
          -106 callgsubr
          endchar
        </CharString>
        <CharString name="AE">
          -24 callsubr
        </CharString>
        <CharString name="AE.dup">
          -24 callsubr
        </CharString>
        <CharString name="AEacute">
          -48 callgsubr
          0 66 46 66 39 82 callgsubr
          86 98 callgsubr
          172 62 33 62 106 62 -54 62 hintmask 0101100010100000
          505 119 callgsubr
          13 0 30 -31 -31 0 -30 -13 vhcurveto
          -66 -114 217 108 vlineto
          15 28 23 callgsubr
          -15 hvcurveto
          -108 196 hlineto
          hintmask 0100100001000000
          106 -51 hlineto
          -13 0 -30 31 31 0 30 13 90 callgsubr
          -278 -52 callgsubr
          31 0 8 hvcurveto
          -99 -479 rlineto
          -22 -26 0 -33 hvcurveto
          hintmask 1010100110100000
          58 callgsubr
          vhcurveto
          70 63 callsubr
          -29 0 -16 hvcurveto
          23 112 rlineto
          108 -112 hlineto
          -9 -31 -102 callsubr
          191 -44 callgsubr
          -238 201 rmoveto
          -95 hlineto
          62 301 rlineto
          33 hlineto
          hintmask 0000011000000000
          107 224 -107 callsubr
        </CharString>
        <CharString name="Aacute">
          141 callsubr
          131 -20 113 callgsubr
          hintmask 11100100
          -106 callgsubr
          hintmask 00011000
          95 316 -107 callsubr
        </CharString>
        <CharString name="Abreve">
          -8 callsubr
          70 69 39 -20 113 callgsubr
          hintmask 11100100
          -106 callgsubr
          hintmask 00011000
          32 callsubr
          endchar
        </CharString>
        <CharString name="Abreveacute">
          -8 callsubr
          70 69 18 69 103 -20 113 callgsubr
          hintmask 11100010
          -106 callgsubr
          hintmask 00011100
          32 callsubr
          -71 145 -107 callsubr
        </CharString>
        <CharString name="Abrevedotbelow">
          11 callgsubr
          91 66 403 -20 70 69 39 -20 113 callgsubr
          -290 108 hintmask 01111110
          -106 callgsubr
          32 callsubr
          hintmask 10000001
          -126 -898 rmoveto
          60 callsubr
        </CharString>
        <CharString name="Abrevegrave">
          -8 callsubr
          70 69 18 69 113 callgsubr
          hintmask 11100100
          -106 callgsubr
          hintmask 00011000
          32 callsubr
          -72 96 rmoveto
          0 -4 -44 -32 -6 -47 18 10 -26 vhcurveto
          -72 27 rlineto
          -10 4 -20 8 26 vvcurveto
          20 16 18 22 7 1 -1 -5 14 vhcurveto
          129 -50 rlineto
          13 -5 15 -6 -20 vvcurveto
          endchar
        </CharString>
        <CharString name="Abrevehookabove">
          -8 callsubr
          70 69 0 69 200 -20 113 callgsubr
          hintmask 11100010
          -106 callgsubr
          hintmask 00010100
          32 callsubr
          -80 180 rmoveto
          -1 25 -13 24 -20 14 rrcurveto
          14 -22 -26 5 -26 hhcurveto
          -46 -44 -32 -48 -2 hvcurveto
          -2 vlineto
          -7 3 -8 6 -6 vhcurveto
          1 -1 rlineto
          -6 6 8 -3 8 hhcurveto
          8 7 3 6 6 hvcurveto
          1 1 rlineto
          6 6 3 8 7 vvcurveto
          5 vlineto
          8 3 10 7 16 hhcurveto
          18 13 -2 -6 8 hvcurveto
          4 -3 3 -4 -5 vvcurveto
          -4 -4 rlineto
          -40 -21 -33 -30 -46 vvcurveto
          hintmask 00001000
          -17 vlineto
          -17 13 -13 18 17 13 13 17 vhcurveto
          17 vlineto
          1 14 12 14 28 15 21 11 15 22 1 25 rrcurveto
          endchar
        </CharString>
        <CharString name="Abrevetilde">
          -8 callsubr
          70 69 -69 71 77 71 -17 71 113 callgsubr
          hintmask 11100001
          -106 callgsubr
          hintmask 00001000
          167 299 rmoveto
          16 -11 16 -22 -19 -8 -10 -11 -5 vhcurveto
          -3 -8 -2 -5 -42 -3 rrcurveto
          hintmask 00010000
          -2 -23 -17 0 -28 hhcurveto
          hintmask 00001010
          43 callgsubr
          hintmask 00000100
          -14 -15 -26 -24 -23 hhcurveto
          -7 -6 6 11 -11 hvcurveto
          hintmask 00000010
          17 -17 -20 20 -34 hhcurveto
          -21 -25 -8 -25 -33 hvcurveto
          -20 -15 -31 -23 -20 vvcurveto
          hintmask 00000100
          -17 15 -17 19 13 8 8 8 8 vhcurveto
          hintmask 00000010
          14 15 26 24 23 hhcurveto
          7 6 -6 -11 11 hvcurveto
          hintmask 00000100
          -17 17 20 -20 34 hhcurveto
          21 25 8 25 33 hvcurveto
          20 15 31 23 20 vvcurveto
          endchar
        </CharString>
        <CharString name="Acaron">
          -8 callsubr
          113 callgsubr
          vstemhm
          -106 callgsubr
          114 258 -85 callgsubr
        </CharString>
        <CharString name="Acircumflex">
          -8 callsubr
          113 callgsubr
          vstemhm
          -106 callgsubr
          115 271 -105 callsubr
          endchar
        </CharString>
        <CharString name="Acircumflexacute">
          -8 callsubr
          313 -20 113 callgsubr
          hintmask 11101000
          -106 callgsubr
          hintmask 00010000
          115 271 -24 callgsubr
          157 -107 callsubr
        </CharString>
        <CharString name="Acircumflexdotbelow">
          11 callgsubr
          91 66 403 -20 113 callgsubr
          -290 108 hintmask 01111000
          -106 callgsubr
          115 271 -105 callsubr
          hintmask 10000100
          -74 -870 rmoveto
          60 callsubr
        </CharString>
        <CharString name="Acircumflexgrave">
          -8 callsubr
          113 callgsubr
          vstemhm
          -106 callgsubr
          115 271 -87 callgsubr
        </CharString>
        <CharString name="Acircumflexhookabove">
          -8 callsubr
          392 -20 113 callgsubr
          hintmask 11101000
          -106 callgsubr
          hintmask 00010000
          115 271 -105 callsubr
          72 192 -107 callgsubr
        </CharString>
        <CharString name="Acircumflextilde">
          -8 callsubr
          202 71 -17 71 113 callgsubr
          hintmask 11100100
          -106 callgsubr
          hintmask 00001000
          115 271 -105 callsubr
          48 175 -96 callgsubr
        </CharString>
        <CharString name="Adblgrave">
          -8 callsubr
          113 callgsubr
          vstemhm
          -106 callgsubr
          116 235 -98 callgsubr
        </CharString>
        <CharString name="Adieresis">
          -8 callsubr
          113 callgsubr
          -392 140 callsubr
          hintmask 10101100
          -93 callsubr
          hintmask 11010000
          -88 callsubr
          127 callgsubr
          14 30 0 33 hvcurveto
          -174 190 rmoveto
          -127 hlineto
          9 38 51 223 3 44 rrcurveto
          1 hlineto
          2 -21 6 -26 6 -28 rrcurveto
          hintmask 00001100
          -71 261 -73 callsubr
        </CharString>
        <CharString name="Adotbelow">
          11 callgsubr
          91 66 403 -20 113 callgsubr
          -290 108 hintmask 01111000
          -106 callgsubr
          hintmask 10000100
          41 -599 rmoveto
          60 callsubr
        </CharString>
        <CharString name="Agrave">
          141 callsubr
          131 -20 113 callgsubr
          hintmask 11100100
          -106 callgsubr
          hintmask 00011000
          95 267 -99 callgsubr
        </CharString>
        <CharString name="Ahookabove">
          141 callsubr
          230 -20 113 callgsubr
          hintmask 11100100
          -106 callgsubr
          hintmask 00011000
          87 371 -107 callgsubr
        </CharString>
        <CharString name="Alpha">
          -8 callsubr
          hstem
          28 474 vstem
          -106 callgsubr
          endchar
        </CharString>
        <CharString name="Amacron">
          -8 callsubr
          113 callgsubr
          vstemhm
          -106 callgsubr
          178 267 -89 callsubr
        </CharString>
        <CharString name="Aogonek">
          111 callgsubr
          91 66 305 98 93 callsubr
          hintmask 0111110000000000
          32 callgsubr
          hintmask 0100000001000000
          -27 callsubr
          0 -8 0 18 vhcurveto
          hintmask 1000000010000000
          56 callsubr
          hintmask 0100000100100000
          154 callgsubr
          hintmask 0100001000000000
          15 hlineto
          hintmask 0010000001000000
          -29 callsubr
          hvcurveto
          -174 190 rmoveto
          -127 hlineto
          hintmask 0011001000000000
          9 38 51 223 3 44 rrcurveto
          1 hlineto
          2 -21 6 -26 6 -28 rrcurveto
          endchar
        </CharString>
        <CharString name="Aogonekacute">
          111 callgsubr
          91 66 305 98 71 -21 131 -20 93 callsubr
          hintmask 0111001100000000
          32 callgsubr
          hintmask 0100000000010000
          -27 callsubr
          0 -8 0 18 vhcurveto
          hintmask 1000000000100000
          56 callsubr
          hintmask 0100000001001000
          154 callgsubr
          hintmask 0100000010000000
          15 hlineto
          hintmask 0010000000010000
          -29 callsubr
          hvcurveto
          -174 190 rmoveto
          -127 hlineto
          hintmask 0011000010000000
          9 38 51 223 3 44 rrcurveto
          1 hlineto
          2 -21 6 -26 6 -28 rrcurveto
          hintmask 0000110000000000
          95 316 -107 callsubr
        </CharString>
        <CharString name="Aring">
          -48 callgsubr
          91 66 403 38 68 38 113 callgsubr
          -334 50 96 50 hintmask 11101000
          -25 callsubr
          hintmask 10000010
          127 callgsubr
          hintmask 01001000
          -29 callsubr
          hvcurveto
          -174 190 rmoveto
          -127 hlineto
          9 38 51 223 3 44 rrcurveto
          1 hlineto
          2 -21 6 -26 6 -28 rrcurveto
          hintmask 00110110
          35 245 -48 callsubr
        </CharString>
        <CharString name="Aringacute">
          -48 callgsubr
          91 66 403 110 callgsubr
          28 474 -334 50 96 50 hintmask 1110001000000000
          -25 callsubr
          hintmask 1000000010000000
          127 callgsubr
          hintmask 0100001000000000
          -29 callsubr
          hvcurveto
          -174 190 rmoveto
          -127 hlineto
          9 38 51 223 3 44 rrcurveto
          1 hlineto
          2 -21 6 -26 6 -28 rrcurveto
          hintmask 0011010110000000
          35 245 -74 callgsubr
          11 9 callsubr
          hintmask 0000100000000000
          72 27 rlineto
          10 4 20 8 26 vvcurveto
          endchar
        </CharString>
        <CharString name="Atilde">
          -8 callsubr
          60 71 -17 71 113 callgsubr
          hintmask 11100100
          -106 callgsubr
          hintmask 00001000
          163 304 -96 callgsubr
        </CharString>
        <CharString name="B">
          -4 callsubr
        </CharString>
        <CharString name="Beta">
          -4 callsubr
        </CharString>
        <CharString name="C">
          89 callsubr
          41 76 295 77 -76 76 hintmask 11101000
          -22 callsubr
          hintmask 11110000
          -51 callgsubr
          endchar
        </CharString>
        <CharString name="Cacute">
          129 callsubr
          41 76 295 77 -76 76 hintmask 11001010
          -22 callsubr
          hintmask 11001100
          -51 callgsubr
          hintmask 00110000
          -89 600 -107 callsubr
        </CharString>
        <CharString name="Ccaron">
          89 callsubr
          41 76 295 77 -76 76 hintmask 11101000
          -22 callsubr
          hintmask 11110000
          -51 callgsubr
          hintmask 00000000
          -69 542 -85 callgsubr
        </CharString>
        <CharString name="Ccedilla">
          531 -206 66 130 66 499 66 hstemhm
          41 76 114 77 -35 76 24 76 -37 77 -76 76 hintmask 0111000010000000
          -22 callsubr
          hintmask 0111010100000000
          58 53 -46 -75 13 hvcurveto
          -20 3 3 -16 33 hhcurveto
          38 0 24 19 hvcurveto
          137 69 callgsubr
          -21 -4 -8 -36 -20 vhcurveto
          32 -43 -43 12 -41 hhcurveto
          -132 -111 -137 -178 -174 104 -134 128 -8 hvcurveto
          -10 vlineto
          hintmask 1000101000000000
          -37 callsubr
          hvcurveto
          hintmask 0000010010000000
          118 callgsubr
          vhcurveto
          2 vlineto
          82 25 58 70 75 vvcurveto
          endchar
        </CharString>
        <CharString name="Ccircumflex">
          89 callsubr
          41 76 295 77 -76 76 hintmask 11101000
          -22 callsubr
          hintmask 11110000
          -51 callgsubr
          hintmask 00000000
          -69 555 -105 callsubr
          endchar
        </CharString>
        <CharString name="Cdotaccent">
          89 callsubr
          41 76 121 108 66 77 -76 76 hintmask 11100100
          -22 callsubr
          hintmask 11101000
          -51 callgsubr
          hintmask 00010000
          -143 561 rmoveto
          60 callsubr
        </CharString>
        <CharString name="Chi">
          -8 callgsubr
        </CharString>
        <CharString name="D">
          531 0 66 479 66 hstem
          80 76 259 76 vstem
          -46 callsubr
          endchar
        </CharString>
        <CharString name="Dcaron">
          34 callsubr
          80 76 259 76 vstemhm
          -46 callsubr
          -85 410 -85 callgsubr
        </CharString>
        <CharString name="Dcroat">
          1 callsubr
        </CharString>
        <CharString name="Ddotbelow">
          11 callgsubr
          479 66 hstemhm
          80 76 -8 108 159 76 hintmask 01110100
          -46 callsubr
          hintmask 10001000
          -159 -447 rmoveto
          60 callsubr
        </CharString>
        <CharString name="Delta">
          -29 callgsubr
          74 552 -20 hstem
          35 460 vstem
          495 24 rmoveto
          6 0 2 -4 11 vhcurveto
          -166 543 rlineto
          40 -12 -18 0 -30 hhcurveto
          -29 -19 0 -40 -12 hvcurveto
          -166 -543 rlineto
          -4 -11 0 -2 -6 vvcurveto
          -24 24 0 13 vhcurveto
          386 hlineto
          13 24 0 24 hvcurveto
          -94 50 rmoveto
          -272 hlineto
          103 344 5 15 21 72 6 28 rlinecurve
          1 hlineto
          7 -29 21 -68 5 -18 rrcurveto
          endchar
        </CharString>
        <CharString name="Dlinebelow">
          34 callsubr
          80 76 259 76 vstemhm
          -46 callsubr
          -22 -447 -89 callsubr
        </CharString>
        <CharString name="E">
          531 0 1 callgsubr
          hintmask 01111101
          -97 callsubr
          hintmask 01011010
          -94 callsubr
          hintmask 10000001
          -41 callgsubr
          endchar
        </CharString>
        <CharString name="Eacute">
          35 callgsubr
          86 -21 131 -20 9 callgsubr
          hintmask 0111001101000000
          -97 callsubr
          hintmask 0101001010000000
          -94 callsubr
          hintmask 1000000001000000
          -41 callgsubr
          hintmask 0000110000000000
          -134 726 -107 callsubr
        </CharString>
        <CharString name="Ebreve">
          35 callgsubr
          65 69 39 -20 9 callgsubr
          hintmask 0111001101000000
          -97 callsubr
          hintmask 0101001010000000
          -94 callsubr
          hintmask 1000000001000000
          -41 callgsubr
          hintmask 0000110000000000
          -62 709 -99 callsubr
        </CharString>
        <CharString name="Ecaron">
          531 0 1 callgsubr
          hintmask 01111101
          -97 callsubr
          hintmask 01011010
          -94 callsubr
          hintmask 10000001
          -41 callgsubr
          hintmask 00000000
          -115 668 -85 callgsubr
        </CharString>
        <CharString name="Ecircumflex">
          531 0 1 callgsubr
          hintmask 01111101
          -97 callsubr
          hintmask 01011010
          -94 callsubr
          hintmask 10000001
          -41 callgsubr
          hintmask 00000000
          -114 681 -105 callsubr
          endchar
        </CharString>
        <CharString name="Ecircumflexacute">
          35 callgsubr
          308 -20 9 callgsubr
          hintmask 0111011010000000
          -97 callsubr
          hintmask 0101010100000000
          -94 callsubr
          hintmask 1000000010000000
          -41 callgsubr
          hintmask 0000100000000000
          -114 681 -24 callgsubr
          157 -107 callsubr
        </CharString>
        <CharString name="Ecircumflexdotbelow">
          531 -200 108 92 49 callgsubr
          hintmask 0011110101000000
          -97 callsubr
          hintmask 0010110010000000
          -94 callsubr
          hintmask 0100000001000000
          -41 callgsubr
          -114 681 -105 callsubr
          hintmask 1000001000000000
          -74 -870 rmoveto
          60 callsubr
        </CharString>
        <CharString name="Ecircumflexgrave">
          531 0 1 callgsubr
          hintmask 01111101
          -97 callsubr
          hintmask 01011010
          -94 callsubr
          hintmask 10000001
          -41 callgsubr
          hintmask 00000000
          -114 681 -87 callgsubr
        </CharString>
        <CharString name="Ecircumflexhookabove">
          35 callgsubr
          387 -20 9 callgsubr
          hintmask 0111011010000000
          -97 callsubr
          hintmask 0101010100000000
          -94 callsubr
          hintmask 1000000010000000
          -41 callgsubr
          hintmask 0000100010000000
          -114 681 -105 callsubr
          72 192 -107 callgsubr
        </CharString>
        <CharString name="Ecircumflextilde">
          35 callgsubr
          197 71 -17 71 9 callgsubr
          hintmask 0111001101000000
          -97 callsubr
          hintmask 0101001010000000
          -94 callsubr
          hintmask 1000000001000000
          -41 callgsubr
          hintmask 0000010000000000
          -114 681 -105 callsubr
          48 175 6 callsubr
        </CharString>
        <CharString name="Edblgrave">
          531 0 1 callgsubr
          hintmask 01111101
          -97 callsubr
          hintmask 01011010
          -94 callsubr
          hintmask 10000001
          -41 callgsubr
          hintmask 00000000
          -83 645 -98 callgsubr
        </CharString>
        <CharString name="Edieresis">
          130 callsubr
          95 76 -61 98 89 76 -50 98 -11 76 -54 76 hintmask 0111101001000000
          -97 callsubr
          hintmask 0101100010000000
          -94 callsubr
          hintmask 1000000001000000
          -41 callgsubr
          hintmask 0000010100000000
          -300 671 -73 callsubr
        </CharString>
        <CharString name="Edotaccent">
          531 0 49 callgsubr
          hintmask 0111101010000000
          -97 callsubr
          hintmask 0101100100000000
          -94 callsubr
          hintmask 1000000010000000
          -41 callgsubr
          hintmask 0000010000000000
          -188 687 rmoveto
          60 callsubr
        </CharString>
        <CharString name="Edotbelow">
          531 -200 108 92 49 callgsubr
          hintmask 0011110101000000
          -97 callsubr
          hintmask 0010110010000000
          -94 callsubr
          hintmask 0100000001000000
          -41 callgsubr
          hintmask 1000001000000000
          -188 -189 rmoveto
          60 callsubr
        </CharString>
        <CharString name="Egrave">
          35 callgsubr
          86 -21 131 -20 9 callgsubr
          hintmask 0111001101000000
          -97 callsubr
          hintmask 0101001010000000
          -94 callsubr
          hintmask 1000000001000000
          -41 callgsubr
          hintmask 0000110000000000
          -134 677 -99 callgsubr
        </CharString>
        <CharString name="Ehookabove">
          35 callgsubr
          86 157 callsubr
          9 callgsubr
          hintmask 0111001101000000
          -97 callsubr
          hintmask 0101001010000000
          -94 callsubr
          hintmask 1000000001000000
          -41 callgsubr
          hintmask 0000110100000000
          -142 781 -107 callgsubr
        </CharString>
        <CharString name="Emacron">
          531 0 1 callgsubr
          hintmask 01111101
          -97 callsubr
          hintmask 01011010
          -94 callsubr
          hintmask 10000001
          -41 callgsubr
          hintmask 00000000
          -51 677 -89 callsubr
        </CharString>
        <CharString name="Eng">
          531 -10 98 -88 66 479 66 -66 76 hstemhm
          95 76 246 76 hintmask 00011000
          493 306 rmoveto
          156 -63 159 -138 -46 -42 -17 -29 -33 vhcurveto
          hintmask 01101100
          28 -2 -10 8 -31 hhcurveto
          -74 -103 callsubr
          41 -479 -77 callsubr
          366 hlineto
          62 10 48 51 63 hhcurveto
          99 26 -124 -115 -87 0 -105 -34 -35 hvcurveto
          hintmask 10000100
          6 -8 -10 3 -11 hhcurveto
          -27 -22 -22 -27 -27 22 -22 27 128 11 167 149 hvcurveto
          endchar
        </CharString>
        <CharString name="Eogonek">
          531 -203 54 149 1 callgsubr
          hintmask 0011111010000000
          -97 callsubr
          hintmask 0010110100000000
          -94 callsubr
          hintmask 1100000100000000
          58 callgsubr
          vhcurveto
          284 hlineto
          56 callsubr
          154 callgsubr
          32 hlineto
          hintmask 0000000010000000
          33 10 8 35 hvcurveto
          endchar
        </CharString>
        <CharString name="Eogonekacute">
          531 -203 54 149 -14 callgsubr
          86 -21 131 -20 9 callgsubr
          hintmask 0011100110100000
          -97 callsubr
          hintmask 0010100101000000
          -94 callsubr
          hintmask 1100000001000000
          58 callgsubr
          vhcurveto
          284 hlineto
          56 callsubr
          154 callgsubr
          32 hlineto
          hintmask 0000000000100000
          33 10 8 35 hvcurveto
          hintmask 0000011000000000
          -134 726 -107 callsubr
        </CharString>
        <CharString name="Epsilon">
          531 0 1 callgsubr
          hintmask 01111101
          -97 callsubr
          hintmask 01011010
          -94 callsubr
          hintmask 10000001
          -41 callgsubr
          endchar
        </CharString>
        <CharString name="Ereversed">
          130 callsubr
          25 76 -54 76 37 76 126 76 hintmask 10110111
          508 33 -65 callsubr
          -27 479 27 -67 callgsubr
          -375 hlineto
          -33 -10 -9 -34 -15 callgsubr
          239 -196 -126 vlineto
          36 0 20 -38 -38 0 -24 -19 vhcurveto
          -92 vlineto
          -19 0 -24 38 38 0 20 36 vhcurveto
          126 -217 hlineto
          hintmask 10001000
          -261 hlineto
          hintmask 01001000
          66 vlineto
          -50 callgsubr
          -24 -19 vhcurveto
          -89 vlineto
          hintmask 10000000
          -35 10 -8 33 vhcurveto
          397 -21 callgsubr
          endchar
        </CharString>
        <CharString name="Eta">
          68 callsubr
          hstem
          85 76 208 76 vstem
          -89 callgsubr
          endchar
        </CharString>
        <CharString name="Eth">
          1 callsubr
        </CharString>
        <CharString name="Etilde">
          35 callgsubr
          55 71 -17 71 9 callgsubr
          hintmask 0111001101000000
          -97 callsubr
          hintmask 0101001010000000
          -94 callsubr
          hintmask 1000000001000000
          -41 callgsubr
          hintmask 0000010000000000
          -66 714 6 callsubr
        </CharString>
        <CharString name="Euro">
          -4 callgsubr
          149 66 70 66 82 66 0 66 hstemhm
          118 76 202 76 hintmask 11110110
          472 21 rmoveto
          90 vlineto
          17 -14 14 -17 vhcurveto
          -14 hlineto
          -16 -13 -12 -15 -2 hvcurveto
          -35 -4 -32 -24 -36 hhcurveto
          -39 -28 32 35 -20 hvcurveto
          -15 25 -10 28 -7 29 rrcurveto
          133 hlineto
          12 10 7 12 2 hvcurveto
          5 22 rlineto
          13 3 -13 12 -15 hhcurveto
          -147 hlineto
          -1 11 0 12 12 vvcurveto
          11 0 12 1 12 vhcurveto
          176 hlineto
          11 11 7 12 2 hvcurveto
          5 22 rlineto
          13 2 -12 12 -15 hhcurveto
          -170 hlineto
          7 28 10 28 15 26 rrcurveto
          34 20 28 32 39 hhcurveto
          36 32 -24 -35 4 hvcurveto
          -15 2 13 -12 16 hhcurveto
          14 hlineto
          17 14 14 17 hvcurveto
          90 vlineto
          hintmask 11101110
          17 -14 14 -17 vhcurveto
          -4 hlineto
          -9 -8 -4 -6 -6 hvcurveto
          -11 -11 rlineto
          14 -24 -30 7 -30 hhcurveto
          -62 -52 -44 -54 -33 hvcurveto
          -21 -36 -15 -40 -8 -40 rrcurveto
          -36 120 callgsubr
          31 hlineto
          -1 -12 0 -12 -11 vvcurveto
          -12 0 -12 1 -11 vhcurveto
          -27 120 callgsubr
          40 hlineto
          8 -41 15 -40 21 -36 rrcurveto
          -54 33 52 -44 62 hhcurveto
          30 30 7 14 24 hvcurveto
          11 -11 rlineto
          -6 6 8 -4 9 hhcurveto
          4 hlineto
          17 14 14 17 hvcurveto
          endchar
        </CharString>
        <CharString name="F">
          -48 callgsubr
          207 139 callsubr
          hstemhm
          101 76 92 76 -38 76 36 76 hintmask 11111010
          495 21 callgsubr
          -381 -103 callsubr
          30 -479 -30 -103 callsubr
          154 hlineto
          15 29 37 callsubr
          -48 207 hlineto
          hintmask 01000100
          130 hlineto
          hintmask 00001000
          -36 0 -20 38 vhcurveto
          hintmask 00000100
          38 0 24 19 hvcurveto
          92 vlineto
          hintmask 00001000
          -6 callgsubr
          vhcurveto
          hintmask 01110110
          -38 0 -20 -36 hvcurveto
          -130 206 242 131 callsubr
        </CharString>
        <CharString name="G">
          94 callsubr
          hstemhm
          38 76 264 -35 callsubr
          hintmask 10111100
          -86 callsubr
          hintmask 01000100
          53 callgsubr
          endchar
        </CharString>
        <CharString name="Gacute">
          94 callsubr
          76 98 callgsubr
          38 76 264 -35 callsubr
          hintmask 10110011
          -86 callsubr
          hintmask 01000001
          53 callgsubr
          hintmask 00001100
          -127 530 -107 callsubr
        </CharString>
        <CharString name="Gamma">
          54 callgsubr
          107 76 235 76 vstem
          494 21 callgsubr
          -377 -100 callsubr
          33 -479 -33 -100 callsubr
          161 -53 callgsubr
          -52 479 235 131 callsubr
        </CharString>
        <CharString name="Gbreve">
          94 callsubr
          55 69 39 -20 hstemhm
          38 76 264 -35 callsubr
          hintmask 10110011
          -86 callsubr
          hintmask 01000001
          53 callgsubr
          hintmask 00001100
          -55 513 -99 callsubr
        </CharString>
        <CharString name="Gcaron">
          94 callsubr
          hstemhm
          38 76 264 -35 callsubr
          hintmask 10111100
          -86 callsubr
          hintmask 01000100
          53 callgsubr
          hintmask 00000000
          -108 472 -85 callgsubr
        </CharString>
        <CharString name="Gcedilla">
          122 callsubr
          150 66 -33 66 250 66 hstemhm
          38 107 callsubr
          hintmask 00010000
          501 239 -65 callsubr
          -122 hlineto
          hintmask 00001000
          -16 -27 0 -33 hvcurveto
          hintmask 00110000
          58 callgsubr
          vhcurveto
          40 hlineto
          -88 -10 -40 -62 -60 hhcurveto
          hintmask 00101111
          -86 callsubr
          hintmask 00010001
          163 vlineto
          hintmask 11001000
          22 25 0 33 hvcurveto
          -170 -347 -97 callgsubr
        </CharString>
        <CharString name="Gcircumflex">
          94 callsubr
          hstemhm
          38 76 264 -35 callsubr
          hintmask 10111100
          -86 callsubr
          hintmask 01000100
          53 callgsubr
          hintmask 00000000
          -107 485 -105 callsubr
          endchar
        </CharString>
        <CharString name="Gcommaaccent">
          122 callsubr
          150 66 -33 66 250 66 hstemhm
          38 107 callsubr
          hintmask 00010000
          501 239 -65 callsubr
          -122 hlineto
          hintmask 00001000
          -16 -27 0 -33 hvcurveto
          hintmask 00110000
          58 callgsubr
          vhcurveto
          40 hlineto
          -88 -10 -40 -62 -60 hhcurveto
          hintmask 00101111
          -86 callsubr
          hintmask 00010001
          163 vlineto
          hintmask 00001000
          22 25 0 33 hvcurveto
          hintmask 11000000
          -170 -347 -97 callgsubr
        </CharString>
        <CharString name="Gdotaccent">
          94 callsubr
          hstemhm
          38 76 98 108 58 -35 callsubr
          hintmask 10111010
          -86 callsubr
          hintmask 01000010
          53 callgsubr
          hintmask 00000100
          -181 491 rmoveto
          60 callsubr
        </CharString>
        <CharString name="H">
          68 callsubr
          hstem
          85 76 208 76 vstem
          -89 callgsubr
          endchar
        </CharString>
        <CharString name="H_uni0303">
          68 callsubr
          55 93 callgsubr
          85 76 208 76 hintmask 11100110
          -89 callgsubr
          hintmask 00001000
          -68 724 -96 callgsubr
        </CharString>
        <CharString name="Hbar">
          -48 callgsubr
          219 66 74 66 54 66 hstem
          85 76 208 76 vstem
          34 callgsubr
          359 27 hlineto
          140 callgsubr
          19 -15 14 -18 hvcurveto
          -27 54 21 -53 callgsubr
          -118 -78 callgsubr
          -54 -208 54 21 -53 callgsubr
          -118 -78 callgsubr
          -54 -27 hlineto
          -18 -15 -14 -19 -18 15 -15 18 hvcurveto
          27 -359 83 callgsubr
          219 208 -219 -21 -72 callgsubr
          118 -47 callgsubr
          -141 318 rmoveto
          -208 74 208 hlineto
          endchar
        </CharString>
        <CharString name="Hbrevebelow">
          531 -200 69 39 -20 112 77 callgsubr
          hstemhm
          85 76 208 76 hintmask 00111110
          -89 callgsubr
          hintmask 11000000
          -64 -157 -99 callsubr
        </CharString>
        <CharString name="Hcircumflex">
          68 callsubr
          hstemhm
          85 76 208 76 vstemhm
          -89 callgsubr
          -116 691 -105 callsubr
          endchar
        </CharString>
        <CharString name="Hdieresis">
          68 callsubr
          hstemhm
          85 76 -51 140 callsubr
          -52 76 hintmask 11110010
          -89 callgsubr
          hintmask 00001100
          -302 681 -73 callsubr
        </CharString>
        <CharString name="Hdotbelow">
          11 callgsubr
          219 66 194 66 hstemhm
          85 76 51 108 49 76 hintmask 01111010
          -89 callgsubr
          hintmask 10000100
          -190 -179 rmoveto
          60 callsubr
        </CharString>
        <CharString name="I">
          54 callgsubr
          227 76 vstem
          -95 callsubr
          endchar
        </CharString>
        <CharString name="Iacute">
          -33 callsubr
          86 98 callgsubr
          227 76 hintmask 11001000
          -95 callsubr
          hintmask 00110000
          -77 736 -107 callsubr
        </CharString>
        <CharString name="Ibreve">
          -33 callsubr
          65 69 39 -20 hstemhm
          227 76 hintmask 11001000
          -95 callsubr
          hintmask 00110000
          -5 719 -99 callsubr
        </CharString>
        <CharString name="Icaron">
          34 callsubr
          227 76 vstemhm
          -95 callsubr
          -58 678 -85 callgsubr
        </CharString>
        <CharString name="Icircumflex">
          34 callsubr
          227 76 vstemhm
          -95 callsubr
          -57 691 -105 callsubr
          endchar
        </CharString>
        <CharString name="Idblgrave">
          34 callsubr
          227 76 vstemhm
          -95 callsubr
          -26 655 -98 callgsubr
        </CharString>
        <CharString name="Idieresis">
          34 callsubr
          110 98 19 76 20 98 hintmask 11010000
          -95 callsubr
          hintmask 00101000
          -243 681 -73 callsubr
        </CharString>
        <CharString name="Idieresisacute">
          -33 callsubr
          237 98 callgsubr
          110 98 19 76 20 98 hintmask 11000100
          -95 callsubr
          hintmask 00111010
          -243 681 rmoveto
          -101 callsubr
          213 hmoveto
          -101 callsubr
          -47 206 -107 callsubr
        </CharString>
        <CharString name="Idotaccent">
          34 callsubr
          135 callgsubr
          -93 76 hintmask 11010000
          -95 callsubr
          hintmask 00100000
          -131 697 rmoveto
          60 callsubr
        </CharString>
        <CharString name="Idotbelow">
          11 callgsubr
          479 66 hstemhm
          135 callgsubr
          -93 76 hintmask 01101000
          -95 callsubr
          hintmask 10010000
          -131 -179 rmoveto
          60 callsubr
        </CharString>
        <CharString name="Igrave">
          -33 callsubr
          86 98 callgsubr
          227 76 hintmask 11001000
          -95 callsubr
          hintmask 00110000
          -77 687 -99 callgsubr
        </CharString>
        <CharString name="Ihookabove">
          -33 callsubr
          86 157 callsubr
          hstemhm
          227 76 hintmask 11001000
          -95 callsubr
          hintmask 00111000
          -85 791 -107 callgsubr
        </CharString>
        <CharString name="Imacron">
          34 callsubr
          227 76 vstemhm
          -95 callsubr
          6 687 -89 callsubr
        </CharString>
        <CharString name="Imacron.alt">
          -33 callsubr
          75 68 hstemhm
          227 76 hintmask 11010000
          -95 callsubr
          hintmask 00100000
          -83 687 20 callgsubr
        </CharString>
        <CharString name="Iogonek">
          111 callgsubr
          479 66 hstem
          227 76 vstem
          451 35 callsubr
          -104 479 104 hlineto
          15 29 37 callsubr
          -284 -100 callsubr
          104 -479 -56 callgsubr
          110 hlineto
          -34 -26 -27 -40 -42 -82 callgsubr
          -18 -26 15 24 47 26 42 40 21 hvcurveto
          110 -47 callgsubr
          endchar
        </CharString>
        <CharString name="Iogonekacute">
          111 callgsubr
          479 66 86 98 callgsubr
          227 76 hintmask 11100100
          451 35 callsubr
          -104 479 104 hlineto
          15 29 37 callsubr
          -284 -100 callsubr
          104 -479 -56 callgsubr
          110 hlineto
          -34 -26 -27 -40 -42 -82 callgsubr
          -18 -26 15 24 47 26 42 40 21 hvcurveto
          110 -47 callgsubr
          hintmask 00011000
          -77 736 -107 callsubr
        </CharString>
        <CharString name="Iota">
          54 callgsubr
          227 76 vstem
          -95 callsubr
          endchar
        </CharString>
        <CharString name="Itilde">
          -33 callsubr
          55 93 callgsubr
          227 76 hintmask 11001000
          -95 callsubr
          hintmask 00010000
          -9 724 -102 callgsubr
        </CharString>
        <CharString name="J">
          18 callgsubr
          hstem
          65 97 174 76 vstem
          -49 callgsubr
          endchar
        </CharString>
        <CharString name="J_uni030C.cap">
          531.25 -10 66 371 -21 105 100 -66 66 hstemhm
          65 97 174 76 hintmask 10011100
          -49 callgsubr
          170 -45 rmoveto
          46 -30 32 -36 -32 -19 -24 -27 -24 17 -26 34 vhcurveto
          hintmask 01100000
          7 3 1 3 hhcurveto
          -9 -28 -18 -19 -30 -10 rrcurveto
          -6 -2 -15 -4 -17 vvcurveto
          -13 12 -12 14 25 80 41 86 vhcurveto
          endchar
        </CharString>
        <CharString name="Jacute">
          96 callgsubr
          131 -20 hstemhm
          65 97 174 76 hintmask 11001100
          -49 callgsubr
          hintmask 00110000
          -26 191 -107 callsubr
        </CharString>
        <CharString name="Jcircumflex">
          18 callgsubr
          hstemhm
          65 97 174 76 vstemhm
          -49 callgsubr
          -6 146 -105 callsubr
          endchar
        </CharString>
        <CharString name="K">
          -13 callsubr
        </CharString>
        <CharString name="Kappa">
          -13 callsubr
        </CharString>
        <CharString name="Kcedilla">
          61 callsubr
          225 66 188 66 hstemhm
          25 62 0 62 hintmask 00111010
          -27 callgsubr
          hintmask 00101100
          27 callgsubr
          100 hlineto
          95 callgsubr
          hintmask 11100010
          18 callsubr
          -170 -141 -97 callgsubr
        </CharString>
        <CharString name="Kcommaaccent">
          61 callsubr
          225 66 188 66 hstemhm
          25 62 0 62 hintmask 00111010
          -27 callgsubr
          hintmask 00101100
          27 callgsubr
          100 hlineto
          95 callgsubr
          hintmask 00100010
          18 callsubr
          hintmask 11000000
          -170 -141 -97 callgsubr
        </CharString>
        <CharString name="L">
          531 0 135 callsubr
          hintmask 01111000
          -79 callsubr
          hintmask 10001000
          10 callsubr
          endchar
        </CharString>
        <CharString name="L_uni0303">
          531 0 112 callgsubr
          55 93 callgsubr
          107 76 235 76 hintmask 01100110
          -79 callsubr
          hintmask 10000010
          10 callsubr
          hintmask 00001000
          -173 714 -96 callgsubr
        </CharString>
        <CharString name="Lacute">
          531 0 112 callgsubr
          86 98 callgsubr
          107 76 235 76 hintmask 01100110
          -79 callsubr
          hintmask 10000010
          10 callsubr
          hintmask 00011000
          -241 726 -107 callsubr
        </CharString>
        <CharString name="Lambda">
          -48 callgsubr
          560 -20 hstem
          30 470 vstem
          500 33 rmoveto
          33 -26 0 -31 vhcurveto
          -119 521 rlineto
          39 -9 -24 0 -20 hhcurveto
          -12 hlineto
          -20 -24 0 -39 -9 hvcurveto
          -119 -521 rlineto
          -31 -26 0 -33 141 callgsubr
          hvcurveto
          108 -53 callgsubr
          -17 hlineto
          65 290 5 21 27 124 2 28 rlinecurve
          2 hlineto
          2 -28 28 -129 4 -16 65 -290 rcurveline
          -17 -72 callgsubr
          108 -47 callgsubr
          endchar
        </CharString>
        <CharString name="Lcaron">
          -48 callgsubr
          0 66 295 -21 105 100 -66 66 hstemhm
          107 76 235 76 hintmask 01001110
          -79 callsubr
          hintmask 10001010
          10 callsubr
          -25 490 rmoveto
          46 -30 32 -36 -32 -19 -24 -27 -24 17 -26 34 vhcurveto
          hintmask 00110000
          7 3 1 3 hhcurveto
          -9 -28 -18 -19 -30 -10 rrcurveto
          -6 -2 -15 -4 -17 vvcurveto
          -13 12 -12 14 25 80 41 86 vhcurveto
          endchar
        </CharString>
        <CharString name="Lcedilla">
          531 -214 -21 105 100 30 135 callsubr
          hintmask 00011110
          -79 callsubr
          hintmask 11100010
          10 callsubr
          -163 -151 -97 callgsubr
        </CharString>
        <CharString name="Lcommaaccent">
          531 -214 -21 105 100 30 135 callsubr
          hintmask 00011110
          -79 callsubr
          hintmask 00100010
          10 callsubr
          hintmask 11000000
          -163 -151 -97 callgsubr
        </CharString>
        <CharString name="Ldot">
          -48 callgsubr
          0 66 130 108 175 66 hstemhm
          107 76 174 108 -47 76 hintmask 01011010
          -79 callsubr
          hintmask 10100010
          10 callsubr
          -29 273 138 callsubr
          hintmask 00100100
          -30 -24 -24 -30 -30 24 -24 30 30 24 24 30 hvcurveto
          endchar
        </CharString>
        <CharString name="Ldotbelow">
          531 -200 108 92 97 callgsubr
          29 108 98 76 hintmask 00111010
          -79 callsubr
          hintmask 01000010
          10 callsubr
          hintmask 10000100
          -174 -189 rmoveto
          60 callsubr
        </CharString>
        <CharString name="Ldotbelowmacron">
          531 -200 108 92 97 callgsubr
          29 108 98 76 hintmask 00111010
          -79 callsubr
          hintmask 11000110
          10 callsubr
          -174 -189 -101 callgsubr
          hintmask 00000000
          26 866 -89 callsubr
        </CharString>
        <CharString name="Lslash">
          531 0 135 callsubr
          hintmask 01111000
          494 119 callgsubr
          21 0 22 -38 -38 0 -22 -21 vhcurveto
          -66 -235 246 vlineto
          198 133 122 callgsubr
          -165 -113 rcurveline
          163 -42 callsubr
          -214 hlineto
          -65 -45 144 callsubr
          18 -4 14 10 32 22 rcurveline
          -194 -33 vlineto
          52 callgsubr
          hintmask 10001000
          10 callsubr
          endchar
        </CharString>
        <CharString name="M">
          -48 callgsubr
          398 66 15 66 hstem
          69 62 110 62 96 62 vstem
          -63 callsubr
          endchar
        </CharString>
        <CharString name="Mdotbelow">
          11 callgsubr
          398 66 15 66 hstemhm
          69 62 81 108 -79 62 96 62 hintmask 01111011
          -63 callsubr
          hintmask 10000100
          -194 -179 rmoveto
          60 callsubr
        </CharString>
        <CharString name="Mu">
          -48 callgsubr
          398 66 15 66 hstem
          69 62 110 62 96 62 vstem
          -63 callsubr
          endchar
        </CharString>
        <CharString name="N">
          531 0 50 callgsubr
          hintmask 11101000
          -90 callgsubr
          hintmask 10010000
          24 callsubr
          hintmask 01001000
          12 callgsubr
          endchar
        </CharString>
        <CharString name="Nacute">
          -33 callsubr
          86 98 callgsubr
          92 62 176 62 -16 62 hintmask 11001010
          -90 callgsubr
          hintmask 10000100
          24 callsubr
          hintmask 01000010
          12 callgsubr
          hintmask 00110000
          -129 191 -107 callsubr
        </CharString>
        <CharString name="Ncaron">
          531 0 50 callgsubr
          hintmask 11101000
          -90 callgsubr
          hintmask 10010000
          24 callsubr
          hintmask 01001000
          12 callgsubr
          hintmask 00000000
          -110 133 -85 callgsubr
        </CharString>
        <CharString name="Ncedilla">
          531 -214 -21 105 100 30 50 callgsubr
          hintmask 00111010
          -90 callgsubr
          hintmask 00100100
          24 callsubr
          hintmask 11010010
          12 callgsubr
          -172 -686 -97 callgsubr
        </CharString>
        <CharString name="Ncommaaccent">
          531 -214 -21 105 100 30 50 callgsubr
          hintmask 00111010
          -90 callgsubr
          hintmask 00100100
          24 callsubr
          hintmask 00010010
          12 callgsubr
          hintmask 11000000
          -172 -686 -97 callgsubr
        </CharString>
        <CharString name="Ndotaccent">
          34 callsubr
          92 62 58 108 10 62 -16 62 hintmask 11100100
          -90 callgsubr
          hintmask 10001000
          24 callsubr
          hintmask 01000100
          12 callgsubr
          hintmask 00010000
          -183 142 rmoveto
          60 callsubr
        </CharString>
        <CharString name="Ndotbelow">
          11 callgsubr
          479 66 hstemhm
          92 62 58 108 10 62 -16 62 hintmask 01110010
          -90 callgsubr
          hintmask 01000100
          24 callsubr
          hintmask 00100010
          12 callgsubr
          hintmask 10001000
          -183 -724 rmoveto
          60 callsubr
        </CharString>
        <CharString name="Ntilde">
          -33 callsubr
          55 93 callgsubr
          92 62 176 62 -16 62 hintmask 11001010
          -90 callgsubr
          hintmask 10000100
          24 callsubr
          hintmask 01000010
          12 callgsubr
          hintmask 00010000
          -61 179 -102 callgsubr
        </CharString>
        <CharString name="Nu">
          531 0 50 callgsubr
          hintmask 11101000
          -90 callgsubr
          hintmask 10010000
          24 callsubr
          hintmask 01001000
          12 callgsubr
          endchar
        </CharString>
        <CharString name="O">
          -16 callsubr
          hstem
          48 callsubr
          vstem
          -104 callgsubr
          endchar
        </CharString>
        <CharString name="OE">
          -38 callgsubr
        </CharString>
        <CharString name="OE.dup">
          -38 callgsubr
        </CharString>
        <CharString name="Oacute">
          129 callsubr
          57 76 264 76 hintmask 11001100
          -104 callgsubr
          hintmask 00110000
          -23 455 -107 callsubr
        </CharString>
        <CharString name="Obreve">
          -16 callsubr
          55 69 39 -20 78 callsubr
          hintmask 11001100
          -104 callgsubr
          hintmask 00110000
          49 438 -99 callsubr
        </CharString>
        <CharString name="Ocaron">
          89 callsubr
          57 76 264 76 vstemhm
          -104 callgsubr
          -4 397 -85 callgsubr
        </CharString>
        <CharString name="Ocircumflex">
          89 callsubr
          57 76 264 76 vstemhm
          -104 callgsubr
          -3 410 -105 callsubr
          endchar
        </CharString>
        <CharString name="Ocircumflexacute">
          -16 callsubr
          298 -20 78 callsubr
          hintmask 11011000
          -104 callgsubr
          hintmask 00100000
          -3 410 -24 callgsubr
          157 -107 callsubr
        </CharString>
        <CharString name="Ocircumflexdotbelow">
          75 callgsubr
          499 66 hstemhm
          57 76 79 108 77 76 hintmask 01110100
          -104 callgsubr
          -3 410 -105 callsubr
          hintmask 10001000
          -74 -870 rmoveto
          60 callsubr
        </CharString>
        <CharString name="Ocircumflexgrave">
          89 callsubr
          57 76 264 76 vstemhm
          -104 callgsubr
          -3 410 -87 callgsubr
        </CharString>
        <CharString name="Ocircumflexhookabove">
          -16 callsubr
          377 -20 78 callsubr
          hintmask 11011000
          -104 callgsubr
          hintmask 00101000
          -3 410 -105 callsubr
          72 192 -107 callgsubr
        </CharString>
        <CharString name="Ocircumflextilde">
          -16 callsubr
          187 71 -17 71 78 callsubr
          hintmask 11001100
          -104 callgsubr
          hintmask 00010000
          -3 410 -105 callsubr
          48 175 -102 callgsubr
        </CharString>
        <CharString name="Odblgrave">
          89 callsubr
          57 76 264 76 vstemhm
          -104 callgsubr
          28 374 -98 callgsubr
        </CharString>
        <CharString name="Odieresis">
          89 callsubr
          57 76 -23 140 callsubr
          -24 76 hintmask 11100100
          -104 callgsubr
          hintmask 00011000
          -189 400 -73 callsubr
        </CharString>
        <CharString name="Odotbelow">
          75 callgsubr
          499 66 hstemhm
          57 76 79 108 77 76 hintmask 01110100
          -104 callgsubr
          hintmask 10001000
          -77 -460 rmoveto
          60 callsubr
        </CharString>
        <CharString name="Ograve">
          129 callsubr
          57 76 264 76 hintmask 11001100
          -104 callgsubr
          hintmask 00110000
          -23 406 -99 callgsubr
        </CharString>
        <CharString name="Ohookabove">
          -16 callsubr
          76 157 callsubr
          78 callsubr
          hintmask 11001100
          -104 callgsubr
          hintmask 00110000
          -31 510 -107 callgsubr
        </CharString>
        <CharString name="Ohorn">
          -16 callsubr
          98 -20 hstemhm
          57 76 242 76 -55 76 hintmask 11111000
          -70 callgsubr
          hintmask 00000100
          4 callsubr
          hintmask 11011000
          -43 callsubr
          hintmask 00000100
          21 -38 0 -94 -68 vvcurveto
          endchar
        </CharString>
        <CharString name="Ohornacute">
          -16 callsubr
          76 -21 43 -20 108 -67 callsubr
          -52 451 -107 callsubr
        </CharString>
        <CharString name="Ohorndotbelow">
          75 callgsubr
          499 66 98 -20 hstemhm
          57 76 79 108 55 76 -55 76 hintmask 01111010
          -60 callgsubr
          hintmask 01101010
          -13 callgsubr
          hintmask 10000100
          -76 -464 rmoveto
          60 callsubr
        </CharString>
        <CharString name="Ohorngrave">
          -16 callsubr
          76 -21 43 -20 108 -67 callsubr
          -52 402 -99 callgsubr
        </CharString>
        <CharString name="Ohornhookabove">
          -16 callsubr
          76 -21 43 -20 207 -67 callsubr
          -30 506 -107 callgsubr
        </CharString>
        <CharString name="Ohorntilde">
          -16 callsubr
          45 93 callgsubr
          57 76 242 76 -55 76 hintmask 11001100
          -70 callgsubr
          hintmask 00000010
          4 callsubr
          hintmask 11001100
          -43 callsubr
          hintmask 00000010
          21 -38 0 -94 -68 vvcurveto
          hintmask 00010000
          16 439 -102 callgsubr
        </CharString>
        <CharString name="Ohungarumlaut">
          89 callsubr
          57 76 264 76 vstemhm
          -104 callgsubr
          -167 444 -80 callgsubr
        </CharString>
        <CharString name="Omacron">
          89 callsubr
          57 76 264 76 vstemhm
          -104 callgsubr
          60 406 -89 callsubr
        </CharString>
        <CharString name="Omega">
          -14 callsubr
        </CharString>
        <CharString name="Omicron">
          -16 callsubr
          hstem
          48 callsubr
          vstem
          -104 callgsubr
          endchar
        </CharString>
        <CharString name="Oogonek">
          -16 callsubr
          hstem
          48 callsubr
          vstem
          -5 callsubr
          endchar
        </CharString>
        <CharString name="Oogonekacute">
          129 callsubr
          57 76 264 76 hintmask 11001100
          -5 callsubr
          hintmask 00110000
          -23 455 -107 callsubr
        </CharString>
        <CharString name="Orogate">
          531 48 callsubr
          vstem
          36 callgsubr
          271 -18 41 -157 4 vhcurveto
          126 vlineto
          19 -15 14 -18 -18 -15 -14 -19 vhcurveto
          -126 vlineto
          -156 -4 -19 -41 -270 vvcurveto
          -271 18 -41 157 -4 vhcurveto
          -126 vlineto
          -18 15 -15 18 140 callgsubr
          vhcurveto
          126 vlineto
          156 4 19 41 270 vvcurveto
          -76 9 rmoveto
          -58 0 -75 -10 -50 vhcurveto
          -50 -11 -19 -25 -92 hhcurveto
          -85 -24 21 46 -11 hvcurveto
          -12 51 0 82 58 vvcurveto
          67 0 59 11 48 vhcurveto
          57 13 34 10 74 hhcurveto
          83 27 -14 -58 13 hvcurveto
          9 -45 0 -70 -54 vvcurveto
          endchar
        </CharString>
        <CharString name="Oslash">
          -46 callgsubr
        </CharString>
        <CharString name="Oslash.dup">
          -46 callgsubr
        </CharString>
        <CharString name="Oslashacute">
          531 -67 -21 78 66 -65 66 497 66 -65 66 76 -21 23 -20 128 -20 hstemhm
          57 62 84 62 0 62 84 62 hintmask 0001001000100000
          36 callgsubr
          58 0 59 -6 55 vhcurveto
          -11 86 -22 28 -42 16 rrcurveto
          6 20 11 33 6 vvcurveto
          25 -24 8 -11 -22 -6 -19 -13 -5 vhcurveto
          -2 -7 -2 -10 -10 -30 rrcurveto
          hintmask 1000100010100000
          1 -15 -31 0 -16 hhcurveto
          -186 -22 -27 -288 -58 0 -59 6 -55 hvcurveto
          11 -86 22 -28 42 -16 rrcurveto
          -6 -20 -11 -33 -6 vvcurveto
          -25 24 -8 11 22 6 19 13 5 vhcurveto
          hintmask 0010000001000000
          2 7 2 10 10 30 rrcurveto
          hintmask 0100100010110000
          -1 15 31 0 16 hhcurveto
          22 callsubr
          hvcurveto
          -166 249 rmoveto
          -147 -478 rlineto
          -20 15 -21 15 199 vvcurveto
          65 0 76 14 49 vhcurveto
          59 18 54 1 60 hhcurveto
          hintmask 0101000000100000
          17 13 0 -1 12 hvcurveto
          104 -248 rmoveto
          -65 0 -76 -14 -49 vhcurveto
          -59 -18 -54 -1 -60 hhcurveto
          hintmask 0010000000010000
          -17 -13 0 1 -12 hvcurveto
          147 478 rlineto
          20 -15 21 -15 -199 vvcurveto
          hintmask 0000010100000000
          -64 463 -107 callsubr
        </CharString>
        <CharString name="Otilde">
          -16 callsubr
          45 71 -17 71 78 callsubr
          hintmask 11001100
          -104 callgsubr
          hintmask 00010000
          45 443 -102 callgsubr
        </CharString>
        <CharString name="P">
          7 callgsubr
        </CharString>
        <CharString name="Phi">
          -48 callgsubr
          94 67 157 67 94 66 hstem
          41 76 110 76 110 76 cntrmask 00001110
          489 305 rmoveto
          73 -80 61 -106 12 vhcurveto
          94 38 vlineto
          15 28 23 callgsubr
          -15 hvcurveto
          -152 -6 callsubr
          38 -94 hlineto
          -111 -12 -75 -65 -68 vvcurveto
          -73 80 -61 106 -12 vhcurveto
          -94 -38 vlineto
          -51 callsubr
          152 hlineto
          15 28 23 callgsubr
          -15 hvcurveto
          -38 94 hlineto
          111 12 75 65 68 vvcurveto
          -262 -78 rmoveto
          -59 7 -51 32 39 vvcurveto
          42 55 30 55 7 vhcurveto
          186 -78 rmoveto
          -42 -55 -30 -55 -7 vhcurveto
          157 vlineto
          59 -7 51 -32 -39 vvcurveto
          endchar
        </CharString>
        <CharString name="Pi">
          54 callgsubr
          85 76 208 76 vstem
          34 callgsubr
          479 21 -53 callgsubr
          -402 hlineto
          -15 -29 0 -33 -33 29 0 15 hvcurveto
          21 -479 83 callgsubr
          479 208 -479 -21 -72 callgsubr
          118 -47 callgsubr
          endchar
        </CharString>
        <CharString name="Psi">
          -48 callgsubr
          348 66 65 66 hstem
          76 76 75 76 75 76 cntrmask 00011100
          492 447 rmoveto
          33 -29 0 -10 -67 -8 -60 -53 -58 -14 -60 -61 -19 vhcurveto
          315 32 vlineto
          -64 callgsubr
          -140 -103 callsubr
          32 -315 hlineto
          -69 21 -6 75 44 vvcurveto
          48 -8 62 -66 -10 -30 0 -33 -19 10 -12 21 -2 vhcurveto
          7 -18 0 -11 -23 vvcurveto
          1 -111 54 -74 96 -16 rrcurveto
          -95 -32 vlineto
          -100 callgsubr
          140 -67 callgsubr
          -32 95 hlineto
          136 23 14 124 1 60 rrcurveto
          16 0 12 7 18 vhcurveto
          21 2 10 12 19 vvcurveto
          endchar
        </CharString>
        <CharString name="Q">
          531 -118 -21 129 66 56 66 377 66 hstem
          48 callsubr
          vstem
          -73 callgsubr
          35 2 0 1 13 vhcurveto
          15 -32 17 -32 17 -31 rrcurveto
          -34 19 1 -1 28 hhcurveto
          13 hlineto
          14 20 0 21 4 0 2 -14 25 hvcurveto
          -13 26 6 -14 -42 81 38 16 22 23 11 95 rrcurveto
          6 52 0 66 47 vvcurveto
          -76 1 rmoveto
          -44 0 -38 -3 -46 vhcurveto
          -6 -81 -19 -14 -10 -7 -42 75 9 -12 -11 18 rrcurveto
          13 -8 -1 1 -21 hhcurveto
          -14 hlineto
          -14 -21 0 -21 -9 16 -27 1 -2 hvcurveto
          11 -18 0 -2 17 -36 rrcurveto
          -23 hlineto
          -93 -15 31 52 -9 66 callsubr
          endchar
        </CharString>
        <CharString name="R">
          -74 callsubr
          endchar
        </CharString>
        <CharString name="Racute">
          531 -10 15 callsubr
          86 98 callgsubr
          85 76 75 50 callsubr
          hintmask 0010000000001000
          528 97 rmoveto
          34 -30 0 -8 -8 -29 0 -32 -1 vhcurveto
          hintmask 1000000000100000
          10 callgsubr
          hintmask 0100010010010000
          -59 callgsubr
          hintmask 0101100011100000
          -33 callgsubr
          hintmask 1000110010011000
          -62 callsubr
          hintmask 0000001100000000
          12 327 -107 callsubr
        </CharString>
        <CharString name="Rcaron">
          -74 callsubr
          hintmask 0000000000000000
          31 269 -85 callgsubr
        </CharString>
        <CharString name="Rcedilla">
          -19 callgsubr
          hintmask 1110001110011000
          -62 callsubr
          -31 -550 -97 callgsubr
        </CharString>
        <CharString name="Rcommaaccent">
          -19 callgsubr
          hintmask 0010001110011000
          -62 callsubr
          hintmask 1100000000000000
          -31 -550 -97 callgsubr
        </CharString>
        <CharString name="Rdblgrave">
          -74 callsubr
          hintmask 0000000000000000
          33 246 -98 callgsubr
        </CharString>
        <CharString name="Rdotaccent">
          531 -10 15 callsubr
          hstemhm
          85 76 51 108 -84 50 callsubr
          hintmask 0010000000010000
          528 97 rmoveto
          34 -30 0 -8 -8 -29 0 -32 -1 vhcurveto
          hintmask 1000000001000000
          10 callgsubr
          hintmask 0100011000100000
          -59 callgsubr
          hintmask 0101101011000000
          -33 callgsubr
          hintmask 1000111000110000
          -62 callsubr
          hintmask 0000000100000000
          -42 288 rmoveto
          60 callsubr
        </CharString>
        <CharString name="Rdotbelow">
          -21 callsubr
          hintmask 0100011100011000
          -62 callsubr
          hintmask 1000000010000000
          -42 -588 rmoveto
          60 callsubr
        </CharString>
        <CharString name="Rdotbelowmacron">
          -21 callsubr
          hintmask 1100011110011000
          -62 callsubr
          -42 -588 -101 callgsubr
          hintmask 0000000000000000
          137 866 -89 callsubr
        </CharString>
        <CharString name="Rho">
          7 callgsubr
        </CharString>
        <CharString name="S">
          116 callsubr
          hstem
          53 71 282 71 vstem
          -93 callgsubr
          -31 47 66 -10 49 hhcurveto
          118 72 89 89 hvcurveto
          endchar
        </CharString>
        <CharString name="Sacute">
          116 callsubr
          76 98 callgsubr
          53 71 282 71 hintmask 11100110
          -93 callgsubr
          -31 47 66 -10 49 hhcurveto
          118 72 89 89 hvcurveto
          hintmask 00011000
          -103 601 -107 callsubr
        </CharString>
        <CharString name="Scaron">
          116 callsubr
          hstemhm
          53 71 282 71 vstemhm
          -93 callgsubr
          -31 47 66 -10 49 hhcurveto
          118 72 89 89 hvcurveto
          -84 543 -85 callgsubr
        </CharString>
        <CharString name="Scedilla">
          531 -216 66 140 66 233 66 200 66 hstem
          53 71 282 71 vstem
          -93 callgsubr
          35 -23 46 -12 41 -4 rrcurveto
          -22 vlineto
          -37 callsubr
          118 callgsubr
          hvcurveto
          6 vlineto
          96 16 58 79 80 vvcurveto
          endchar
        </CharString>
        <CharString name="Scircumflex">
          116 callsubr
          hstemhm
          53 71 282 71 vstemhm
          -93 callgsubr
          -31 47 66 -10 49 hhcurveto
          118 72 89 89 hvcurveto
          -83 556 -105 callsubr
          endchar
        </CharString>
        <CharString name="Sdotbelow">
          75 callgsubr
          233 66 200 66 hstemhm
          53 71 88 108 86 71 hintmask 01111010
          -93 callgsubr
          -31 47 66 -10 49 hhcurveto
          118 72 89 89 hvcurveto
          hintmask 10000100
          -157 -314 rmoveto
          60 callsubr
        </CharString>
        <CharString name="Sigma">
          -29 callgsubr
          68 477 66 hstem
          413 76 vstem
          489 43 rmoveto
          76 vlineto
          -50 callgsubr
          -24 -19 vhcurveto
          -51 -267 vlineto
          126 212 rlineto
          10 16 0 2 15 vvcurveto
          -139 232 rlineto
          270 -44 callsubr
          74 vlineto
          34 -10 9 -33 vhcurveto
          -361 hlineto
          -57 callgsubr
          -5 0 -7 9 -15 hvcurveto
          149 -246 -148 -249 rlineto
          -8 -13 -2 -4 -8 vvcurveto
          -31 31 0 13 95 callsubr
          endchar
        </CharString>
        <CharString name="T">
          54 callgsubr
          103 76 48 76 48 76 cntrmask 00111000
          -60 callsubr
          -48 vlineto
          -45 callgsubr
          38 0 24 19 vhcurveto
          endchar
        </CharString>
        <CharString name="T_uni0303">
          -33 callsubr
          55 93 callgsubr
          27 76 0 76 48 76 48 76 0 76 hintmask 1100101010000000
          -60 callsubr
          vlineto
          hintmask 1100011100000000
          -48 hlineto
          -45 callgsubr
          vhcurveto
          hintmask 0000000010000000
          38 0 24 19 hvcurveto
          hintmask 0001000000000000
          -61 263 rmoveto
          17 -15 17 -19 -13 -8 -8 -8 -8 vhcurveto
          hintmask 0010000000000000
          -14 -15 -26 -24 -23 hhcurveto
          -7 -6 6 11 -11 hvcurveto
          hintmask 0001000000000000
          17 -17 -20 20 -34 hhcurveto
          -21 -25 -8 -25 -33 hvcurveto
          -20 -15 -31 -23 -20 vvcurveto
          hintmask 0010000000000000
          -17 15 -17 19 13 8 8 8 8 vhcurveto
          hintmask 0001000000000000
          14 15 26 24 23 hhcurveto
          7 6 -6 -11 11 hvcurveto
          hintmask 0010000000000000
          -17 17 20 -20 34 hhcurveto
          21 25 8 25 33 hvcurveto
          20 15 31 23 20 vvcurveto
          endchar
        </CharString>
        <CharString name="T_uni0308">
          34 callsubr
          27 76 0 76 -69 98 19 76 20 98 -70 76 0 76 hintmask 1110010010000000
          -60 callsubr
          vlineto
          hintmask 1101010100000000
          -48 hlineto
          -45 callgsubr
          vhcurveto
          hintmask 0000000010000000
          38 0 24 19 hvcurveto
          hintmask 0000101000000000
          -295 220 -73 callsubr
        </CharString>
        <CharString name="Tau">
          531 0 49 callsubr
          hintmask 11101010
          -60 callsubr
          vlineto
          hintmask 11011100
          -48 hlineto
          -45 callgsubr
          vhcurveto
          hintmask 00000010
          38 0 24 19 hvcurveto
          endchar
        </CharString>
        <CharString name="Tcaron">
          531 0 49 callsubr
          hintmask 11101010
          -60 callsubr
          vlineto
          hintmask 11011100
          -48 hlineto
          -45 callgsubr
          vhcurveto
          hintmask 00000010
          38 0 24 19 hvcurveto
          hintmask 00000000
          -110 217 -85 callgsubr
        </CharString>
        <CharString name="Tcedilla">
          531 -209 66 143 66 479 66 hstemhm
          27 76 0 76 48 76 24 76 -52 76 0 76 hintmask 0111010010000000
          -60 callsubr
          vlineto
          hintmask 1100111000000000
          -48 -100 callsubr
          48 -23 hlineto
          -37 callsubr
          118 callgsubr
          hvcurveto
          6 vlineto
          hintmask 0110010100000000
          48 hlineto
          15 29 37 callsubr
          -48 479 124 85 callsubr
          vhcurveto
          hintmask 0000000010000000
          38 0 24 19 hvcurveto
          endchar
        </CharString>
        <CharString name="Tdotbelow">
          11 callgsubr
          479 66 hstemhm
          27 76 0 76 33 108 -93 76 48 76 0 76 hintmask 0111001010000000
          -60 callsubr
          vlineto
          hintmask 0110101100000000
          -48 hlineto
          -45 callgsubr
          vhcurveto
          hintmask 0000000010000000
          38 0 24 19 hvcurveto
          hintmask 1000010000000000
          -183 -640 rmoveto
          60 callsubr
        </CharString>
        <CharString name="Theta">
          -4 callgsubr
          212 75 212 66 hstem
          172 76 -76 186 -76 76 cntrmask 11111100
          -73 callgsubr
          22 callsubr
          vhcurveto
          -76 1 rmoveto
          -56 0 -71 -9 -47 vhcurveto
          -56 -12 -21 -20 -90 hhcurveto
          -93 -20 22 61 -11 66 callsubr
          -39 -26 rmoveto
          51 vlineto
          17 0 26 -38 -26 -10 -12 -19 -2 vhcurveto
          -34 hlineto
          17 -2 -8 14 -28 hhcurveto
          -38 0 -26 -17 hvcurveto
          -51 vlineto
          -17 0 -26 38 26 10 12 19 2 vhcurveto
          34 hlineto
          -17 2 8 -14 28 hhcurveto
          38 0 26 17 hvcurveto
          endchar
        </CharString>
        <CharString name="Thorn">
          -48 callgsubr
          93 66 219 66 35 66 hstem
          106 77 222 77 vstem
          482 334 rmoveto
          68 -49 108 -146 vhcurveto
          -104 35 hlineto
          18 31 0 2 5 hvcurveto
          13 3 10 13 15 vvcurveto
          33 -30 0 -16 vhcurveto
          -139 hlineto
          -16 -30 0 -33 -12 7 -16 17 -4 hvcurveto
          -1 5 30 0 18 hhcurveto
          -479 vlineto
          -18 -31 0 -2 -5 hvcurveto
          -13 -3 -10 -13 -15 vvcurveto
          -33 30 0 16 vhcurveto
          139 hlineto
          16 30 0 33 12 -7 16 -17 4 hvcurveto
          1 -5 -30 0 -18 hhcurveto
          93 114 vlineto
          116 69 89 86 hvcurveto
          -77 1 rmoveto
          -48 -40 -62 -94 vhcurveto
          -88 219 91 hlineto
          124 7 -96 -13 hvcurveto
          endchar
        </CharString>
        <CharString name="Tlinebelow">
          531 0 49 callsubr
          hintmask 11101010
          -60 callsubr
          vlineto
          hintmask 11011100
          -48 hlineto
          -45 callgsubr
          vhcurveto
          hintmask 00000010
          38 0 24 19 hvcurveto
          hintmask 00000000
          -46 -640 -89 callsubr
        </CharString>
        <CharString name="U">
          18 callgsubr
          hstem
          73 76 232 76 vstem
          -104 callsubr
          endchar
        </CharString>
        <CharString name="U_uni032F">
          146 callsubr
          82 66 489 66 hstemhm
          73 76 232 76 hintmask 00111100
          -104 callsubr
          hintmask 11000100
          -81 -746 -75 callsubr
        </CharString>
        <CharString name="Uacute">
          96 callgsubr
          131 -20 hstemhm
          73 76 232 76 hintmask 11001100
          -104 callsubr
          hintmask 00110000
          -153 191 -107 callsubr
        </CharString>
        <CharString name="Ubreve">
          18 callgsubr
          65 69 39 -20 hstemhm
          73 76 232 76 hintmask 11001100
          -104 callsubr
          hintmask 00110100
          -81 174 -99 callsubr
        </CharString>
        <CharString name="Ucaron">
          18 callgsubr
          hstemhm
          73 76 232 76 vstemhm
          -104 callsubr
          -134 133 -85 callgsubr
        </CharString>
        <CharString name="Ucircumflex">
          18 callgsubr
          hstemhm
          73 76 232 76 vstemhm
          -104 callsubr
          -133 146 -105 callsubr
          endchar
        </CharString>
        <CharString name="Udblgrave">
          18 callgsubr
          hstemhm
          73 76 232 76 vstemhm
          -104 callsubr
          -102 110 -98 callgsubr
        </CharString>
        <CharString name="Udieresis">
          18 callgsubr
          hstemhm
          73 76 -39 140 callsubr
          -40 76 hintmask 11100100
          -104 callsubr
          hintmask 00011000
          -2 callsubr
          endchar
        </CharString>
        <CharString name="Udieresisacute">
          18 callgsubr
          237 98 callgsubr
          73 76 -39 140 callsubr
          -40 76 hintmask 11001001
          -104 callsubr
          hintmask 00110110
          -2 callsubr
          -47 206 -107 callsubr
        </CharString>
        <CharString name="Udieresiscaron">
          18 callgsubr
          hstemhm
          73 76 -39 140 callsubr
          -40 76 hintmask 11100100
          -104 callsubr
          hintmask 00011000
          -2 callsubr
          -28 148 -85 callgsubr
        </CharString>
        <CharString name="Udieresisgrave">
          18 callgsubr
          237 98 callgsubr
          73 76 -39 140 callsubr
          -40 76 hintmask 11001001
          -104 callsubr
          hintmask 00110110
          -2 callsubr
          -47 157 -99 callgsubr
        </CharString>
        <CharString name="Udotbelow">
          75 callgsubr
          489 66 hstemhm
          73 76 63 108 61 76 hintmask 01110100
          -104 callsubr
          hintmask 10001000
          -207 -724 rmoveto
          60 callsubr
        </CharString>
        <CharString name="Ugrave">
          96 callgsubr
          131 -20 hstemhm
          73 76 232 76 hintmask 11001100
          -104 callsubr
          hintmask 00110000
          -153 142 -99 callgsubr
        </CharString>
        <CharString name="Uhookabove">
          96 callgsubr
          230 -20 hstemhm
          73 76 232 76 hintmask 11001100
          -104 callsubr
          hintmask 00110000
          -161 246 -107 callgsubr
        </CharString>
        <CharString name="Uhorn">
          18 callgsubr
          108 115 callsubr
          hintmask 11110110
          -76 callsubr
          hintmask 11011010
          -68 callsubr
          endchar
        </CharString>
        <CharString name="Uhornacute">
          96 callgsubr
          43 -20 108 -69 callsubr
          hintmask 0010100000000000
          -194 122 -107 callsubr
        </CharString>
        <CharString name="Uhorndotbelow">
          75 callgsubr
          489 66 108 -20 hstemhm
          72 76 39 77 -52 108 -56 77 39 77 hintmask 0111100110000000
          -76 callsubr
          hintmask 0110110010000000
          -68 callsubr
          hintmask 1000001000000000
          -218 -793 rmoveto
          60 callsubr
        </CharString>
        <CharString name="Uhorngrave">
          96 callgsubr
          43 -20 108 -69 callsubr
          hintmask 0010101000000000
          -194 73 -99 callgsubr
        </CharString>
        <CharString name="Uhornhookabove">
          96 callgsubr
          43 -20 207 -69 callsubr
          hintmask 0010100000000000
          -172 177 -107 callgsubr
        </CharString>
        <CharString name="Uhorntilde">
          18 callgsubr
          55 71 -17 71 96 callsubr
          hintmask 11001011
          -76 callsubr
          hintmask 11001101
          -68 callsubr
          hintmask 00010000
          -126 110 rmoveto
          17 -15 17 -19 -13 -8 -8 -8 -8 vhcurveto
          hintmask 00100000
          -14 -15 -26 -24 -23 hhcurveto
          -7 -6 6 11 -11 hvcurveto
          hintmask 00010000
          17 -17 -20 20 -34 hhcurveto
          -21 -25 -8 -25 -33 hvcurveto
          -20 -15 -31 -23 -20 vvcurveto
          hintmask 00100000
          -17 15 -17 19 13 8 8 8 8 vhcurveto
          hintmask 00010100
          14 15 26 24 23 hhcurveto
          7 6 -6 -11 11 hvcurveto
          hintmask 00100000
          -17 17 20 -20 34 hhcurveto
          21 25 8 25 33 hvcurveto
          20 15 31 23 20 vvcurveto
          endchar
        </CharString>
        <CharString name="Uhungarumlaut">
          18 callgsubr
          hstemhm
          73 76 232 76 vstemhm
          -104 callsubr
          -297 180 -80 callgsubr
        </CharString>
        <CharString name="Umacron">
          18 callgsubr
          hstemhm
          73 76 232 76 vstemhm
          -104 callsubr
          hintmask 00010000
          -70 142 -89 callsubr
        </CharString>
        <CharString name="Uogonek">
          79 callgsubr
          139 66 489 66 hstem
          73 76 232 76 vstem
          527 4 callgsubr
          -130 -83 callgsubr
          -337 hlineto
          -100 -63 -52 -53 -53 -63 52 100 vhcurveto
          337 27 vlineto
          -64 callgsubr
          -130 -83 callgsubr
          -339 hlineto
          -117 77 -84 90 -13 vhcurveto
          -29 -26 -21 -36 -38 -82 callgsubr
          -18 -26 15 24 43 22 39 35 23 hvcurveto
          83 20 68 80 111 vvcurveto
          339 27 42 callsubr
          hvcurveto
          endchar
        </CharString>
        <CharString name="Upsilon">
          -48 callgsubr
          498 57 hstem
          38 76 113 76 113 76 cntrmask 00111000
          492 492 rmoveto
          61 -47 68 -72 -56 -37 -39 -95 -15 vhcurveto
          -1 hlineto
          101 -15 -40 33 -52 hhcurveto
          -72 -47 -68 -61 -34 28 0 10 11 26 0 34 1 hvcurveto
          12 2 60 42 69 0 -159 -49 vhcurveto
          -290 -32 vlineto
          -100 callgsubr
          140 -67 callgsubr
          -32 290 hlineto
          49 0 159 69 41 3 -58 -13 vhcurveto
          -35 1 24 0 13 hhcurveto
          10 28 0 34 hvcurveto
          endchar
        </CharString>
        <CharString name="Uring">
          18 callgsubr
          15 38 68 38 hstemhm
          73 76 19 50 96 50 17 76 hintmask 11001001
          -104 callsubr
          hintmask 00110110
          -213 120 -48 callsubr
        </CharString>
        <CharString name="Utilde">
          18 callgsubr
          55 93 callgsubr
          73 76 232 76 hintmask 11001100
          -104 callsubr
          hintmask 00010000
          -85 179 -102 callgsubr
        </CharString>
        <CharString name="V">
          91 callsubr
          hstem
          19 492 vstem
          511 578 78 callgsubr
          -103 139 callgsubr
          25 0 30 hvcurveto
          -71 -284 -13 -54 -21 -84 -5 -43 rlinecurve
          -1 hlineto
          -5 42 -21 83 -13 52 -72 288 rcurveline
          30 25 23 callgsubr
          -15 hvcurveto
          -103 -52 callgsubr
          26 0 31 hvcurveto
          130 -516 rlineto
          -39 10 22 0 27 hhcurveto
          27 22 0 39 10 hvcurveto
          130 516 rlineto
          31 26 0 33 hvcurveto
          endchar
        </CharString>
        <CharString name="W">
          91 callsubr
          hstem
          12 506 vstem
          -88 callgsubr
          endchar
        </CharString>
        <CharString name="Wacute">
          91 callsubr
          86 98 callgsubr
          12 506 hintmask 11001000
          -88 callgsubr
          hintmask 00110000
          -144 191 -107 callsubr
        </CharString>
        <CharString name="Wcircumflex">
          91 callsubr
          hstemhm
          12 506 vstemhm
          -88 callgsubr
          -124 146 -105 callsubr
          endchar
        </CharString>
        <CharString name="Wdieresis">
          91 callsubr
          hstemhm
          12 506 -408 140 callsubr
          hintmask 11100000
          -88 callgsubr
          hintmask 00011000
          -310 47 callsubr
        </CharString>
        <CharString name="Wgrave">
          91 callsubr
          86 98 callgsubr
          12 506 hintmask 11001000
          -88 callgsubr
          hintmask 00110000
          -144 142 -99 callgsubr
        </CharString>
        <CharString name="X">
          -8 callgsubr
        </CharString>
        <CharString name="Xi">
          -29 callgsubr
          65 47 -20 193 65 175 -21 42 65 hstemhm
          33 76 -71 76 -3 76 156 76 -3 76 -71 76 hintmask 0001101001000000
          492 547 rmoveto
          21 -26 callgsubr
          -367 112 callsubr
          -21 vlineto
          -19 0 -24 38 38 0 24 18 vhcurveto
          302 hlineto
          -18 -59 callsubr
          5 -504 rmoveto
          hintmask 1110010110100000
          26 vlineto
          -50 callgsubr
          -23 -24 vhcurveto
          -312 hlineto
          24 0 23 -38 -38 0 -24 -19 vhcurveto
          -26 vlineto
          -35 11 -8 33 28 callgsubr
          -78 250 rmoveto
          49 vlineto
          -6 callgsubr
          -12 -25 0 -35 -1 vhcurveto
          -156 hlineto
          35 -1 -25 0 -12 hhcurveto
          -38 0 -24 -19 hvcurveto
          -49 vlineto
          -19 0 -24 38 12 25 0 35 1 vhcurveto
          156 hlineto
          -35 1 25 0 12 hhcurveto
          38 0 24 19 hvcurveto
          endchar
        </CharString>
        <CharString name="Y">
          54 callgsubr
          227 76 vstem
          -92 callgsubr
          endchar
        </CharString>
        <CharString name="Yacute">
          -33 callsubr
          86 98 callgsubr
          227 76 hintmask 11001000
          -92 callgsubr
          hintmask 00110000
          -136 191 -107 callsubr
        </CharString>
        <CharString name="Ycircumflex">
          34 callsubr
          227 76 vstemhm
          -92 callgsubr
          -116 146 -105 callsubr
          endchar
        </CharString>
        <CharString name="Ydieresis">
          34 callsubr
          110 98 19 76 20 98 hintmask 11010000
          -92 callgsubr
          hintmask 00101000
          -302 47 callsubr
        </CharString>
        <CharString name="Ydotbelow">
          11 callgsubr
          479 66 hstemhm
          135 callgsubr
          -93 76 hintmask 01101000
          -92 callgsubr
          hintmask 10010000
          -190 -724 rmoveto
          60 callsubr
        </CharString>
        <CharString name="Ygrave">
          -33 callsubr
          86 98 callgsubr
          227 76 hintmask 11001000
          -92 callgsubr
          hintmask 00110000
          -136 142 -99 callgsubr
        </CharString>
        <CharString name="Yhookabove">
          -33 callsubr
          86 157 callsubr
          hstemhm
          227 76 hintmask 11001000
          -92 callgsubr
          hintmask 00111000
          -144 246 -107 callgsubr
        </CharString>
        <CharString name="Ytilde">
          -33 callsubr
          55 93 callgsubr
          227 76 hintmask 11001000
          -92 callgsubr
          hintmask 00010000
          -68 179 -102 callgsubr
        </CharString>
        <CharString name="Z">
          54 callgsubr
          60 76 275 76 vstem
          -78 callsubr
          endchar
        </CharString>
        <CharString name="Zacute">
          -33 callsubr
          86 98 callgsubr
          60 76 275 76 hintmask 11001100
          -78 callsubr
          hintmask 00110000
          -113 726 -107 callsubr
        </CharString>
        <CharString name="Zcaron">
          34 callsubr
          60 76 275 76 vstemhm
          -78 callsubr
          -94 668 -85 callgsubr
        </CharString>
        <CharString name="Zdotaccent">
          34 callsubr
          60 76 76 108 91 76 hintmask 11101000
          -78 callsubr
          hintmask 00010000
          -167 687 rmoveto
          60 callsubr
        </CharString>
        <CharString name="Zdotbelow">
          11 callgsubr
          479 66 hstemhm
          60 76 76 108 91 76 hintmask 01110100
          -78 callsubr
          hintmask 10001000
          -167 -189 rmoveto
          60 callsubr
        </CharString>
        <CharString name="Zeta">
          54 callgsubr
          60 76 275 76 vstem
          -78 callsubr
          endchar
        </CharString>
        <CharString name="a">
          -35 callgsubr
          307 66 48 callgsubr
          hintmask 01111000
          -105 callgsubr
          hintmask 10011000
          -77 callgsubr
          endchar
        </CharString>
        <CharString name="aacute">
          -35 callgsubr
          307 66 72 -21 131 -20 48 callgsubr
          hintmask 01100110
          -105 callgsubr
          hintmask 10000110
          -77 callgsubr
          hintmask 00011000
          24 366 -107 callsubr
        </CharString>
        <CharString name="abreve">
          -35 callgsubr
          307 66 63 69 39 -20 48 callgsubr
          hintmask 01100110
          -105 callgsubr
          hintmask 10000110
          -77 callgsubr
          hintmask 00011000
          33 callgsubr
          endchar
        </CharString>
        <CharString name="abreveacute">
          -35 callgsubr
          307 66 63 69 18 69 103 -20 48 callgsubr
          hintmask 01100011
          -105 callgsubr
          hintmask 10000011
          -77 callgsubr
          hintmask 00011100
          33 callgsubr
          -71 145 -107 callsubr
        </CharString>
        <CharString name="abrevedotbelow">
          -32 callgsubr
          87 66 -61 66 307 66 63 69 39 -20 hstemhm
          48 76 88 108 30 76 hintmask 0011001010000000
          525 33 rmoveto
          33 -28 0 -14 -38 -9 3 4 -10 vhcurveto
          209 vlineto
          83 -65 74 -137 -47 -103 0 -77 -27 19 -22 30 19 27 12 36 2 vhcurveto
          8 1 1 13 2 vhcurveto
          1 11 17 0 12 hhcurveto
          82 43 -37 -55 hvcurveto
          -107 -195 -25 -123 hvcurveto
          hintmask 0100000000000000
          -74 69 -64 101 80 50 30 9 13 vhcurveto
          hintmask 0010000000000000
          -31 21 42 -3 48 hhcurveto
          27 26 0 33 hvcurveto
          -175 110 rmoveto
          -21 0 -23 -39 -19 vhcurveto
          hintmask 0100111010000000
          -77 callgsubr
          33 callgsubr
          hintmask 1000000100000000
          -126 -724 rmoveto
          60 callsubr
        </CharString>
        <CharString name="abrevegrave">
          -35 callgsubr
          307 66 63 69 18 69 48 callgsubr
          hintmask 01100110
          -105 callgsubr
          hintmask 10000110
          -77 callgsubr
          hintmask 00011000
          33 callgsubr
          -72 96 rmoveto
          0 -4 -44 -32 -6 -47 18 10 -26 vhcurveto
          -72 27 rlineto
          -10 4 -20 8 26 vvcurveto
          20 16 18 22 7 1 -1 -5 14 vhcurveto
          129 -50 rlineto
          13 -5 15 -6 -20 vvcurveto
          endchar
        </CharString>
        <CharString name="abrevehookabove">
          -35 callgsubr
          307 66 63 69 0 69 200 -20 48 callgsubr
          hintmask 01100011
          -105 callgsubr
          hintmask 10000011
          -77 callgsubr
          hintmask 00010100
          33 callgsubr
          -80 180 rmoveto
          -1 25 -13 24 -20 14 rrcurveto
          14 -22 -26 5 -26 hhcurveto
          -46 -44 -32 -48 -2 hvcurveto
          -2 vlineto
          -7 3 -8 6 -6 vhcurveto
          1 -1 rlineto
          -6 6 8 -3 8 hhcurveto
          8 7 3 6 6 hvcurveto
          1 1 rlineto
          6 6 3 8 7 vvcurveto
          5 vlineto
          8 3 10 7 16 hhcurveto
          18 13 -2 -6 8 hvcurveto
          4 -3 3 -4 -5 vvcurveto
          -4 -4 rlineto
          -40 -21 -33 -30 -46 vvcurveto
          hintmask 00001000
          -17 vlineto
          -17 13 -13 18 17 13 13 17 vhcurveto
          17 vlineto
          1 14 12 14 28 15 21 11 15 22 1 25 rrcurveto
          endchar
        </CharString>
        <CharString name="abrevetilde">
          -35 callgsubr
          307 66 63 69 -69 71 77 71 -17 71 48 callgsubr
          hintmask 0110000110000000
          525 33 rmoveto
          33 -28 0 -14 -38 -9 3 4 -10 vhcurveto
          209 vlineto
          83 -65 74 -137 -47 -103 0 -77 -27 19 -22 30 19 27 12 36 2 vhcurveto
          8 1 1 13 2 vhcurveto
          1 11 17 0 12 hhcurveto
          82 43 -37 -55 hvcurveto
          -107 -195 -25 -123 hvcurveto
          hintmask 1000000000000000
          24 callgsubr
          hintmask 1000000110000000
          -77 callgsubr
          hintmask 0000100000000000
          96 361 rmoveto
          16 -11 16 -22 -19 -8 -10 -11 -5 vhcurveto
          -3 -8 -2 -5 -42 -3 rrcurveto
          hintmask 0001000000000000
          -2 -23 -17 0 -28 hhcurveto
          hintmask 0000101000000000
          43 callgsubr
          hintmask 0000010000000000
          -14 -15 -26 -24 -23 hhcurveto
          -7 -6 6 11 -11 hvcurveto
          hintmask 0000001000000000
          17 -17 -20 20 -34 hhcurveto
          -21 -25 -8 -25 -33 hvcurveto
          -20 -15 -31 -23 -20 vvcurveto
          hintmask 0000010100000000
          -17 15 -17 19 13 8 8 8 8 vhcurveto
          hintmask 0000001000000000
          14 15 26 24 23 hhcurveto
          7 6 -6 -11 11 hvcurveto
          hintmask 0000010000000000
          -17 17 20 -20 34 hhcurveto
          21 25 8 25 33 hvcurveto
          20 15 31 23 20 vvcurveto
          endchar
        </CharString>
        <CharString name="acaron">
          -35 callgsubr
          307 66 48 callgsubr
          hintmask 01111000
          -105 callgsubr
          hintmask 10011000
          -77 callgsubr
          hintmask 00000000
          50 351 -75 callgsubr
        </CharString>
        <CharString name="acircumflex">
          -35 callgsubr
          307 66 48 callgsubr
          hintmask 01111000
          -105 callgsubr
          hintmask 10011000
          -77 callgsubr
          hintmask 00000000
          50 325 -85 callsubr
          endchar
        </CharString>
        <CharString name="acircumflexacute">
          -35 callgsubr
          307 66 302 -20 -3 callgsubr
          44 329 -24 callgsubr
          157 -107 callsubr
        </CharString>
        <CharString name="acircumflexdotbelow">
          -10 callsubr
          50 325 -85 callsubr
          hintmask 10000100
          -80 -688 rmoveto
          60 callsubr
        </CharString>
        <CharString name="acircumflexgrave">
          -35 callgsubr
          307 66 48 callgsubr
          hintmask 01111000
          -105 callgsubr
          hintmask 10011000
          -77 callgsubr
          hintmask 00000000
          44 329 -87 callgsubr
        </CharString>
        <CharString name="acircumflexhookabove">
          -35 callgsubr
          307 66 381 -20 -3 callgsubr
          44 329 -105 callsubr
          72 192 -107 callgsubr
        </CharString>
        <CharString name="acircumflextilde">
          -35 callgsubr
          307 66 191 71 -17 71 48 callgsubr
          hintmask 01100110
          -105 callgsubr
          hintmask 10000110
          -77 callgsubr
          hintmask 00001000
          44 329 -105 callsubr
          48 175 rmoveto
          17 -15 17 -19 -13 -8 -8 -8 -8 vhcurveto
          hintmask 00010000
          -14 -15 -26 -24 -23 hhcurveto
          -7 -6 6 11 -11 hvcurveto
          hintmask 00001000
          17 -17 -20 20 -34 hhcurveto
          -21 -25 -8 -25 -33 hvcurveto
          -20 -15 -31 -23 -20 vvcurveto
          hintmask 00010100
          -17 15 -17 19 13 8 8 8 8 vhcurveto
          hintmask 00001000
          14 15 26 24 23 hhcurveto
          7 6 -6 -11 11 hvcurveto
          hintmask 00010000
          -17 17 20 -20 34 hhcurveto
          21 25 8 25 33 hvcurveto
          20 15 31 23 20 vvcurveto
          endchar
        </CharString>
        <CharString name="acute">
          531 106 callgsubr
          374 583 -107 callsubr
        </CharString>
        <CharString name="acute.cap">
          143 callgsubr
          588 -107 callsubr
        </CharString>
        <CharString name="acute.dup">
          531 106 callgsubr
          374 583 -107 callsubr
        </CharString>
        <CharString name="acute.ts1">
          531 501 -21 132 -20 hstem
          412 573 rmoveto
          20 -16 19 -21 vhcurveto
          0 -5 0 -3 -1 vhcurveto
          -13 -2 -13 -7 -13 -5 -72 -27 rcurveline
          -24 -10 -36 -5 -29 vvcurveto
          -20 13 -26 23 vhcurveto
          2 hlineto
          14 1 15 9 13 5 35 13 33 14 35 12 rrcurveto
          15 6 18 9 24 vvcurveto
          endchar
        </CharString>
        <CharString name="adblgrave">
          -35 callgsubr
          307 66 48 callgsubr
          hintmask 01111000
          -105 callgsubr
          hintmask 10011000
          -77 callgsubr
          hintmask 00000000
          75 277 -98 callgsubr
        </CharString>
        <CharString name="adieresis">
          -35 callgsubr
          307 66 68 97 hstemhm
          48 76 3 98 81 98 -54 76 hintmask 01101101
          -105 callgsubr
          hintmask 10001001
          -77 callgsubr
          hintmask 00010110
          -125 338 -50 callsubr
        </CharString>
        <CharString name="adotbelow">
          -10 callsubr
          hintmask 10000100
          -30 -363 rmoveto
          60 callsubr
        </CharString>
        <CharString name="ae">
          -47 callsubr
        </CharString>
        <CharString name="ae.dup">
          -47 callsubr
        </CharString>
        <CharString name="aeacute">
          531 -5 65 -65 66 62 65 -2 65 -63 92 callgsubr
          72 98 callgsubr
          30 62 -2 65 -63 63 -5 62 0 62 -41 65 84 65 1 62 hintmask 0110010000000111
          510 108 rmoveto
          17 -13 14 -18 -24 -5 -20 -9 -2 vhcurveto
          -26 -8 -18 -23 -26 hhcurveto
          -35 -52 39 88 -11 hvcurveto
          169 hlineto
          33 10 8 35 141 -58 67 -70 hvcurveto
          hintmask 0001010001001000
          -50 -35 -35 -32 -23 hvcurveto
          32 -19 -35 35 -61 hhcurveto
          -81 -37 -34 -43 -27 19 -22 30 26 22 19 30 6 0 2 -1 2 hvcurveto
          1 6 9 0 6 hhcurveto
          39 37 -26 -66 hvcurveto
          -30 vlineto
          hintmask 1010000010010001
          -153 -6 -51 -61 -61 vvcurveto
          -61 44 -67 76 29 65 10 55 35 vhcurveto
          -24 18 39 -41 57 hhcurveto
          83 34 89 24 hvcurveto
          -63 145 rmoveto
          hintmask 0000110000010110
          -149 hlineto
          70 10 38 50 36 hhcurveto
          25 34 -25 -95 6 hvcurveto
          -213 -67 rmoveto
          -1 -10 0 -14 -10 vvcurveto
          -20 vlineto
          -19 0 -16 -21 -16 vhcurveto
          hintmask 0110000000100000
          -17 -21 -24 -3 -12 hhcurveto
          -42 -21 35 27 hvcurveto
          hintmask 0001000000000000
          29 40 29 102 5 vhcurveto
          hintmask 0000001100000000
          140 397 -107 callsubr
        </CharString>
        <CharString name="agrave">
          -35 callgsubr
          307 66 72 -21 131 -20 48 callgsubr
          hintmask 01100110
          -105 callgsubr
          hintmask 10000110
          -77 callgsubr
          hintmask 00011000
          24 317 -99 callgsubr
        </CharString>
        <CharString name="ahookabove">
          -35 callgsubr
          307 66 23 157 callsubr
          48 callgsubr
          hintmask 01100110
          -105 callgsubr
          hintmask 10000110
          -77 callgsubr
          hintmask 00011000
          16 372 -107 callgsubr
        </CharString>
        <CharString name="amacron">
          -35 callgsubr
          307 66 83 68 -3 callgsubr
          107 339 -89 callsubr
        </CharString>
        <CharString name="ampersand">
          -4 callgsubr
          83 66 160 66 124 66 hstemhm
          102 62 82 62 0 62 60 62 hintmask 11111011
          496 398 124 callsubr
          -83 hlineto
          118 callsubr
          -19 10 -12 21 -2 hvcurveto
          -44 -115 -15 -40 -24 -44 -3 5 -46 70 -22 54 rrcurveto
          104 106 0 54 27 vvcurveto
          66 -27 73 -69 -59 -51 -53 -94 -36 6 -62 22 -62 vhcurveto
          -73 -73 -29 -29 -73 vvcurveto
          -75 47 -74 78 57 42 36 30 26 vhcurveto
          -18 17 44 -48 57 hhcurveto
          71 25 73 42 28 -18 7 -13 -29 -2 -27 -7 hvcurveto
          -25 -2 -11 -25 -21 hhcurveto
          -31 -32 32 22 -18 hvcurveto
          24 37 27 65 7 19 52 134 rcurveline
          28 97 callsubr
          -250 84 rmoveto
          -38 -32 -41 -35 -37 vhcurveto
          -11 40 -4 42 26 vvcurveto
          55 26 26 21 vhcurveto
          hintmask 11000100
          32 3 -66 -7 hvcurveto
          -8 -374 rmoveto
          -10 -7 -34 -42 -44 hhcurveto
          -39 -10 58 28 17 3 25 12 21 hvcurveto
          38 41 24 -47 27 -47 30 -44 rlinecurve
          endchar
        </CharString>
        <CharString name="anglearc">
          531 99 -21 456 -20 hstem
          346 76 vstem
          492 116 rmoveto
          15 -9 13 -12 6 vhcurveto
          -71 35 rlineto
          15 39 7 41 41 vvcurveto
          41 -7 41 -15 39 vhcurveto
          71 35 rlineto
          12 6 9 13 15 vvcurveto
          21 -17 17 -21 -6 -6 -1 -3 -5 vhcurveto
          -71 -36 -5 9 -6 8 -6 8 rlinecurve
          9 -7 -11 6 -12 hhcurveto
          -21 -17 -17 -21 -9 3 -8 5 -6 hvcurveto
          3 -5 3 -4 3 -4 -239 -120 rcurveline
          -12 -6 -9 -13 -15 vvcurveto
          -15 9 -13 12 -6 vhcurveto
          239 -120 -3 -4 -3 -4 -3 -5 rlinecurve
          -5 -6 -3 -8 -9 vvcurveto
          -21 17 -17 21 12 11 6 9 7 vhcurveto
          6 8 6 8 5 9 71 -36 rcurveline
          -3 5 6 -1 6 hhcurveto
          21 17 17 21 hvcurveto
          -146 190 rmoveto
          -29 -5 -30 -9 -27 vhcurveto
          -171 86 171 86 rlineto
          9 -27 5 -30 -29 vvcurveto
          endchar
        </CharString>
        <CharString name="angleleft">
          531 -61 -21 777 -20 hstem
          454 -45 rmoveto
          22 -18 20 -11 17 vhcurveto
          -129 198 -21 30 -17 40 -24 24 rlinecurve
          72 100 63 106 66 103 7 11 10 11 2 14 rrcurveto
          5 vlineto
          22 -19 17 -21 -23 -11 -21 -16 -10 vhcurveto
          -12 -20 -13 -19 -13 -20 -165 -255 rcurveline
          -7 -10 -8 -10 -2 -12 rrcurveto
          -4 vlineto
          -22 21 -26 13 -18 vhcurveto
          184 -284 rlineto
          -19 12 11 -21 25 hhcurveto
          2 hlineto
          12 2 24 7 28 vvcurveto
          endchar
        </CharString>
        <CharString name="angleright">
          531 -61 -21 777 -20 hstem
          380 301 rmoveto
          4 vlineto
          22 -21 26 -13 18 vhcurveto
          -184 284 rlineto
          19 -12 -11 21 -25 hhcurveto
          -2 hlineto
          -12 -2 -24 -7 -28 vvcurveto
          -22 18 -20 11 -17 vhcurveto
          129 -198 21 -30 17 -40 24 -24 rlinecurve
          -72 -100 -63 -106 -66 -103 -7 -11 -10 -11 -2 -14 rrcurveto
          -5 vlineto
          -22 19 -17 21 23 11 21 16 10 vhcurveto
          12 20 13 19 13 20 165 255 rcurveline
          7 10 8 10 2 12 rrcurveto
          endchar
        </CharString>
        <CharString name="aogonek">
          79 callgsubr
          144 66 -61 66 307 66 48 callgsubr
          hintmask 00111100
          525 33 rmoveto
          33 -28 0 -14 -38 -9 3 4 -10 vhcurveto
          209 vlineto
          83 -65 74 -137 -47 -103 0 -77 -27 19 -22 30 19 27 12 36 2 vhcurveto
          8 1 1 13 2 vhcurveto
          1 11 17 0 12 hhcurveto
          82 43 -37 -55 hvcurveto
          -107 -195 -25 -123 hvcurveto
          hintmask 11000000
          -74 69 -64 101 80 50 30 9 13 vhcurveto
          8 -12 12 -8 14 -5 rrcurveto
          -39 -25 -34 -45 65 callsubr
          -18 -26 15 24 hvcurveto
          hintmask 00100000
          43 38 36 53 31 vhcurveto
          27 26 0 33 hvcurveto
          -175 110 rmoveto
          -21 0 -23 -39 -19 vhcurveto
          hintmask 01001100
          -77 callgsubr
          endchar
        </CharString>
        <CharString name="aogonekacute">
          79 callgsubr
          144 66 -61 66 307 66 72 -21 131 -20 48 callgsubr
          hintmask 00110011
          525 33 rmoveto
          33 -28 0 -14 -38 -9 3 4 -10 vhcurveto
          209 vlineto
          83 -65 74 -137 -47 -103 0 -77 -27 19 -22 30 19 27 12 36 2 vhcurveto
          8 1 1 13 2 vhcurveto
          1 11 17 0 12 hhcurveto
          82 43 -37 -55 hvcurveto
          -107 -195 -25 -123 hvcurveto
          hintmask 11000000
          -74 69 -64 101 80 50 30 9 13 vhcurveto
          8 -12 12 -8 14 -5 rrcurveto
          -39 -25 -34 -45 65 callsubr
          -18 -26 15 24 hvcurveto
          hintmask 00100000
          43 38 36 53 31 vhcurveto
          27 26 0 33 hvcurveto
          -175 110 rmoveto
          -21 0 -23 -39 -19 vhcurveto
          hintmask 01000011
          -77 callgsubr
          hintmask 00001100
          24 366 -107 callsubr
        </CharString>
        <CharString name="aring">
          -35 callgsubr
          307 66 56 38 68 38 hstemhm
          48 76 44 50 96 50 -14 76 hintmask 0110010010000000
          525 33 rmoveto
          33 -28 0 -14 -38 -9 3 4 -10 vhcurveto
          209 vlineto
          83 -65 74 -137 -47 -103 0 -77 -27 19 -22 30 19 27 12 36 2 vhcurveto
          8 1 1 13 2 vhcurveto
          1 11 17 0 12 hhcurveto
          82 43 -37 -55 hvcurveto
          -107 -195 -25 -123 hvcurveto
          hintmask 1000001000000000
          24 callgsubr
          hintmask 1000010010000000
          -77 callgsubr
          hintmask 0001101100000000
          -36 350 -48 callsubr
        </CharString>
        <CharString name="aringacute">
          -35 callgsubr
          307 66 56 110 callgsubr
          48 76 44 50 96 50 -14 76 hintmask 0110000100100000
          525 33 rmoveto
          33 -28 0 -14 -38 -9 3 4 -10 vhcurveto
          209 vlineto
          83 -65 74 -137 -47 -103 0 -77 -27 19 -22 30 19 27 12 36 2 vhcurveto
          8 1 1 13 2 vhcurveto
          1 11 17 0 12 hhcurveto
          82 43 -37 -55 hvcurveto
          -107 -195 -25 -123 hvcurveto
          hintmask 1000000010000000
          24 callgsubr
          hintmask 1000000100100000
          -77 callgsubr
          hintmask 0001101011000000
          -36 350 -74 callgsubr
          11 9 callsubr
          hintmask 0000010000000000
          72 27 rlineto
          10 4 20 8 26 vvcurveto
          endchar
        </CharString>
        <CharString name="asciicircum">
          531 440 543 rmoveto
          -163 79 -7 3 -9 0 -7 -3 rlinecurve
          -163 -79 -35 -17 24 -52 34 15 rlinecurve
          151 65 151 -65 35 -15 24 52 -35 17 rlinecurve
          endchar
        </CharString>
        <CharString name="asciitilde">
          531 442 334 15 callgsubr
        </CharString>
        <CharString name="asciitilde.low">
          531 442 91 15 callgsubr
        </CharString>
        <CharString name="asterisk">
          531 111 -21 431 -20 hstem
          229 72 vstem
          461 216 rmoveto
          15 -7 9 -12 8 vhcurveto
          -110 57 103 55 rlineto
          12 6 14 8 21 vvcurveto
          26 -21 11 -15 -9 -1 -1 -13 -22 vhcurveto
          -95 -56 3 116 rlineto
          26 -12 17 -24 -21 -15 -13 -30 vhcurveto
          3 -116 -102 60 rlineto
          8 -14 -3 2 -8 hhcurveto
          -15 -21 -11 -26 -21 12 -6 13 -7 hvcurveto
          104 -55 -103 -55 rlineto
          -12 -6 -14 -8 -21 vvcurveto
          -26 21 -11 15 9 1 1 13 22 vhcurveto
          95 56 -3 -116 rlineto
          -26 12 -17 24 21 15 13 30 vhcurveto
          -3 116 92 -55 rlineto
          -15 26 2 0 7 hhcurveto
          15 21 11 26 hvcurveto
          endchar
        </CharString>
        <CharString name="asterisk.math">
          531 114 -21 428 -20 hstemhm
          196 69 -36 69 -66 69 -36 69 hintmask 00000100
          461 218 rmoveto
          28 -27 8 -21 11 vhcurveto
          -26 14 -26 15 -27 12 rrcurveto
          2 vlineto
          27 12 26 15 26 14 rrcurveto
          21 11 27 8 28 vvcurveto
          18 -13 18 -20 1 vhcurveto
          -2 hlineto
          -17 -14 -10 -9 -13 hvcurveto
          hintmask 00010000
          -84 -50 rlineto
          hintmask 00001000
          33 3 34 33 vvcurveto
          17 vlineto
          hintmask 01000100
          24 -14 16 -22 vhcurveto
          hintmask 00010000
          -18 -18 -12 -23 hvcurveto
          -8 vlineto
          -11 0 -10 1 -11 vhcurveto
          -27 vlineto
          hintmask 00001000
          1 -18 1 -19 -18 vvcurveto
          -84 50 rlineto
          9 -13 -14 10 -17 hhcurveto
          -2 hlineto
          -20 -1 -13 -18 -18 vvcurveto
          -28 27 -8 21 -11 vhcurveto
          hintmask 00100000
          26 -14 26 -15 27 -12 rrcurveto
          -2 vlineto
          -27 -12 -26 -15 -26 -14 rrcurveto
          -21 -11 -27 -8 -28 vvcurveto
          -18 13 -18 20 -1 vhcurveto
          2 hlineto
          17 14 10 9 13 hvcurveto
          hintmask 00001000
          84 50 rlineto
          -18 -1 -19 -1 -18 vhcurveto
          -27 vlineto
          hintmask 00010000
          -1 -11 0 -10 -11 vvcurveto
          -8 vlineto
          hintmask 10000100
          -23 18 -12 18 vhcurveto
          hintmask 00001000
          22 14 16 24 hvcurveto
          17 vlineto
          hintmask 00010000
          33 -3 34 33 vvcurveto
          84 -50 rlineto
          -9 13 14 -10 17 hhcurveto
          2 hlineto
          20 1 13 18 18 vvcurveto
          endchar
        </CharString>
        <CharString name="at">
          -39 callsubr
          45 66 267 66 45 66 hstem
          44 62 84 62 172 62 vstem
          486 83 rmoveto
          31 -31 0 -10 -21 -3 -2 -11 -11 vhcurveto
          -30 -33 -35 -10 -33 hhcurveto
          -106 -97 104 140 146 102 99 100 43 32 -26 -35 14 hvcurveto
          7 -12 -22 9 -25 hhcurveto
          -79 -69 -83 -117 -113 67 -86 81 48 100 40 175 64 0 231 -178 -139 -125 -133 -177 -177 122 -134 144 89 87 56 32 hvcurveto
          -62 223 rmoveto
          -80 -44 -54 -42 -43 -43 56 77 80 44 54 42 43 43 -56 -77 vhcurveto
          endchar
        </CharString>
        <CharString name="atilde">
          -35 callgsubr
          307 66 54 71 -17 71 48 callgsubr
          hintmask 01100110
          -105 callgsubr
          hintmask 10000110
          -77 callgsubr
          hintmask 00001000
          92 367 rmoveto
          17 -15 17 -19 -13 -8 -8 -8 -8 vhcurveto
          hintmask 00010000
          -14 -15 -26 -24 -23 hhcurveto
          -7 -6 6 11 -11 hvcurveto
          hintmask 00001000
          17 -17 -20 20 -34 hhcurveto
          -21 -25 -8 -25 -33 hvcurveto
          -20 -15 -31 -23 -20 vvcurveto
          hintmask 00010100
          -17 15 -17 19 13 8 8 8 8 vhcurveto
          hintmask 00001000
          14 15 26 24 23 hhcurveto
          7 6 -6 -11 11 hvcurveto
          hintmask 00010000
          -17 17 20 -20 34 hhcurveto
          21 25 8 25 33 hvcurveto
          20 15 31 23 20 vvcurveto
          endchar
        </CharString>
        <CharString name="b">
          531 -5 37 callgsubr
          -502 hlineto
          -18 0 -25 38 38 0 24 18 vhcurveto
          22 callgsubr
          81 callsubr
        </CharString>
        <CharString name="backslash">
          62 callsubr
          59 412 vstem
          471 -44 rmoveto
          5 -2 8 -5 11 vhcurveto
          -329 686 rlineto
          11 -5 -8 17 -25 hhcurveto
          -18 -20 -15 -24 -5 2 -8 5 -11 hvcurveto
          329 -686 rlineto
          -11 5 8 -17 25 hhcurveto
          18 20 15 24 hvcurveto
          endchar
        </CharString>
        <CharString name="baht">
          531 -66 66 74 callgsubr
          0 66 hstemhm
          90 76 59 66 2 66 31 76 -55 76 hintmask 0000101110000000
          487 168 rmoveto
          75 -56 61 -72 16 vhcurveto
          61 21 46 51 63 vvcurveto
          75 -63 81 -110 vhcurveto
          -2 66 hlineto
          128 callsubr
          -19 -14 -15 -18 vhcurveto
          -66 -159 vlineto
          -14 -30 0 -33 hvcurveto
          hintmask 0101011000000000
          -33 30 0 14 vhcurveto
          24 -479 -24 -45 callsubr
          159 hlineto
          hintmask 1001001001000000
          -66 vlineto
          -18 14 -15 19 140 callgsubr
          vhcurveto
          66 22 vlineto
          114 60 90 78 hvcurveto
          -97 286 rmoveto
          -41 -31 -53 -68 -8 vhcurveto
          193 vlineto
          hintmask 0111011010000000
          80 -1 19 -61 -29 vvcurveto
          -165 -103 rmoveto
          -59 194 59 hlineto
          186 -375 rmoveto
          -45 -34 -59 -86 vhcurveto
          219 5 vlineto
          hintmask 0110011001000000
          101 14 -89 -26 hvcurveto
          -186 -104 rmoveto
          -59 219 59 hlineto
          endchar
        </CharString>
        <CharString name="bar">
          62 callsubr
          227 77 vstem
          304 -33 rmoveto
          43 callsubr
          endchar
        </CharString>
        <CharString name="bigcircle">
          84 callsubr
          449 41 vstem
          -57 callsubr
          endchar
        </CharString>
        <CharString name="blanksymbol">
          -39 callsubr
          309 66 109 66 hstem
          95 76 249 76 vstem
          44 callsubr
          57 vlineto
          114 95 rlineto
          8 6 4 9 10 vvcurveto
          128 callsubr
          -8 -7 -3 -4 -6 vhcurveto
          -72 -60 rlineto
          34 -81 callgsubr
          -74 hlineto
          -72 -60 rlineto
          -7 -6 -5 -9 -10 vvcurveto
          -18 15 -15 18 8 7 3 4 6 vhcurveto
          30 25 rlineto
          -342 vlineto
          -18 0 -25 38 38 0 24 18 vhcurveto
          22 callgsubr
          81 callsubr
        </CharString>
        <CharString name="braceleft">
          108 callgsubr
          -50 rmoveto
          32 -27 1 -14 vhcurveto
          -130 2 0 39 24 vvcurveto
          159 vlineto
          17 0 53 -54 28 vhcurveto
          54 30 0 52 17 vvcurveto
          159 vlineto
          24 0 39 131 2 vhcurveto
          12 28 23 callgsubr
          -16 -14 -72 0 -24 -52 hvcurveto
          -65 -30 0 -53 -20 vvcurveto
          -159 vlineto
          -22 0 -17 -35 -15 vhcurveto
          -10 -24 -37 -5 -30 hhcurveto
          -16 -29 0 -34 -33 30 0 12 hvcurveto
          129 -1 0 -45 -23 vvcurveto
          -159 vlineto
          -20 0 -52 64 -30 vhcurveto
          -25 52 74 0 13 hhcurveto
          16 28 0 33 hvcurveto
          endchar
        </CharString>
        <CharString name="braceright">
          108 callgsubr
          305 rmoveto
          34 -29 0 -14 -14 -43 1 13 -34 vhcurveto
          -37 15 0 18 22 vvcurveto
          159 vlineto
          20 0 52 -64 30 vhcurveto
          25 -52 -75 0 -11 hhcurveto
          -16 -29 0 -33 -32 27 -1 14 hvcurveto
          130 -2 0 -39 -24 vvcurveto
          -159 vlineto
          -17 0 -53 54 -28 vhcurveto
          -54 -30 0 -52 -17 vvcurveto
          -159 vlineto
          -24 0 -39 -131 -2 vhcurveto
          -12 -28 0 -33 -33 29 0 16 30 70 3 25 46 hvcurveto
          56 31 0 48 20 vvcurveto
          159 vlineto
          22 0 17 34 15 vhcurveto
          9 23 37 6 31 hhcurveto
          16 30 0 33 hvcurveto
          endchar
        </CharString>
        <CharString name="bracketleft">
          531 -83 66 645 66 hstem
          219 76 vstem
          489 -50 124 callsubr
          -151 645 151 hlineto
          15 28 23 callgsubr
          -15 hvcurveto
          -184 hlineto
          -33 -10 -8 -35 hvcurveto
          -691 vlineto
          -34 10 -9 33 vhcurveto
          184 97 callsubr
          endchar
        </CharString>
        <CharString name="bracketright">
          531 -83 66 645 66 hstem
          235 76 vstem
          311 -40 rmoveto
          691 -26 callgsubr
          -184 -6 callsubr
          151 -645 -151 -6 callsubr
          184 103 callgsubr
        </CharString>
        <CharString name="breve">
          150 callgsubr
          69 39 -20 hstem
          446 578 -99 callsubr
        </CharString>
        <CharString name="breve.cap">
          149 callgsubr
          39 -20 hstem
          446 571 -99 callsubr
        </CharString>
        <CharString name="breve.ts1">
          150 callgsubr
          71 38 -20 21 -20 hstemhm
          hintmask 10100000
          467 578 rmoveto
          17 -10 17 -24 -31 7 -27 -5 -26 vhcurveto
          -6 -30 -29 -1 -30 hhcurveto
          -63 hlineto
          -31 -56 0 12 -12 hvcurveto
          -5 4 -1 6 -3 5 rrcurveto
          8 -6 -10 4 -10 hhcurveto
          hintmask 11000000
          -3 -2 0 -1 -3 hvcurveto
          -17 -9 -20 -13 -68 103 -8 61 hvcurveto
          18 15 1 7 hhcurveto
          30 hlineto
          56 114 0 75 hvcurveto
          endchar
        </CharString>
        <CharString name="brokenbar">
          62 callsubr
          227 77 vstem
          304 373 rmoveto
          271 vlineto
          11 0 39 -38 -39 0 -38 -12 vhcurveto
          -271 vlineto
          -19 18 -14 21 20 18 14 19 vhcurveto
          -406 vmoveto
          271 vlineto
          19 -18 14 -20 -21 -18 -14 -19 vhcurveto
          -271 vlineto
          -11 0 -39 38 39 0 38 12 vhcurveto
          endchar
        </CharString>
        <CharString name="bullet">
          531 78 294 hstem
          119 294 86 callgsubr
          endchar
        </CharString>
        <CharString name="c">
          16 callsubr
          hstem
          72 76 214 97 vstem
          -66 callsubr
          -120 96 -101 128 142 32 96 17 hvcurveto
          endchar
        </CharString>
        <CharString name="cacute">
          130 callgsubr
          72 76 214 97 hintmask 11001100
          -66 callsubr
          -120 96 -101 128 142 32 96 17 hvcurveto
          hintmask 00110100
          -70 475 -107 callsubr
        </CharString>
        <CharString name="caron">
          531 400 568 -75 callgsubr
        </CharString>
        <CharString name="caron.cap">
          531 393 530 -85 callgsubr
        </CharString>
        <CharString name="caron.ts1">
          531 494 -21 145 -20 21 -20 hstemhm
          hintmask 00100000
          455 574 rmoveto
          18 -13 27 -22 -14 -13 -9 -6 -12 vhcurveto
          -81 -39 rlineto
          -6 -10 -17 -10 -8 hhcurveto
          -9 -15 11 4 -10 hvcurveto
          -82 40 rlineto
          hintmask 11000000
          5 -11 -14 9 -13 hhcurveto
          -4 hlineto
          -20 -3 -13 -25 -18 vvcurveto
          -16 12 -7 16 -8 vhcurveto
          25 -11 91 -40 rlineto
          -6 15 16 -11 17 hhcurveto
          4 hlineto
          7 1 7 4 7 3 33 15 rcurveline
          81 35 rlineto
          20 9 30 7 27 vvcurveto
          endchar
        </CharString>
        <CharString name="ccaron">
          16 callsubr
          hstemhm
          72 76 214 97 vstemhm
          -66 callsubr
          -120 96 -101 128 142 32 96 17 hvcurveto
          -43 460 -75 callgsubr
        </CharString>
        <CharString name="ccedilla">
          531 -206 66 135 66 312 66 hstemhm
          72 76 83 76 -34 76 13 97 -86 76 -76 97 hintmask 0111101000000000
          -66 callsubr
          hvcurveto
          hintmask 1000010100000000
          -113 85 -96 116 -11 vhcurveto
          -16 vlineto
          -20 0 -23 35 -2 vhcurveto
          40 -2 25 -16 -19 vvcurveto
          -38 -109 0 -25 vhcurveto
          -22 -12 callgsubr
          hvcurveto
          hintmask 1000100100000000
          -33 23 0 34 81 137 3 101 vhcurveto
          hintmask 0000010010000000
          118 callgsubr
          vhcurveto
          3 vlineto
          97 20 24 73 15 vvcurveto
          endchar
        </CharString>
        <CharString name="ccircumflex">
          16 callsubr
          hstemhm
          72 76 214 97 vstemhm
          -66 callsubr
          -120 96 -101 128 142 32 96 17 hvcurveto
          -44 434 -85 callsubr
          endchar
        </CharString>
        <CharString name="cdotaccent">
          16 callsubr
          63 108 hstemhm
          72 76 90 108 16 97 hintmask 11010100
          -66 callsubr
          -120 96 -101 128 142 32 96 17 hvcurveto
          hintmask 00101000
          -124 448 rmoveto
          60 callsubr
        </CharString>
        <CharString name="cedilla">
          21 callsubr
        </CharString>
        <CharString name="cedilla.dup">
          21 callsubr
        </CharString>
        <CharString name="cent">
          531 373 66 hstemhm
          72 76 111 66 -33 66 4 97 hintmask 10100000
          470 108 rmoveto
          22 -17 9 -21 -14 -14 0 -23 -9 vhcurveto
          -14 -34 -27 -15 -29 -4 rrcurveto
          310 vlineto
          hintmask 00011000
          18 -1 11 -1 4 -1 rrcurveto
          3 -1 1 -1 -9 vvcurveto
          -29 2 21 -17 25 hhcurveto
          30 19 22 27 hvcurveto
          hintmask 10100000
          69 -83 7 -51 1 vhcurveto
          58 vlineto
          hintmask 00010000
          128 callsubr
          vhcurveto
          hintmask 01100000
          -18 -15 -15 -18 hvcurveto
          -62 vlineto
          -139 -23 -48 -119 -77 vvcurveto
          -108 78 -93 109 -17 vhcurveto
          -64 vlineto
          hintmask 00010000
          -18 15 -15 18 vhcurveto
          hintmask 01100000
          140 callgsubr
          hvcurveto
          62 vlineto
          117 13 28 83 16 vvcurveto
          -211 -41 rmoveto
          -63 18 -48 59 72 vvcurveto
          44 24 84 87 23 vhcurveto
          endchar
        </CharString>
        <CharString name="cent.oldstyle">
          -39 callsubr
          310 66 -65 66 0 66 hstemhm
          72 76 0 97 15 97 -61 66 0 97 hintmask 1010000100000000
          470 108 rmoveto
          22 -17 9 -21 -14 -14 0 -23 -9 vhcurveto
          -44 -18 -40 -11 -36 hhcurveto
          -9 -9 1 1 -8 hvcurveto
          68 309 rlineto
          -1 8 5 -1 2 hhcurveto
          3 -1 1 -1 -9 vvcurveto
          -29 2 21 -17 25 hhcurveto
          hintmask 0101101010000000
          30 19 22 27 56 -54 15 -48 4 hvcurveto
          12 52 rlineto
          21 5 -16 20 -21 hhcurveto
          -16 -13 -12 -14 -3 hvcurveto
          -15 -66 rlineto
          -163 -9 -55 -131 -82 vvcurveto
          -86 50 -77 75 -36 vhcurveto
          -17 -76 rlineto
          -20 -4 15 -20 21 hhcurveto
          hintmask 0000011000000000
          16 13 11 15 4 hvcurveto
          15 71 rlineto
          hintmask 1100100100000000
          -2 12 12 -1 12 hhcurveto
          142 32 96 17 hvcurveto
          -195 263 rmoveto
          -62 -282 rlineto
          -39 28 -26 46 53 vvcurveto
          46 27 92 100 17 vhcurveto
          endchar
        </CharString>
        <CharString name="centigrade">
          531 -9 66 499 66 1 -20 hstemhm
          1 123 32 77 112 77 -75 77 -2 77 hintmask 00000001
          499 172 rmoveto
          27 -19 7 -20 -21 -17 -6 -34 vhcurveto
          hintmask 10001010
          -31 -3 -17 -78 -55 hhcurveto
          -50 -34 71 50 -13 hvcurveto
          -12 40 -5 42 42 vvcurveto
          78 14 97 53 56 vhcurveto
          hintmask 01000100
          12 12 15 11 18 hhcurveto
          46 21 -60 -43 7 hvcurveto
          hintmask 00000010
          2 -11 -1 -13 4 -11 rrcurveto
          -17 6 16 -3 16 hhcurveto
          hintmask 00100001
          31 6 20 19 hvcurveto
          146 vlineto
          23 -11 17 -23 -20 -10 -16 -17 -7 vhcurveto
          hintmask 11011001
          21 -23 -34 11 -30 hhcurveto
          -147 -38 -217 -103 -123 51 -180 126 -8 hvcurveto
          7 hlineto
          98 61 92 89 hvcurveto
          -375 377 rmoveto
          36 -26 27 -43 vhcurveto
          -32 -8 -22 -21 -33 vvcurveto
          -36 26 -27 43 vhcurveto
          32 8 22 21 33 vvcurveto
          -49 1 rmoveto
          -7 -6 -6 -7 vhcurveto
          -1 hlineto
          -5 -6 5 6 hvcurveto
          1 vlineto
          7 6 6 7 vhcurveto
          1 hlineto
          5 6 -5 -7 hvcurveto
          endchar
        </CharString>
        <CharString name="circumflex">
          531 400 542 -85 callsubr
          endchar
        </CharString>
        <CharString name="circumflex.cap">
          531 394 543 -105 callsubr
          endchar
        </CharString>
        <CharString name="circumflex.dup">
          531 400 542 -85 callsubr
          endchar
        </CharString>
        <CharString name="colon">
          -29 callgsubr
          135 161 154 callsubr
          363 40 callgsubr
          -296 vmoveto
          60 callgsubr
        </CharString>
        <CharString name="colonmonetary">
          531 555 66 hstemhm
          41 76 142 66 87 77 -76 76 hintmask 00101000
          489 169 rmoveto
          35 -28 0 -10 -14 -22 -4 -23 -2 vhcurveto
          -5 -77 -47 -28 -36 -10 rrcurveto
          486 vlineto
          hintmask 11110000
          42 -15 35 -41 10 -58 rrcurveto
          -20 3 3 -16 33 hhcurveto
          38 0 24 19 hvcurveto
          137 69 callgsubr
          -21 -4 -8 -36 -20 vhcurveto
          -29 21 -29 13 -28 6 rrcurveto
          60 vlineto
          128 callsubr
          -18 -15 -15 -18 vhcurveto
          -58 vlineto
          -121 -16 -97 -130 -167 vvcurveto
          -167 96 -131 122 -16 vhcurveto
          -58 vlineto
          -18 15 -15 18 140 callgsubr
          vhcurveto
          60 vlineto
          94 17 70 75 83 vvcurveto
          -230 -109 rmoveto
          -79 20 -63 99 126 vvcurveto
          130 66 97 76 19 vhcurveto
          endchar
        </CharString>
        <CharString name="comma">
          531 -118 -21 139 148 callgsubr
          156 vstem
          354 31 rmoveto
          61 -40 43 -48 -43 -25 -32 -36 -32 23 -35 45 10 3 1 1 5 vhcurveto
          -13 -38 -24 -25 -39 -13 rrcurveto
          -9 -3 -19 -6 -22 vvcurveto
          -17 16 -17 18 34 106 55 115 vhcurveto
          endchar
        </CharString>
        <CharString name="copyleft">
          84 callsubr
          126 41 156 41 85 41 vstem
          -57 callsubr
          -85 hmoveto
          95 -59 72 -70 -22 -23 -6 -17 -23 vhcurveto
          19 -11 -2 4 -11 hhcurveto
          -17 0 -14 -8 hvcurveto
          -73 vlineto
          -10 0 -13 20 17 2 8 11 1 vhcurveto
          40 7 29 24 30 hhcurveto
          47 44 -55 -78 -75 -42 -57 -49 -9 -53 4 60 -4 hvcurveto
          13 -1 -12 2 -7 hhcurveto
          -6 -14 0 -19 -50 47 -45 61 71 59 73 95 hvcurveto
          endchar
        </CharString>
        <CharString name="copyright">
          84 callsubr
          283 41 125 41 vstem
          -57 callsubr
          -125 -73 rmoveto
          19 -15 0 -6 -7 -12 -2 -13 -1 vhcurveto
          -60 -3 -54 -4 -9 hhcurveto
          -49 -42 57 75 78 44 55 47 31 28 -24 -40 7 hvcurveto
          -11 1 2 -8 17 hhcurveto
          21 0 13 10 hvcurveto
          72 vlineto
          8 0 15 -18 -11 -2 -4 -19 -11 vhcurveto
          17 -23 -22 6 -22 hhcurveto
          -70 -59 -72 -95 -95 58 -73 71 61 48 45 50 hvcurveto
          endchar
        </CharString>
        <CharString name="currency">
          531 150 76 -73 -20 253 76 18 -21 hstemhm
          110 76 159 76 hintmask 10101100
          426 145 rmoveto
          27 27 -26 27 -9 9 -19 18 rcurveline
          14 24 8 27 29 vvcurveto
          29 -8 27 -14 24 vhcurveto
          18 17 8 8 28 28 -27 27 rlinecurve
          -28 27 -27 -27 -8 -8 -18 -18 rcurveline
          14 -23 -27 8 -29 hhcurveto
          -30 -27 -8 -14 -23 hvcurveto
          hintmask 01011000
          -19 19 -8 7 -27 28 -27 -27 rlinecurve
          -28 -28 27 -26 9 -9 19 -19 rcurveline
          -14 -23 -8 -27 -29 vvcurveto
          -29 8 -27 14 -23 vhcurveto
          -19 -19 -8 -8 -28 -28 27 -27 rlinecurve
          28 -27 27 27 8 8 19 19 rcurveline
          hintmask 10000100
          -14 23 28 -8 29 hhcurveto
          29 27 8 14 23 hvcurveto
          hintmask 01000000
          19 -19 7 -8 28 -27 27 27 rlinecurve
          -81 161 rmoveto
          hintmask 10101100
          -44 -35 -36 -44 -44 -36 36 44 44 36 36 44 44 35 -36 -44 vhcurveto
          endchar
        </CharString>
        <CharString name="cwm">
          0 endchar
        </CharString>
        <CharString name="cwmascender">
          0 endchar
        </CharString>
        <CharString name="cwmcapital">
          0 endchar
        </CharString>
        <CharString name="d">
          2 callsubr
          endchar
        </CharString>
        <CharString name="dagger">
          531 393 75 0 75 161 -20 hstemhm
          223 84 hintmask 01110000
          463 430 rmoveto
          114 callsubr
          17 0 23 12 60 rrcurveto
          5 24 10 58 34 vvcurveto
          8 0 37 -42 -42 0 -36 -9 -33 9 -50 5 -31 vhcurveto
          13 -66 0 -14 1 -22 113 callsubr
          hvcurveto
          hintmask 10010000
          -8 5 -30 41 17 27 4 8 27 vhcurveto
          30 7 20 4 18 2 -1 -16 -1 -17 -9 -36 rrcurveto
          -17 -70 0 -7 -53 vvcurveto
          -120 9 -163 14 -129 vhcurveto
          -15 1 2 -7 15 hhcurveto
          8 8 1 12 2 hvcurveto
          3 14 22 209 198 vvcurveto
          49 0 11 -15 62 vhcurveto
          -11 45 0 10 -2 22 102 callgsubr
        </CharString>
        <CharString name="daggerdbl">
          531 -15 75 380 74 190 -20 hstem
          195 84 -56 84 -56 84 cntrmask 00011100
          463 477 rmoveto
          20 -16 17 -26 -27 -28 -6 -8 -30 vhcurveto
          -31 -7 -7 -1 -19 -2 1 20 1 11 10 41 rrcurveto
          6 29 10 42 28 152 callgsubr
          9 -40 8 -35 vhcurveto
          9 -36 1 -12 1 -19 -18 2 -8 1 -30 7 rrcurveto
          9 -35 -25 5 -26 hhcurveto
          -26 -17 -17 -20 -16 8 -21 40 12 15 0 14 52 hvcurveto
          31 7 9 1 18 2 -1 -20 -1 -11 -11 -41 rrcurveto
          -5 -29 -10 -42 -28 156 callgsubr
          -9 40 -8 35 vhcurveto
          -9 36 -1 12 -1 19 19 -2 7 -1 30 -7 rrcurveto
          -13 50 14 -1 17 hhcurveto
          36 11 18 19 hvcurveto
          -455 vmoveto
          114 callsubr
          21 1 10 10 41 rrcurveto
          7 31 9 41 27 152 callgsubr
          10 -42 7 -33 vhcurveto
          9 -36 1 -12 1 -19 113 callsubr
          -8 5 -30 41 17 27 4 8 27 hvcurveto
          30 7 20 4 18 2 -1 -21 -1 -10 -11 -41 rrcurveto
          -6 -31 -9 -41 -27 156 callgsubr
          -10 42 -7 33 vhcurveto
          -9 36 -1 12 -1 19 102 callgsubr
        </CharString>
        <CharString name="dblbracketleft">
          531 -82 77 623 77 hstem
          143 77 88 77 vstem
          501 -44 rmoveto
          19 -5 20 -31 vhcurveto
          -80 623 80 hlineto
          31 5 20 19 20 -7 18 -29 hvcurveto
          -287 hlineto
          -32 -3 -22 -19 hvcurveto
          -697 vlineto
          -23 8 -16 34 vhcurveto
          280 hlineto
          29 7 18 20 hvcurveto
          -193 39 rmoveto
          -88 623 88 hlineto
          endchar
        </CharString>
        <CharString name="dblbracketright">
          531 -82 77 623 77 hstem
          145 77 88 77 vstem
          387 -41 rmoveto
          697 vlineto
          23 -8 16 -34 vhcurveto
          -279 hlineto
          -31 -5 -20 -19 -20 7 -18 29 hvcurveto
          79 -623 -79 hlineto
          -29 -7 -18 -20 -19 5 -20 31 hvcurveto
          286 hlineto
          32 3 22 19 hvcurveto
          -77 36 rmoveto
          -88 623 88 hlineto
          endchar
        </CharString>
        <CharString name="dblgrave.ts1">
          129 callgsubr
          241 525 rmoveto
          20 -18 8 -13 10 vhcurveto
          -47 32 rlineto
          58 callsubr
          177 hmoveto
          20 -18 8 -13 10 vhcurveto
          -47 32 rlineto
          hintmask 00100000
          58 callsubr
          endchar
        </CharString>
        <CharString name="dblverticalbar">
          62 callsubr
          190 -33 rmoveto
          43 callsubr
          228 hmoveto
          43 callsubr
          endchar
        </CharString>
        <CharString name="dcaron">
          -35 callgsubr
          304 66 75 100 -66 66 hstemhm
          34 76 249 76 hintmask 01101110
          -7 callsubr
          hintmask 10000010
          13 callsubr
          hintmask 10101110
          33 callsubr
          246 269 rmoveto
          46 -30 32 -36 -32 -19 -24 -27 -24 17 -26 34 vhcurveto
          hintmask 00010000
          7 3 1 3 hhcurveto
          -9 -28 -18 -19 -30 -10 rrcurveto
          -6 -2 -15 -4 -17 vvcurveto
          -13 12 -12 14 25 80 41 86 vhcurveto
          endchar
        </CharString>
        <CharString name="dcroat">
          -35 callgsubr
          304 66 19 66 24 66 hstemhm
          34 76 249 76 hintmask 01111110
          -17 callgsubr
          389 46 hlineto
          140 callgsubr
          128 callsubr
          hvcurveto
          -46 47 38 callsubr
          -74 -103 callsubr
          41 -24 -147 85 callgsubr
          147 -60 hlineto
          36 -46 -42 5 -27 hhcurveto
          -111 -99 -94 -127 hvcurveto
          hintmask 10000010
          13 callsubr
          hintmask 10100110
          33 callsubr
          endchar
        </CharString>
        <CharString name="ddotbelow">
          -32 callgsubr
          87 66 -61 66 304 66 109 66 hstemhm
          34 76 102 108 39 76 hintmask 00111101
          -7 callsubr
          hintmask 01000001
          -122 91 -98 110 53 42 24 28 29 vhcurveto
          hintmask 00100000
          -28 0 -19 43 vhcurveto
          74 -21 callgsubr
          -160 164 rmoveto
          hintmask 01010101
          33 callsubr
          hintmask 10000010
          -39 -410 rmoveto
          60 callsubr
        </CharString>
        <CharString name="degree">
          531 316 76 143 76 hstem
          118 76 143 76 vstem
          413 464 rmoveto
          81 -66 66 -81 -82 -66 -66 -81 -82 66 -66 82 81 66 66 82 vhcurveto
          -76 hmoveto
          -40 -32 -32 -39 -40 -32 32 40 39 32 32 40 39 32 -32 -39 vhcurveto
          endchar
        </CharString>
        <CharString name="diameter">
          531 88 76 284 76 hstem
          47 76 284 76 vstem
          492 495 rmoveto
          21 -17 17 -21 -11 -9 -4 -7 -7 vhcurveto
          -37 -37 rlineto
          24 -35 -43 15 -47 hhcurveto
          -120 -98 -98 -120 -47 15 -43 25 -35 hvcurveto
          -38 -38 rlineto
          -7 -7 -4 -10 -10 vvcurveto
          -21 17 -17 21 11 9 4 7 7 vhcurveto
          38 38 rlineto
          -25 35 43 -14 46 hhcurveto
          120 98 98 120 46 -15 44 -24 35 hvcurveto
          37 37 rlineto
          7 7 4 10 10 vvcurveto
          -85 -189 rmoveto
          -78 -64 -64 -78 -25 -24 7 11 -20 vhcurveto
          193 194 rlineto
          11 -21 7 -24 -25 vvcurveto
          -72 124 rmoveto
          -193 -194 rlineto
          -12 20 -7 24 26 vvcurveto
          78 64 64 78 25 24 -7 -11 21 vhcurveto
          endchar
        </CharString>
        <CharString name="died">
          531 4 -21 310 70 186 -20 hstem
          226 78 vstem
          502 327 rmoveto
          25 -12 12 -31 vhcurveto
          -13 -12 -1 -13 hhcurveto
          -117 143 hlineto
          26 -9 17 -28 -25 -16 -6 -39 vhcurveto
          -141 -117 vlineto
          -8 -8 1 -8 hhcurveto
          -17 hlineto
          -19 -21 -5 -30 -24 12 -13 31 hvcurveto
          13 12 1 13 hhcurveto
          117 -267 hlineto
          -26 6 -17 33 35 4 20 24 vhcurveto
          266 117 vlineto
          8 8 -1 8 hhcurveto
          17 hlineto
          19 21 5 30 hvcurveto
          endchar
        </CharString>
        <CharString name="dieresis">
          531 507 97 hstem
          127 98 81 98 vstem
          -22 callgsubr
          endchar
        </CharString>
        <CharString name="dieresis.cap">
          531 110 140 callsubr
          vstem
          17 callgsubr
          endchar
        </CharString>
        <CharString name="dieresis.dup">
          531 507 97 hstem
          127 98 81 98 vstem
          -22 callgsubr
          endchar
        </CharString>
        <CharString name="dieresis.ts1">
          531 508 104 hstem
          108 108 98 108 vstem
          422 559 rmoveto
          29 -24 24 -30 vhcurveto
          -7 hlineto
          -24 -3 -23 -19 -30 vvcurveto
          -29 25 -23 29 vhcurveto
          7 hlineto
          25 4 22 19 28 vvcurveto
          -206 1 rmoveto
          29 -25 23 -29 vhcurveto
          -7 hlineto
          -25 -4 -22 -19 -28 vvcurveto
          -29 24 -24 30 vhcurveto
          7 hlineto
          24 3 23 19 30 vvcurveto
          endchar
        </CharString>
        <CharString name="discount">
          531 22 -21 32 122 387 122 30 -20 21 -20 hstemhm
          128 123 28 123 hintmask 00001000
          471 652 rmoveto
          4 vlineto
          21 -17 18 -21 vhcurveto
          hintmask 11110110
          -7 -1 -20 -3 -8 -18 -9 -16 rlinecurve
          -313 -576 -6 -11 -9 -12 -2 -13 rlinecurve
          -5 vlineto
          -21 17 -18 22 vhcurveto
          2 hlineto
          35 2 33 85 25 46 263 484 rcurveline
          6 11 7 11 2 12 rrcurveto
          -220 -50 84 callgsubr
          151 -509 84 callgsubr
          endchar
        </CharString>
        <CharString name="divide">
          531 8 135 125 77 125 135 hstem
          197 135 cntrmask 11100000
          492 306 39 callsubr
          -160 231 40 callgsubr
          -462 vmoveto
          60 callgsubr
        </CharString>
        <CharString name="divorced">
          531 -45 -21 157 72 287 72 156 -20 hstem
          96 75 55 78 55 75 cntrmask 00001110
          743 307 rmoveto
          109 -77 106 -118 vhcurveto
          -10 hlineto
          -111 -12 -68 -100 -103 vvcurveto
          -108 77 -108 118 vhcurveto
          11 hlineto
          118 15 60 100 101 vvcurveto
          -572 hmoveto
          109 -79 106 -117 vhcurveto
          -11 hlineto
          -114 -13 -63 -103 -100 vvcurveto
          -107 77 -108 118 vhcurveto
          10 hlineto
          114 12 65 102 102 vvcurveto
          133 -335 rmoveto
          667 vlineto
          29 -16 10 -22 -5 -4 0 -1 -5 vhcurveto
          -20 -3 -6 -18 -18 vvcurveto
          -663 vlineto
          -28 16 -13 23 27 12 16 22 vhcurveto
          -208 336 rmoveto
          -67 -43 -78 -77 -71 -38 72 60 -8 vhcurveto
          4 -1 4 4 vvcurveto
          67 48 76 71 vhcurveto
          6 hlineto
          69 -6 44 -71 -65 vvcurveto
          575 1 rmoveto
          -5 0 -5 -1 -5 vhcurveto
          -59 -4 -41 -72 -71 hhcurveto
          -77 -43 78 67 66 44 69 70 7 hvcurveto
          3 hlineto
          70 50 -72 -69 hvcurveto
          endchar
        </CharString>
        <CharString name="dlinebelow">
          2 callsubr
          hintmask 00000000
          98 -410 -89 callsubr
        </CharString>
        <CharString name="dollar">
          531 -62 -21 80 67 208 91 0 91 93 67 -66 67 79 -20 hstemhm
          59 70 103 66 103 70 cntrmask 0000000111000000
          hintmask 0001011111000000
          471 174 rmoveto
          64 -43 87 -130 25 vhcurveto
          198 vlineto
          49 -8 29 -21 13 -32 rrcurveto
          -6 -5 -9 -8 -24 vvcurveto
          -27 21 -21 27 21 28 13 39 53 -27 92 -146 16 vhcurveto
          36 69 callgsubr
          -33 0 -29 -14 vhcurveto
          hintmask 1101100111000000
          -37 vlineto
          -103 -13 -70 -72 -79 vvcurveto
          -45 26 -92 147 -27 vhcurveto
          -222 vlineto
          -48 8 -31 23 -13 42 rrcurveto
          9 7 7 13 16 vvcurveto
          26 -19 22 -29 -24 -25 -14 -38 -56 30 -100 143 -16 vhcurveto
          -37 vlineto
          -14 0 -29 33 33 0 28 15 vhcurveto
          37 vlineto
          99 14 74 74 89 vvcurveto
          -239 189 rmoveto
          -59 12 -44 35 45 vvcurveto
          33 29 45 74 14 vhcurveto
          169 -379 rmoveto
          -46 -41 -45 -62 -13 vhcurveto
          hintmask 0010000111000000
          208 vlineto
          56 -12 47 -40 -52 vvcurveto
          endchar
        </CharString>
        <CharString name="dollar.oldstyle">
          531 455 69 0 66 0 69 hstemhm
          47 71 -21 66 0 66 72 66 45 70 cntrmask 11100000
          hintmask 11110111
          482 172 rmoveto
          64 -38 53 -59 32 vhcurveto
          -9 5 -9 3 0 vvcurveto
          197 vlineto
          13 -9 17 -18 -10 vvcurveto
          -2 vlineto
          -3 -10 -17 0 vhcurveto
          -1 -5 -1 -5 -5 vvcurveto
          -27 20 -22 29 26 22 21 31 vhcurveto
          8 vlineto
          -5 61 -40 63 -70 15 rrcurveto
          57 vlineto
          23 -14 13 -19 -23 -10 -16 -25 vhcurveto
          -38 -72 45 vlineto
          21 -15 13 -18 -23 -10 -16 -25 vhcurveto
          -55 vlineto
          0 -9 -3 -10 -6 vhcurveto
          -13 -7 -6 -3 -11 -8 rrcurveto
          -42 -31 -25 -41 -48 vvcurveto
          -61 45 -51 53 -25 vhcurveto
          9 -5 9 -3 0 vvcurveto
          -216 vlineto
          -13 11 -18 20 12 vvcurveto
          2 vlineto
          12 13 7 18 vvcurveto
          hintmask 11101000
          27 -20 22 -28 vhcurveto
          hintmask 11110111
          -26 -24 -19 -33 -66 40 -56 57 -28 hvcurveto
          8 -3 11 -5 0 vvcurveto
          -54 vlineto
          -22 10 -19 23 17 16 14 21 vhcurveto
          46 vlineto
          -2 9 18 0 9 hhcurveto
          15 6 1 1 15 hvcurveto
          -46 vlineto
          -21 15 -13 18 23 10 16 25 vhcurveto
          55 vlineto
          0 28 14 20 16 vhcurveto
          40 31 27 46 51 vvcurveto
          -181 177 rmoveto
          -72 18 rlineto
          183 72 vlineto
          -138 -158 rmoveto
          -22 13 -18 20 -5 27 rrcurveto
          5 vlineto
          29 23 23 22 15 vhcurveto
          249 -357 rmoveto
          -32 -22 -23 -23 -20 vhcurveto
          150 vlineto
          26 -18 19 -27 -30 vvcurveto
          -111 -102 rmoveto
          -72 223 hlineto
          72 -18 rlineto
          endchar
        </CharString>
        <CharString name="dong">
          531 -66 66 hstem
          493 62 rmoveto
          31 -26 0 -15 vhcurveto
          -39 370 44 hlineto
          17 14 14 17 17 -14 15 -17 hvcurveto
          -44 -1 rlineto
          45 vlineto
          32 -9 9 -32 vhcurveto
          -70 hlineto
          -15 -26 0 -31 -32 26 -11 callsubr
          39 -22 -140 hlineto
          -17 -14 -15 -17 -17 14 -14 17 hvcurveto
          140 -57 hlineto
          34 -44 -40 5 -25 hhcurveto
          -106 -94 -90 -120 -116 87 -93 104 51 39 23 26 28 hvcurveto
          -26 0 -18 41 vhcurveto
          70 hlineto
          15 26 0 31 hvcurveto
          -95 vmoveto
          128 callsubr
          vhcurveto
          -395 85 callgsubr
          395 hlineto
          140 callgsubr
          hvcurveto
          -152 251 rmoveto
          -54 -44 -75 -71 -64 -58 62 84 84 63 63 70 56 48 -48 -53 vhcurveto
          endchar
        </CharString>
        <CharString name="dotaccent">
          150 callgsubr
          155 callsubr
          556 rmoveto
          60 callsubr
        </CharString>
        <CharString name="dotaccent.alt">
          531 467 155 callsubr
          521 rmoveto
          60 callsubr
        </CharString>
        <CharString name="dotaccent.cap">
          531 135 callgsubr
          vstem
          320 539 rmoveto
          60 callsubr
        </CharString>
        <CharString name="dotlessi">
          -1 callsubr
          hstem
          240 76 vstem
          -92 callsubr
          endchar
        </CharString>
        <CharString name="dotlessj">
          531 -227 66 526 66 hstem
          48 96 155 76 vstem
          -71 callgsubr
          endchar
        </CharString>
        <CharString name="e">
          -9 callgsubr
          hstem
          53 79 260 78 vstem
          -103 callgsubr
          endchar
        </CharString>
        <CharString name="eacute">
          -9 callgsubr
          72 -21 131 -20 51 callgsubr
          hintmask 11100110
          -103 callgsubr
          hintmask 00011000
          -18 330 -107 callsubr
        </CharString>
        <CharString name="ebreve">
          -9 callgsubr
          63 69 39 -20 51 callgsubr
          hintmask 11100110
          -103 callgsubr
          hintmask 00011000
          54 325 -99 callsubr
        </CharString>
        <CharString name="ecaron">
          8 callsubr
          hintmask 00010000
          8 315 -75 callgsubr
        </CharString>
        <CharString name="ecircumflex">
          8 callsubr
          hintmask 00010000
          8 289 -85 callsubr
          endchar
        </CharString>
        <CharString name="ecircumflexacute">
          -9 callgsubr
          302 -20 13 callgsubr
          2 293 -24 callgsubr
          157 -107 callsubr
        </CharString>
        <CharString name="ecircumflexdotbelow">
          -32 callgsubr
          87 66 29 callsubr
          hstemhm
          53 79 80 108 72 78 hintmask 01111010
          -103 callgsubr
          8 289 -85 callsubr
          hintmask 10000100
          -80 -688 rmoveto
          60 callsubr
        </CharString>
</ttFont>
